<svg xmlns="http://www.w3.org/2000/svg" viewBox="0 0 24 24">
  <path
    fill="currentColor"
    d="m16.4 1 5.5 5.5v15.392A1.1 1.1 0 0 1 20.808 23H3.192A1.1 1.1 0 0 1 2.1 21.909V2.091C2.1 1.488 2.592 1 3.199 1zm0 7.334H7.6V6.866h3.666V5.4h1.467l-.001 1.466h2.566L15.3 3.2h-11v17.6h15.4V7.6l-3.3-.001zm-7.334 6.6v2.199H16.4V18.6H7.6v-3.666zM12 14.566a1.1 1.1 0 1 1 0 2.2 1.1 1.1 0 0 1 0-2.2M12 8.7a2.75 2.75 0 1 1 0 5.5 2.75 2.75 0 0 1 0-5.5m0 1.466a1.284 1.284 0 1 0 0 2.567 1.284 1.284 0 0 0 0-2.567"
  />
</svg>
