<svg xmlns="http://www.w3.org/2000/svg" viewBox="0 0 24 24">
  <path
    fill="currentColor"
    fill-rule="evenodd"
    d="M5.25 8.07c0-.42.336-.76.75-.76h12c.414 0 .75.34.75.76v2.282c0 .42-.336.76-.75.76a.755.755 0 0 1-.75-.76V8.831h-4.5v10.648h1.5c.414 0 .75.34.75.76s-.336.761-.75.761h-4.5a.755.755 0 0 1-.75-.76c0-.42.336-.761.75-.761h1.5V8.83h-4.5v1.521c0 .42-.336.76-.75.76a.755.755 0 0 1-.75-.76V8.07Z"
    clip-rule="evenodd"
  />
  <path
    fill="currentColor"
    d="M6 4.014c0 .56-.448 1.014-1 1.014s-1-.454-1-1.014S4.448 3 5 3s1 .454 1 1.014Zm7 0c0 .56-.448 1.014-1 1.014s-1-.454-1-1.014S11.448 3 12 3s1 .454 1 1.014Zm7 0c0 .56-.448 1.014-1 1.014s-1-.454-1-1.014S18.448 3 19 3s1 .454 1 1.014Z"
  />
</svg>
