<svg xmlns="http://www.w3.org/2000/svg" fill="none" viewBox="0 0 24 24">
  <path
    stroke="currentColor"
    stroke-linecap="round"
    stroke-linejoin="round"
    stroke-width="1.5"
    d="M12 8v14M5 11V9c0-.26522.09219-.51957.25628-.70711C5.42038 8.10536 5.64294 8 5.875 8h12.25c.2321 0 .4546.10536.6187.29289C18.9078 8.48043 19 8.73478 19 9v2m-9 11h4M12 5c.5523 0 1-.44772 1-1s-.4477-1-1-1-1 .44772-1 1 .4477 1 1 1Zm7 0c.5523 0 1-.44772 1-1s-.4477-1-1-1-1 .44772-1 1 .4477 1 1 1ZM5 5c.55228 0 1-.44772 1-1s-.44772-1-1-1-1 .44772-1 1 .44772 1 1 1Z"
  />
</svg>
