<svg xmlns="http://www.w3.org/2000/svg" fill="none" viewBox="0 0 24 24">
  <path
    fill="currentColor"
    fill-rule="evenodd"
    d="M12 1.25c5.9371 0 10.75 4.813 10.75 10.75 0 5.9371-4.8129 10.75-10.75 10.75-5.937 0-10.75-4.8129-10.75-10.75C1.25 6.063 6.063 1.25 12 1.25Zm0 1.5c-5.1086 0-9.25 4.1414-9.25 9.25 0 2.5339 1.0195 4.8293 2.67 6.5a6.7472 6.7472 0 0 1 1.8066-3.2734 6.7446 6.7446 0 0 1 1.9931-1.377C8.027 12.9867 7.25 11.5847 7.25 10c0-2.6234 2.1266-4.75 4.75-4.75s4.75 2.1266 4.75 4.75c0 1.585-.7776 2.9867-1.9707 3.8496a6.7413 6.7413 0 0 1 1.9941 1.377c.906.9059 1.5255 2.0437 1.8057 3.2734 1.6507-1.6707 2.6709-3.9658 2.6709-6.5 0-5.1086-4.1414-9.25-9.25-9.25Z"
    clip-rule="evenodd"
  />
</svg>
