<svg xmlns="http://www.w3.org/2000/svg" fill="none" viewBox="0 0 24 24">
  <path
    fill="currentColor"
    fill-rule="evenodd"
    d="M7.836 3.2559a2.7523 2.7523 0 0 1 1.1269.3261 2.752 2.752 0 0 1 .9785.8946l.8203 1.2002.0069.0107.0927.123a1.2518 1.2518 0 0 0 .9453.4395h5.9258l.2715.0137A2.7503 2.7503 0 0 1 20.4824 9v1.3535a2.757 2.757 0 0 1 .461.1758 2.7511 2.7511 0 0 1 1.4853 1.915c.0743.3599.0761.7305.0049 1.0899l-.0352.1533-1.5498 6a2.7514 2.7514 0 0 1-.9804 1.4883 2.7504 2.7504 0 0 1-1.6856.5732l-14.4502.001c-.23 0-.4565-.0332-.6758-.0889a.7532.7532 0 0 1-.0986-.0244 2.748 2.748 0 0 1-1.17-.6924A2.7497 2.7497 0 0 1 .9825 19V6c0-1.5142 1.2358-2.75 2.75-2.75H7.666l.17.0059ZM3.7323 4.75c-.6858 0-1.25.5642-1.25 1.25v13c0 .3311.1314.6485.3653.8828L6.499 11.791l.0137-.0283.0918-.168A2.751 2.751 0 0 1 8.9727 10.25h10.0097V9a1.2505 1.2505 0 0 0-1.126-1.2441l-.124-.0059h-5.9336a2.7523 2.7523 0 0 1-1.2968-.332 2.752 2.752 0 0 1-.9864-.9053l-.8125-1.1895-.0068-.0107a1.2518 1.2518 0 0 0-.4483-.4111 1.2537 1.2537 0 0 0-.4355-.1416L7.6582 4.75H3.7324Z"
    clip-rule="evenodd"
  />
</svg>
