<svg xmlns="http://www.w3.org/2000/svg" fill="none" viewBox="0 0 24 24">
  <path
    fill="currentColor"
    fill-rule="evenodd"
    d="M16.9521 3.2568a2.7496 2.7496 0 0 1 1.2559.4063 2.75 2.75 0 0 1 1.0127 1.1113l3.4502 6.8897c.0046.0091.0075.019.0117.0283A.751.751 0 0 1 22.75 12v6a2.7494 2.7494 0 0 1-.8057 1.9443A2.7494 2.7494 0 0 1 20 20.75H4a2.7494 2.7494 0 0 1-1.9443-.8057A2.7497 2.7497 0 0 1 1.25 18v-6a.7515.7515 0 0 1 .0664-.3076c.0042-.0094.008-.0191.0127-.0283l3.4502-6.8897A2.75 2.75 0 0 1 5.792 3.6631 2.7497 2.7497 0 0 1 7.2393 3.25h9.5214l.1914.0068ZM7.2402 4.75a1.2507 1.2507 0 0 0-.6582.1875 1.2499 1.2499 0 0 0-.372.3564l-.088.1495-.001.0029-.0009-.001L3.2148 11.25H8c.2508 0 .485.1253.624.334l1.7774 2.666h3.1972l1.7774-2.666.0566-.0742A.7498.7498 0 0 1 16 11.25h4.7852l-2.9073-5.8066a1.2496 1.2496 0 0 0-.9453-.6817l-.1728-.0117H7.2402Z"
    clip-rule="evenodd"
  />
</svg>
