<svg xmlns="http://www.w3.org/2000/svg" fill="none" viewBox="0 0 400 400">
  <rect width="400" height="400" fill="#faad00" rx="128" />
  <path
    fill="#fff"
    d="M249.82 166.581c4.034-13.581 12.781-26.582 21.392-35.33 1.929-1.957.571-5.251-2.187-5.251-31.524 0-59.001 24.651-73.466 61.141-8.965-11.016-22.289-18.576-37.474-20.236 3.993-13.703 12.808-26.838 21.487-35.654 1.929-1.957.571-5.251-2.187-5.251-37.283 0-68.889 34.438-80.0539 82.188.0407-.054-1.3311 7.87-1.3311 12.082 0 29.673 24.937 53.73 55.701 53.73 20.659 0 38.683-10.854 48.299-26.973C209.616 263.146 227.64 274 248.299 274 279.063 274 304 249.943 304 220.27s-24.136-52.92-54.207-53.689h.027Z"
  />
</svg>
