<svg width="512" height="512" viewBox="0 0 512 512" fill="none" xmlns="http://www.w3.org/2000/svg">
<path d="M484 338.001C481.791 338.001 480 336.21 480 334.001V178C480 175.791 481.791 174 484 174H508C510.209 174 512 175.791 512 178V334.001C512 336.21 510.209 338.001 508 338.001H484Z" fill="white"/>
<path d="M432.51 276.001C433.919 274.477 435.519 274.033 437.311 274.668C439.104 275.303 440 276.7 440 278.858C440 285.208 436.351 291.811 429.054 298.668C421.884 305.398 412.538 308.763 401.016 308.763C386.677 308.763 375.027 304.319 366.065 295.43C357.231 286.541 352.814 274.922 352.814 260.572C352.814 246.731 357.487 235.429 366.833 226.667C376.307 217.905 387.509 213.524 400.44 213.524C412.218 213.524 421.308 216.128 427.709 221.334C434.239 226.54 437.503 232.382 437.503 238.858C437.503 243.556 435.327 247.302 430.974 250.096L396.215 272.573C401.208 278.922 407.609 282.096 415.419 282.096C422.716 282.096 428.413 280.065 432.51 276.001ZM397.367 223.81C394.295 223.81 391.798 225.334 389.878 228.382C388.085 231.429 387.189 235.048 387.189 239.239C387.189 247.874 388.341 255.43 390.646 261.906L402.936 252.953C406.265 250.541 407.929 247.048 407.929 242.477C407.929 240.826 407.801 239.112 407.545 237.334C407.289 235.429 406.777 233.398 406.009 231.239C405.369 229.08 404.281 227.302 402.744 225.905C401.208 224.509 399.416 223.81 397.367 223.81Z" fill="white"/>
<path d="M339.924 200C335.443 204.064 329.618 206.096 322.448 206.096C315.279 206.096 309.39 204.064 304.781 200C300.3 195.937 298.059 190.921 298.059 184.953C298.059 178.984 300.3 174.032 304.781 170.095C309.39 166.032 315.279 164 322.448 164C329.618 164 335.443 166.032 339.924 170.095C344.533 174.032 346.837 178.984 346.837 184.953C346.837 190.921 344.533 195.937 339.924 200ZM299.403 306.858C296.203 306.858 294.603 305.525 294.603 302.858V302.096C294.603 300.446 295.883 297.906 298.443 294.477C301.132 290.922 302.476 287.43 302.476 284.001V253.334C302.476 249.905 301.132 246.54 298.443 243.239C295.883 239.81 294.603 237.397 294.603 236.001V235.239C294.603 233.588 296.203 232.001 299.403 230.477L332.242 214.477C335.059 213.207 337.299 213.08 338.963 214.096C340.756 215.112 341.652 216.699 341.652 218.858V284.001C341.652 287.43 343.124 290.922 346.069 294.477C349.014 297.906 350.486 300.446 350.486 302.096V302.858C350.486 305.525 348.885 306.858 345.685 306.858H299.403Z" fill="white"/>
<path d="M244.56 213.524C251.986 213.524 259.027 215.112 265.685 218.286C272.47 221.334 278.231 226.477 282.968 233.715C287.705 240.953 290.074 249.588 290.074 259.62C290.074 274.35 285.593 286.223 276.631 295.239C267.669 304.255 256.979 308.763 244.56 308.763C237.647 308.763 231.886 307.43 227.277 304.763V323.43C227.277 326.859 228.749 330.287 231.694 333.716C234.638 337.271 236.111 339.875 236.111 341.525V342.287C236.111 344.954 234.51 346.287 231.31 346.287H186.181C182.98 346.287 181.38 344.954 181.38 342.287V341.525C181.38 339.875 182.66 337.271 185.22 333.716C187.909 330.287 189.253 326.859 189.253 323.43V251.62C189.253 248.445 187.589 245.461 184.26 242.668C181.06 239.874 179.459 237.588 179.459 235.81V234.667C179.459 232.382 181.06 230.413 184.26 228.763L212.682 214.858C215.883 213.588 218.123 213.397 219.403 214.286C220.812 215.048 221.516 216.572 221.516 218.858V222.667C226.253 216.572 233.934 213.524 244.56 213.524ZM241.296 298.668C248.465 298.668 252.05 292.065 252.05 278.858C252.05 271.62 251.602 264.128 250.706 256.382C249.937 248.636 248.209 241.271 245.521 234.286C242.832 227.175 239.503 223.62 235.535 223.62C230.029 223.62 227.277 227.81 227.277 236.191V271.62C227.277 279.747 228.685 286.287 231.502 291.239C234.318 296.192 237.583 298.668 241.296 298.668Z" fill="white"/>
<path d="M179.014 215.428C182.215 215.428 183.815 216.761 183.815 219.428V220.19C183.815 222.348 182.279 225.269 179.206 228.952C176.134 232.634 174.021 235.745 172.869 238.285L136.766 315.238C126.524 337.08 114.297 348 100.086 348C90.4844 348 82.6749 345.651 76.6577 340.953C70.6404 336.381 67.6318 330.921 67.6318 324.572C67.6318 320 69.0401 316.317 71.8567 313.524C74.5452 310.857 78.258 309.524 82.9949 309.524C87.7319 309.524 91.3806 310.921 93.9411 313.714C96.6297 316.635 98.23 319.81 98.7421 323.238C99.3822 326.667 100.15 329.778 101.047 332.572C102.071 335.492 103.415 336.953 105.079 336.953C109.816 336.953 115.385 329.206 121.787 313.714L82.2268 238.285C80.9465 235.872 78.7701 232.825 75.6975 229.142C72.6248 225.333 71.0885 222.348 71.0885 220.19V219.428C71.0885 216.761 72.6889 215.428 75.8895 215.428H121.595C123.003 215.428 124.091 215.809 124.859 216.571C125.756 217.333 126.204 218.348 126.204 219.618V220.38C126.204 221.777 125.628 223.428 124.475 225.333C123.323 227.11 122.555 228.761 122.171 230.285C121.787 231.809 122.299 234.666 123.707 238.856L140.799 279.809L156.162 242.476C157.698 237.523 157.762 234.031 156.354 231.999C154.945 229.841 152.961 227.745 150.401 225.714C147.968 223.555 146.752 221.777 146.752 220.38V219.618C146.752 216.825 148.352 215.428 151.553 215.428H179.014Z" fill="white"/>
<path d="M43.5928 308.763C33.4788 308.763 25.4131 305.589 19.3959 299.239C13.5067 292.763 10.5621 283.62 10.5621 271.811V229.715H4.80097C3.39269 229.715 2.24045 229.27 1.34427 228.382C0.448091 227.366 0 226.223 0 224.953V220.191C0 217.016 1.60032 215.429 4.80097 215.429H7.48951C13.7628 215.429 19.2679 213.651 24.0048 210.096C28.7418 206.54 31.8144 201.842 33.2227 196C34.1189 192.445 36.0393 190.667 38.9839 190.667H44.1689C45.8333 190.667 47.1775 191.175 48.2017 192.191C49.2259 193.08 49.738 194.35 49.738 196V215.429H67.7897C69.198 215.429 70.3502 215.874 71.2464 216.762C72.1426 217.651 72.5907 218.794 72.5907 220.191V224.953C72.5907 226.223 72.1426 227.366 71.2464 228.382C70.3502 229.27 69.198 229.715 67.7897 229.715H49.738V272.572C49.738 275.239 50.4422 277.398 51.8505 279.049C53.3868 280.573 55.3072 281.334 57.6116 281.334C62.2206 281.334 66.2534 279.303 69.7101 275.239C71.2464 273.588 72.9107 273.017 74.7031 273.525C76.4954 273.906 77.3916 275.049 77.3916 276.953C77.3916 285.334 74.383 292.763 68.3658 299.239C62.3486 305.589 54.0909 308.763 43.5928 308.763Z" fill="white"/>
</svg>
