<svg width="208" height="148" viewBox="0 0 208 148" fill="none" xmlns="http://www.w3.org/2000/svg">
<path d="M153.82 40.5809C157.854 26.9999 166.601 13.9995 175.212 5.25148C177.141 3.29399 175.783 0 173.025 0C141.501 0 114.024 24.6509 99.5586 61.1413C90.5942 50.1253 77.27 42.5654 62.0849 40.9049C66.0781 27.2024 74.893 14.067 83.5722 5.25148C85.5008 3.29399 84.1426 0 81.3854 0C44.1019 0 12.4958 34.4384 1.33107 82.1877C1.37182 82.1337 0 90.0582 0 94.2702C0 123.943 24.9372 148 55.7012 148C76.3599 148 94.3837 137.146 104 121.027C113.616 137.146 131.64 148 152.299 148C183.063 148 208 123.943 208 94.2702C208 64.5973 183.864 41.3504 153.793 40.5809H153.82Z" fill="#FAAD00" style="fill:#FAAD00;fill:color(display-p3 0.9809 0.6772 0.0000);fill-opacity:1;"/>
</svg>
