<svg width="66" height="80" viewBox="0 0 66 80" fill="none" xmlns="http://www.w3.org/2000/svg">
  <g id="Group 1707481499">
    <path
      id="Vector 790"
      d="M58.2441 11.9147C41.3155 -3.68324 3.56836 8.163 3.56836 12.7676L6.10823 36.5866C6.12954 36.7864 6.17088 36.9837 6.23163 37.1752L12.4781 56.8755C12.7028 57.5844 13.1828 58.1845 13.825 58.5595L32.9923 69.7517C34.1487 70.4269 35.6125 70.254 36.5798 69.3279L58.1966 48.631C58.7876 48.0651 59.1219 47.2823 59.1219 46.4641V13.9886C59.1219 13.2058 58.8198 12.4451 58.2441 11.9147Z"
      fill="white"
    />
    <path
      id="Vector"
      fill-rule="evenodd"
      clip-rule="evenodd"
      d="M47.483 47.9301C47.1487 46.9345 46.7292 45.9691 46.2291 45.0443C45.7063 44.1239 45.0823 43.2636 44.3684 42.4792C43.3461 41.4318 42.2061 40.5039 40.9707 39.7137C42.3821 38.3233 43.4742 36.6474 44.1722 34.8006C44.8703 32.9538 45.158 30.9794 45.0156 29.0124C44.9942 25.6709 43.6368 22.4742 41.2409 20.1227C38.8449 17.7712 35.6059 16.4567 32.2336 16.4674C28.6395 16.3577 25.145 17.6471 22.4987 20.0594C19.8524 22.4718 18.2649 25.8151 18.0762 29.3731C17.976 31.5953 18.5258 33.7988 19.6596 35.7187C20.7934 37.6385 22.4629 39.1928 24.4673 40.1947C22.7619 41.0756 21.1494 42.1228 19.6538 43.3209C18.2022 44.541 16.9473 45.9737 15.9324 47.5693C15.0064 48.9527 14.3716 50.507 14.0658 52.1391C13.76 53.7712 13.7895 55.4477 14.1526 57.0683C14.2311 57.3752 14.4214 57.6425 14.6868 57.8188C14.9523 57.995 15.2741 58.0678 15.5905 58.023C15.9068 57.9782 16.1952 57.8191 16.4002 57.5762C16.6053 57.3334 16.7124 57.024 16.701 56.7075C16.7172 54.8458 17.2948 53.0313 18.3594 51.4972C19.3607 49.9826 20.4979 48.5607 21.7571 47.2487C23.7392 45.0844 25.8021 42.9201 27.501 41.2768C28.7328 41.5818 29.9938 41.7564 31.2628 41.7979C31.5315 41.7478 31.7742 41.6062 31.9488 41.3976C32.1234 41.189 32.2189 40.9266 32.2189 40.6556C32.2189 40.3846 32.1234 40.1221 31.9488 39.9136C31.7742 39.705 31.5315 39.5634 31.2628 39.5133C24.4673 38.7919 21.2313 34.3029 21.5954 29.5334C21.8716 27.0063 23.126 24.6837 25.095 23.0542C27.0639 21.4247 29.5938 20.6152 32.1527 20.796C34.4885 20.7529 36.7469 21.6258 38.4363 23.2247C40.1257 24.8236 41.1093 27.019 41.1729 29.333C41.65 31.7029 41.1604 34.1636 39.811 36.1766C38.4617 38.1897 36.3625 39.5912 33.9729 40.0744C33.8029 40.0928 33.6383 40.1443 33.4883 40.2257C33.3384 40.3072 33.2061 40.4171 33.0991 40.5493C32.992 40.6814 32.9123 40.8331 32.8644 40.9958C32.8166 41.1584 32.8015 41.3288 32.8201 41.4973C32.8387 41.6657 32.8906 41.8288 32.9728 41.9774C33.055 42.1259 33.166 42.257 33.2993 42.3631C33.4327 42.4691 33.5858 42.5481 33.7499 42.5956C33.9141 42.643 34.0861 42.6579 34.256 42.6395C35.6667 42.4845 37.0372 42.0771 38.301 41.4371C39.2682 42.5674 40.16 43.7589 40.9707 45.0042C41.456 45.7257 41.901 46.4872 42.3055 47.2086C42.71 47.9301 43.1954 48.6916 43.5999 49.4531C44.5819 51.3476 45.407 53.318 46.0673 55.3448C46.1449 55.6753 46.3477 55.9636 46.6338 56.1501C46.9199 56.3366 47.2673 56.4071 47.6044 56.3468C47.7721 56.3134 47.9315 56.2474 48.0733 56.1525C48.2152 56.0577 48.3366 55.936 48.4306 55.7943C48.5247 55.6527 48.5894 55.494 48.6212 55.3274C48.6529 55.1608 48.651 54.9897 48.6156 54.8238C48.5054 52.4905 48.1254 50.1775 47.483 47.9301Z"
      fill="black"
    />
    <path
      id="Vector_2"
      fill-rule="evenodd"
      clip-rule="evenodd"
      d="M60.9561 8.28584C51.4584 -3.36913 17.5382 -1.78673 2.55897 7.19034C2.32867 7.3235 2.15497 7.55381 2.07609 7.83059C1.99721 8.10738 2.01961 8.40796 2.13836 8.66623C2.25711 8.92449 2.46248 9.11928 2.7093 9.20773C2.95612 9.29619 3.22416 9.27107 3.45446 9.1379C18.2437 0.647729 50.6715 0.221699 58.7852 10.4769C60.2506 12.3636 57.6998 37.8645 56.2887 44.681C54.8776 51.4975 42.7206 63.548 36.6963 67.5953C32.7344 70.2732 32.2731 70.1819 28.3926 67.5953C21.0116 62.5438 7.14499 48.1805 6.68367 44.6201C6.68367 44.1028 1.71775 15.3762 2.17906 13.3373C2.19648 13.1087 2.14133 12.8805 2.02335 12.693C1.90536 12.5055 1.73211 12.3707 1.53417 12.3125C1.33623 12.2543 1.12631 12.2763 0.941444 12.3748C0.756581 12.4732 0.608652 12.6416 0.523753 12.8505C0.00816491 15.4371 4.48564 43.7376 4.53991 44.7419C4.89268 50.3107 26.2489 73.1033 32.653 73.0424C39.0572 72.9816 57.5369 55.0579 59.4907 45.6548C60.4405 40.725 64.1039 12.181 60.9561 8.28584Z"
      fill="black"
    />
    <g id="Group 1707481498">
      <path
        id="Polygon 1"
        d="M46.8845 51.5538C48.5718 47.3917 54.4648 47.3917 56.152 51.5539L60.8541 63.1532C62.1867 66.4405 59.7676 70.0316 56.2203 70.0316H46.8162C43.269 70.0316 40.8499 66.4405 42.1825 63.1532L46.8845 51.5538Z"
        fill="#F8AA0F"
      />
      <path
        id="Vector_3"
        fill-rule="evenodd"
        clip-rule="evenodd"
        d="M52.2523 48.3465C51.9053 47.5466 49.7695 47.6654 48.647 48.0915C45.8849 49.7878 43.7015 52.2905 42.3871 55.2667C36.849 65.5839 35.8289 71.367 47.1514 72.2682C51.4611 72.5774 55.7917 72.132 59.9504 70.9513C60.9453 70.6516 61.7962 69.9946 62.3415 69.1049C62.8869 68.2153 63.0887 67.155 62.9086 66.1254C62.5061 62.8976 55.0369 46.8357 52.2523 48.3465ZM51.9053 49.2827C51.7568 49.3568 51.5867 49.3742 51.4264 49.3316C45.9491 48.1946 40.5498 63.8618 40.6296 66.4782C40.7718 71.4194 55.8246 70.1548 59.0708 68.8222C60.2679 68.3401 60.8301 67.7812 60.6843 66.3612C59.9767 63.6607 59.014 61.0347 57.8094 58.5189C53.0903 48.006 52.3286 50.4233 51.907 49.2845L51.9053 49.2827Z"
        fill="black"
      />
      <path
        id="Vector_4"
        fill-rule="evenodd"
        clip-rule="evenodd"
        d="M51.3635 63.5827C50.9073 62.298 46.8265 63.2679 47.8704 66.3882C48.0294 66.8703 48.3295 67.2932 48.7317 67.6018C49.1339 67.9105 49.6195 68.0904 50.1251 68.1183C50.6308 68.1461 51.1331 68.0206 51.5666 67.758C52.0001 67.4954 52.3446 67.108 52.5553 66.6462C53.2962 64.8619 52.1209 63.5973 51.3654 63.5827H51.3635Z"
        fill="black"
      />
      <path
        id="Vector_5"
        fill-rule="evenodd"
        clip-rule="evenodd"
        d="M51.4442 61.4955C53.6487 52.4733 47.6983 47.7263 49.8915 61.4457C49.8843 61.5379 49.8981 61.6305 49.932 61.7179C49.966 61.8053 50.0194 61.8858 50.0891 61.9545C50.1588 62.0232 50.2434 62.0788 50.3379 62.1179C50.4323 62.1571 50.5347 62.179 50.6388 62.1823C50.743 62.1857 50.8469 62.1704 50.9443 62.1374C51.0417 62.1044 51.1306 62.0544 51.2057 61.9903C51.2809 61.9262 51.3407 61.8494 51.3817 61.7644C51.4226 61.6794 51.4439 61.588 51.4442 61.4955Z"
        fill="black"
      />
    </g>
  </g>
</svg>
