<svg width="264" height="160" viewBox="0 0 264 160" fill="none" xmlns="http://www.w3.org/2000/svg">
  <rect width="243" height="148" rx="8" fill="white" />
  <rect x="14" y="17" width="214.437" height="28" rx="2" fill="#D9D9D9" />
  <rect x="14" y="82" width="61.6875" height="17" rx="2" fill="#D9D9D9" />
  <rect x="89.3955" y="82" width="62.6666" height="17" rx="2" fill="#D9D9D9" />
  <rect x="165.771" y="82" width="62.6666" height="17" rx="2" fill="#D9D9D9" />
  <rect x="14" y="109" width="61.6875" height="17" rx="2" fill="#D9D9D9" />
  <rect x="89.3955" y="109" width="62.6666" height="17" rx="2" fill="#D9D9D9" />
  <rect x="165.771" y="109" width="62.6666" height="17" rx="2" fill="#D9D9D9" />
  <rect x="89.3955" y="55" width="62.6666" height="17" rx="2" fill="#D9D9D9" />
  <rect x="14" y="55" width="61.6875" height="17" rx="2" fill="#D9D9D9" />
  <rect x="165.771" y="55" width="62.6666" height="17" rx="2" fill="#D9D9D9" />
  <rect x="182" y="78" width="82" height="82" rx="8" fill="white" />
  <rect x="182.5" y="78.5" width="81" height="81" rx="7.5" stroke="#E4E4E7" stroke-opacity="0.6" />
  <path
    fill-rule="evenodd"
    clip-rule="evenodd"
    d="M217.589 113.588C218.306 113.588 218.994 113.303 219.502 112.796C220.009 112.288 220.294 111.6 220.294 110.882C220.294 110.165 220.009 109.477 219.502 108.969C218.994 108.462 218.306 108.177 217.589 108.177C216.871 108.177 216.183 108.462 215.675 108.969C215.168 109.477 214.883 110.165 214.883 110.882C214.883 111.6 215.168 112.288 215.675 112.796C216.183 113.303 216.871 113.588 217.589 113.588ZM217.589 116.294C219.024 116.294 220.4 115.724 221.415 114.709C222.43 113.694 223 112.318 223 110.882C223 109.447 222.43 108.071 221.415 107.056C220.4 106.041 219.024 105.471 217.589 105.471C216.153 105.471 214.777 106.041 213.762 107.056C212.747 108.071 212.177 109.447 212.177 110.882C212.177 112.318 212.747 113.694 213.762 114.709C214.777 115.724 216.153 116.294 217.589 116.294Z"
    fill="#A3A3A3"
  />
  <path
    d="M216.236 120.835L211.067 127.794H216.236L221.404 130.5H211.067C210.566 130.5 210.075 130.36 209.649 130.097C209.222 129.834 208.877 129.457 208.652 129.009C208.427 128.562 208.331 128.06 208.374 127.561C208.418 127.062 208.599 126.584 208.897 126.182L214.063 119.222C214.315 118.883 214.642 118.607 215.02 118.418C215.397 118.228 215.813 118.129 216.236 118.129C216.658 118.129 217.075 118.228 217.452 118.418C217.829 118.607 218.157 118.883 218.409 119.222L220.993 122.702L218.82 124.315L216.236 120.835Z"
    fill="#A3A3A3"
  />
  <path
    fill-rule="evenodd"
    clip-rule="evenodd"
    d="M234.519 127.793L226.383 118.398L218.246 127.793H234.519ZM228.428 116.626C228.174 116.333 227.86 116.097 227.507 115.936C227.154 115.775 226.771 115.691 226.383 115.691C225.994 115.691 225.611 115.775 225.258 115.936C224.905 116.097 224.591 116.333 224.337 116.626L216.2 126.021C215.86 126.413 215.64 126.894 215.567 127.408C215.493 127.922 215.568 128.446 215.784 128.918C215.999 129.39 216.346 129.79 216.783 130.07C217.219 130.35 217.727 130.499 218.246 130.499H234.519C235.038 130.499 235.546 130.35 235.983 130.07C236.419 129.79 236.766 129.39 236.981 128.918C237.197 128.446 237.272 127.922 237.198 127.408C237.125 126.894 236.905 126.413 236.565 126.021L228.428 116.626Z"
    fill="#A3A3A3"
  />
  <path
    fill-rule="evenodd"
    clip-rule="evenodd"
    d="M241.941 98.7059H204.059C203.7 98.7059 203.356 98.8484 203.102 99.1021C202.848 99.3559 202.706 99.7 202.706 100.059V137.941C202.706 138.3 202.848 138.644 203.102 138.898C203.356 139.152 203.7 139.294 204.059 139.294H241.941C242.3 139.294 242.644 139.152 242.898 138.898C243.152 138.644 243.294 138.3 243.294 137.941V100.059C243.294 99.7 243.152 99.3559 242.898 99.1021C242.644 98.8484 242.3 98.7059 241.941 98.7059ZM204.059 96C202.982 96 201.95 96.4276 201.189 97.1888C200.428 97.95 200 98.9824 200 100.059V137.941C200 139.018 200.428 140.05 201.189 140.811C201.95 141.572 202.982 142 204.059 142H241.941C243.018 142 244.05 141.572 244.811 140.811C245.572 140.05 246 139.018 246 137.941V100.059C246 98.9824 245.572 97.95 244.811 97.1888C244.05 96.4276 243.018 96 241.941 96H204.059Z"
    fill="#A3A3A3"
  />
</svg>
