<svg viewBox="0 0 115 94" xmlns="http://www.w3.org/2000/svg">
  <path
    fill-rule="evenodd"
    clip-rule="evenodd"
    d="M83.4444 10.5005C89.0231 10.7777 93.4574 13.5128 97.8918 16.584C112.435 26.6696 117.298 42.3179 107.333 57.6951C91.8366 81.5414 55.7417 97.1483 27.7527 89.9456C21.5541 88.3582 13.1622 86.9591 7.01131 79.2073C1.28955 71.9995 1.52796 63.4309 4.15043 55.4981C6.82059 47.3646 11.9702 39.8788 16.0708 35.0669C33.999 14.0726 69.903 -5.00831 102.374 5.05101C103.042 5.24483 103.709 4.91151 103.9 4.30657C104.091 3.70163 103.757 3.05296 103.137 2.85914C69.7121 -7.49344 32.6637 11.9972 14.211 33.6033C9.1091 39.6035 2.43409 49.6195 0.526833 59.9827C-0.760564 67.0656 0.145196 74.306 5.10406 80.6045C11.6364 88.8619 20.5529 90.4792 27.1329 92.1697C56.0278 99.609 93.3621 83.5459 109.335 58.9174C120.064 42.3897 114.914 25.5545 99.2747 14.7139C94.5066 11.3817 89.6429 8.50202 83.5874 8.20185C82.9198 8.16916 82.3479 8.65763 82.3479 9.29203C82.3002 9.92644 82.8246 10.4678 83.4444 10.5005Z"
    fill="currentColor"
  />
</svg>
