<svg viewBox="0 0 124 111" fill="none" xmlns="http://www.w3.org/2000/svg">
  <path
    fill-rule="evenodd"
    clip-rule="evenodd"
    d="M75.132 103.112C79.6218 103.973 84.055 104.863 88.5699 105.597C89.5406 105.758 90.4638 105.13 90.6378 104.196C90.8159 103.256 90.1705 102.367 89.2056 102.21C84.7163 101.477 80.3203 100.595 75.862 99.7388C74.8981 99.5567 73.9558 100.164 73.7546 101.087C73.555 102.021 74.1681 102.93 75.132 103.112Z"
    fill="currentColor"
  />
  <path
    fill-rule="evenodd"
    clip-rule="evenodd"
    d="M63.1361 68.4676C75.7475 61.5261 87.9953 53.977 100.448 46.7819C101.293 46.2906 101.574 45.2392 101.081 44.432C100.582 43.6208 99.5018 43.3561 98.6508 43.8435C86.2218 51.0298 73.9983 58.5701 61.4093 65.4932C60.551 65.967 60.2487 67.012 60.7235 67.832C61.204 68.6559 62.282 68.9358 63.1361 68.4676Z"
    fill="currentColor"
  />
  <path
    fill-rule="evenodd"
    clip-rule="evenodd"
    d="M22.7585 36.3737C28.2755 25.8071 33.4969 15.0782 39.1351 4.57016C39.5813 3.72816 39.2458 2.70057 38.384 2.2732C37.5165 1.84187 36.4455 2.18347 35.9936 3.02151C30.3527 13.5447 25.1229 24.2848 19.6033 34.8665C19.1629 35.7124 19.5082 36.7385 20.3783 37.1548C21.2542 37.5749 22.3138 37.2252 22.7585 36.3737Z"
    fill="currentColor"
  />
</svg>
