<svg width="204" height="200" viewBox="0 0 204 200" xmlns="http://www.w3.org/2000/svg">
  <path
    fill-rule="evenodd"
    clip-rule="evenodd"
    d="M98.2777 161.92C109.689 173.055 122.141 183.584 129.591 197.953C130.037 198.807 131.087 199.145 131.947 198.703C132.801 198.257 133.138 197.206 132.696 196.347C125.072 181.643 112.396 170.811 100.718 159.418C100.031 158.741 98.9192 158.757 98.2472 159.449C97.5701 160.136 97.5905 161.243 98.2777 161.92Z"
    fill="currentColor"
  />
  <path
    fill-rule="evenodd"
    clip-rule="evenodd"
    d="M112.987 143.998C119.738 144.034 126.041 145.218 131.997 148.438C132.847 148.899 133.906 148.581 134.368 147.736C134.825 146.885 134.506 145.823 133.66 145.367C127.184 141.864 120.347 140.547 113.008 140.506C112.042 140.499 111.253 141.276 111.251 142.243C111.243 143.205 112.025 143.996 112.987 143.998Z"
    fill="currentColor"
  />
  <path
    fill-rule="evenodd"
    clip-rule="evenodd"
    d="M136.848 98.0369C143.834 93.8694 151.279 92.4506 159.319 93.9022C160.267 94.0729 161.177 93.4425 161.346 92.4915C161.52 91.5453 160.887 90.6347 159.939 90.464C151.04 88.8593 142.793 90.4219 135.059 95.0359C134.229 95.5279 133.962 96.6057 134.454 97.4313C134.95 98.2622 136.024 98.5336 136.848 98.0369Z"
    fill="currentColor"
  />
  <path
    fill-rule="evenodd"
    clip-rule="evenodd"
    d="M86.5713 36.8151C84.4922 37.0602 82.4312 37.4912 80.4277 38.1272C79.5351 38.4098 77.7624 39.126 76.6591 40.1278C75.4795 41.1912 74.9646 42.535 75.4992 43.9919C76.2103 45.926 77.3511 46.8542 78.5642 47.2121C79.7312 47.5578 81.0802 47.3589 82.4459 46.6803C85.0554 45.3824 87.7811 42.2252 89.0068 40.1168C91.0825 40.0087 93.1658 40.0976 95.2287 40.3727C110.594 42.4221 121.93 57.4755 123.261 77.0099C123.725 83.848 118.776 92.7004 112.453 101.337C102.61 114.786 89.2077 127.568 85.4069 131.43C84.4706 132.386 84.0222 133.053 83.9653 133.217C83.6748 134.011 83.9616 134.555 84.206 134.887C84.5645 135.364 84.9835 135.6 85.3931 135.714C85.9493 135.865 86.5781 135.805 87.2177 135.404C87.5685 135.181 87.9706 134.789 88.3672 134.342C88.6391 134.029 88.886 133.64 89.1497 133.48C90.844 132.458 92.5899 131.545 94.3345 130.613C100.188 127.469 106.232 125.042 112.497 122.83C132.401 115.801 152.791 107.777 174.249 108.271C175.211 108.293 176.015 107.531 176.035 106.566C176.061 105.604 175.297 104.804 174.329 104.778C152.444 104.271 131.633 112.368 111.333 119.536C106.005 121.418 100.83 123.453 95.7954 125.933C102.261 119.277 110.949 109.82 117.443 100.343C123.218 91.9148 127.196 83.4191 126.745 76.7719C125.288 55.3727 112.519 39.1511 95.6907 36.9101C93.8902 36.671 92.0695 36.5563 90.2538 36.5798C93.8569 22.0631 86.0674 7.65895 71.7655 2.90628C70.848 2.59996 69.8604 3.09769 69.555 4.01115C69.2546 4.92937 69.7483 5.91709 70.6658 6.22341C83.5533 10.5064 90.3869 23.7324 86.5713 36.8151ZM84.3304 40.7131C83.3715 40.9131 82.4233 41.1632 81.4817 41.4575C80.9793 41.6181 80.0498 41.961 79.3226 42.466C79.1539 42.5859 78.9328 42.8135 78.8329 42.9209C79.0242 43.4232 79.2224 43.7641 79.5528 43.8604C79.9636 43.9829 80.4115 43.7886 80.8899 43.5512C82.0915 42.9567 83.3356 41.8444 84.3304 40.7131Z"
    fill="currentColor"
  />
</svg>
