<svg viewBox="0 0 928 428" fill="none" xmlns="http://www.w3.org/2000/svg">
  <g filter="url(#filter0_d_406_6261)">
    <rect x="12" y="10" width="900" height="400" rx="4" fill="white" />
    <rect width="710" height="70" transform="translate(52 30)" fill="white" />
    <path
      d="M81.5 52.6667H81.5083M71.5 59.3348L75.6667 55.1682C76.44 54.424 77.3933 54.424 78.1667 55.1682L82.3333 59.3348M80.6667 57.6682L81.5 56.8348C82.2733 56.0907 83.2267 56.0907 84 56.8348L86.5 59.3348M71.5 51C71.5 50.337 71.7634 49.7011 72.2322 49.2322C72.7011 48.7634 73.337 48.5 74 48.5H84C84.663 48.5 85.2989 48.7634 85.7678 49.2322C86.2366 49.7011 86.5 50.337 86.5 51V61C86.5 61.663 86.2366 62.2989 85.7678 62.7678C85.2989 63.2366 84.663 63.5 84 63.5H74C73.337 63.5 72.7011 63.2366 72.2322 62.7678C71.7634 62.2989 71.5 61.663 71.5 61V51Z"
      stroke="#353535"
      stroke-width="1.5"
      stroke-linecap="round"
      stroke-linejoin="round"
    />
    <path
      d="M73.0445 73.3203V82.8916H72.1959V73.3203H73.0445ZM67.9634 74.0615C69.3814 74.0723 70.4019 75.3613 70.4019 77.3916C70.4019 79.4219 69.3814 80.7109 67.9634 80.7109C66.5347 80.7109 65.525 79.4219 65.525 77.3916C65.525 75.3613 66.5347 74.0723 67.9634 74.0615ZM67.9634 74.8135C67.0074 74.8242 66.3414 75.834 66.3414 77.3916C66.3414 78.9492 67.0074 79.959 67.9634 79.959C68.9195 79.959 69.5855 78.9492 69.5855 77.3916C69.5855 75.834 68.9195 74.8242 67.9634 74.8135ZM79.6069 74.2656V80.4746H75.1919V74.2656H79.6069ZM76.019 74.9424V79.7871H78.7798V74.9424H76.019ZM82.5073 73.3203V82.8916H81.6587V73.3203H82.5073ZM87.5122 76.2529C87.5122 77.875 88.6938 79.5186 90.101 80.1309L89.6284 80.7969C88.5112 80.2866 87.5444 79.1855 87.104 77.8643C86.6528 79.2661 85.6914 80.4854 84.601 81.0332L84.0961 80.3672C85.4604 79.7119 86.6528 77.9072 86.6635 76.2529V75.0068H84.4077V74.3086H89.7895V75.0068H87.5122V76.2529ZM91.9702 73.3203V82.8701H91.1215V73.3203H91.9702Z"
      fill="#353535"
    />
    <path
      d="M135.167 49.333H138.5L141 51.833H146.833C147.275 51.833 147.699 52.0086 148.012 52.3212C148.324 52.6337 148.5 53.0576 148.5 53.4997V60.1663C148.5 60.6084 148.324 61.0323 148.012 61.3449C147.699 61.6574 147.275 61.833 146.833 61.833H135.167C134.725 61.833 134.301 61.6574 133.988 61.3449C133.676 61.0323 133.5 60.6084 133.5 60.1663V50.9997C133.5 50.5576 133.676 50.1337 133.988 49.8212C134.301 49.5086 134.725 49.333 135.167 49.333Z"
      stroke="#353535"
      stroke-width="1.5"
      stroke-linecap="round"
      stroke-linejoin="round"
    />
    <path
      d="M137.391 74.3623V75.0605H136.328V79.6582C136.843 79.6206 137.354 79.5776 137.842 79.5186L137.885 80.1416C135.866 80.4639 133.578 80.4961 131.891 80.5068L131.784 79.7871C132.187 79.7871 132.616 79.7871 133.073 79.7764V75.0605H132.02V74.3623H137.391ZM139.293 73.3203V77.1553H140.893V77.8643H139.293V82.8701H138.455V73.3203H139.293ZM133.889 79.7656C134.421 79.7549 134.974 79.7334 135.522 79.7012V75.0605H133.889V79.7656ZM144.072 73.6748C145.5 73.6855 146.542 74.5449 146.542 75.791C146.542 77.0371 145.5 77.8965 144.072 77.8965C142.622 77.8965 141.59 77.0371 141.59 75.791C141.59 74.5449 142.622 73.6855 144.072 73.6748ZM144.072 74.3838C143.116 74.3838 142.407 74.9639 142.417 75.791C142.407 76.6289 143.116 77.209 144.072 77.209C145.017 77.209 145.726 76.6289 145.726 75.791C145.726 74.9639 145.017 74.3838 144.072 74.3838ZM149.249 73.3203V78.2295H148.412V73.3203H149.249ZM149.249 78.6914V80.9902H143.889V82.0645H149.593V82.7412H143.062V80.3564H148.412V79.3682H143.041V78.6914H149.249Z"
      fill="#353535"
    />
    <path
      d="M200.501 58.4997L205.501 53.4997M202.167 50.9999L202.553 50.5533C203.335 49.7719 204.395 49.3329 205.5 49.333C206.605 49.3331 207.665 49.7722 208.446 50.5537C209.227 51.3352 209.666 52.3951 209.666 53.5002C209.666 54.6054 209.227 55.6652 208.446 56.4466L208.001 56.8333M203.834 60.9997L203.503 61.4447C202.713 62.2265 201.646 62.665 200.534 62.665C199.422 62.665 198.355 62.2265 197.564 61.4447C197.174 61.0593 196.865 60.6005 196.654 60.0948C196.443 59.5891 196.334 59.0465 196.334 58.4984C196.334 57.9504 196.443 57.4078 196.654 56.9021C196.865 56.3963 197.174 55.9375 197.564 55.5522L198.001 55.1663"
      stroke="#353535"
      stroke-width="1.5"
      stroke-linecap="round"
      stroke-linejoin="round"
    />
    <path
      d="M201.787 73.3311V79.207H200.949V73.3311H201.787ZM198.747 73.9326V76.5537H195.223V77.9072C196.931 77.9072 198.21 77.8643 199.756 77.6064L199.853 78.3047C198.252 78.5625 196.942 78.6162 195.18 78.6162H194.407V75.8877H197.909V74.6416H194.385V73.9326H198.747ZM198.618 79.4004C200.626 79.4004 201.851 80.0342 201.851 81.1299C201.851 82.2256 200.626 82.8486 198.618 82.8486C196.609 82.8486 195.395 82.2256 195.395 81.1299C195.395 80.0342 196.609 79.4004 198.618 79.4004ZM198.618 80.0771C197.135 80.0771 196.222 80.4746 196.222 81.1299C196.222 81.7852 197.135 82.1719 198.618 82.1719C200.1 82.1719 201.002 81.7852 201.002 81.1299C201.002 80.4746 200.1 80.0771 198.618 80.0771ZM210.981 74.2979V75.4795C210.981 76.8867 210.981 78.1865 210.583 80.1201L209.735 80.0449C209.944 79.1265 210.052 78.3315 210.111 77.585L204.278 77.9072L204.16 77.209L210.143 76.9619C210.159 76.457 210.159 75.9683 210.165 75.4795V75.0068H204.417V74.2979H210.981ZM212.066 80.8184V81.5273H203.365V80.8184H212.066Z"
      fill="#353535"
    />
    <path
      fill-rule="evenodd"
      clip-rule="evenodd"
      d="M262.556 48C262.287 48 262.02 48.052 261.772 48.1533C261.523 48.2546 261.296 48.4032 261.105 48.5912C260.914 48.7792 260.762 49.0029 260.658 49.2497C260.554 49.4965 260.5 49.7613 260.5 50.0289C260.5 50.2966 260.554 50.5614 260.658 50.8082C260.762 51.055 260.914 51.2786 261.105 51.4666C261.296 51.6546 261.523 51.8033 261.772 51.9046C262.02 52.0059 262.287 52.0579 262.556 52.0579C262.824 52.0579 263.091 52.0059 263.339 51.9046C263.43 51.8677 263.517 51.8246 263.602 51.7756C263.572 52.1025 263.478 52.3941 263.336 52.6069C263.174 52.8506 262.954 52.9912 262.651 52.9988C262.62 52.9996 262.588 53 262.556 53C262.123 53 261.834 52.8607 261.656 52.7338C261.565 52.6688 261.501 52.6053 261.462 52.5612C261.443 52.5393 261.43 52.5227 261.423 52.5137L261.418 52.5071C261.269 52.2789 260.964 52.2122 260.732 52.3587C260.499 52.5065 260.43 52.8154 260.578 53.0487L260.981 52.7932C260.578 53.0487 260.578 53.0484 260.578 53.0487L260.578 53.0496L260.579 53.0506L260.58 53.0528L260.584 53.058L260.593 53.0716C260.6 53.0819 260.609 53.0949 260.62 53.1101C260.643 53.1405 260.674 53.18 260.715 53.2255C260.795 53.3163 260.914 53.4324 261.074 53.5472C261.4 53.7798 261.889 54 262.556 54C262.596 54 262.637 53.9995 262.676 53.9985C263.347 53.9816 263.85 53.6386 264.168 53.1615C264.476 52.6996 264.611 52.1173 264.611 51.5579V48.5C264.611 48.2239 264.387 48 264.111 48C263.902 48 263.723 48.1283 263.648 48.3104C263.55 48.2496 263.447 48.197 263.339 48.1533C263.091 48.052 262.824 48 262.556 48ZM262.149 49.0795C262.278 49.0271 262.416 49 262.556 49C262.695 49 262.834 49.0271 262.962 49.0795C263.091 49.1319 263.207 49.2084 263.305 49.3044C263.403 49.4004 263.48 49.5138 263.532 49.638C263.584 49.7622 263.611 49.895 263.611 50.0289C263.611 50.1628 263.584 50.2957 263.532 50.4199C263.48 50.5441 263.403 50.6575 263.305 50.7535C263.207 50.8494 263.091 50.926 262.962 50.9784C262.834 51.0308 262.695 51.0579 262.556 51.0579C262.416 51.0579 262.278 51.0308 262.149 50.9784C262.02 50.926 261.904 50.8494 261.806 50.7535C261.708 50.6575 261.632 50.5441 261.579 50.4199C261.527 50.2957 261.5 50.1628 261.5 50.0289C261.5 49.895 261.527 49.7622 261.579 49.638C261.632 49.5138 261.708 49.4004 261.806 49.3044C261.904 49.2084 262.02 49.1319 262.149 49.0795Z"
      fill="#353535"
    />
    <path
      fill-rule="evenodd"
      clip-rule="evenodd"
      d="M267.444 48C266.902 48 266.38 48.2117 265.994 48.5912C265.608 48.971 265.389 49.488 265.389 50.0289C265.389 50.5699 265.608 51.0868 265.994 51.4666C266.38 51.8462 266.902 52.0579 267.444 52.0579C267.833 52.0579 268.212 51.949 268.537 51.7475C268.612 51.9296 268.791 52.0579 269 52.0579C269.276 52.0579 269.5 51.834 269.5 51.5579V48.5C269.5 48.2239 269.276 48 269 48C268.791 48 268.612 48.1283 268.537 48.3104C268.212 48.1089 267.833 48 267.444 48ZM266.695 49.3044C266.892 49.1105 267.162 49 267.444 49C267.727 49 267.997 49.1105 268.194 49.3044C268.391 49.4981 268.5 49.7589 268.5 50.0289C268.5 50.299 268.391 50.5598 268.194 50.7535C267.997 50.9474 267.727 51.0579 267.444 51.0579C267.162 51.0579 266.892 50.9474 266.695 50.7535C266.498 50.5598 266.389 50.299 266.389 50.0289C266.389 49.7589 266.498 49.4981 266.695 49.3044Z"
      fill="#353535"
    />
    <path
      d="M268 54C267.548 54 267.182 54.3663 267.182 54.8182V63.1818C267.182 63.6337 267.548 64 268 64C268.452 64 268.818 63.6337 268.818 63.1818V59.7143H270.248C270.663 59.7143 271 59.3777 271 58.9624C271 58.5472 270.663 58.2105 270.248 58.2105H268.818V54.8182C268.818 54.3663 268.452 54 268 54Z"
      fill="#353535"
    />
    <path
      d="M260.352 56.9574H263.473C263.275 58.2372 262.983 59.2953 262.438 60.0708C261.922 60.8048 261.136 61.3432 259.751 61.483C259.338 61.5247 259 61.8554 259 62.2707C259 62.6859 259.338 63.0266 259.752 62.9935C261.669 62.8398 262.971 62.0843 263.812 60.8866C264.703 59.6194 265.014 57.9388 265.213 56.2885C265.267 55.8446 264.92 55.4536 264.473 55.4536H260.352C259.937 55.4536 259.6 55.7903 259.6 56.2055C259.6 56.6208 259.937 56.9574 260.352 56.9574Z"
      fill="#353535"
    />
    <path
      d="M263.572 73.707V76.1885H257.814V77.4238H263.776V78.1221H256.965V75.5225H262.712V74.3945H256.944V73.707H263.572ZM264.635 79.1318V79.8086H260.661V82.8916H259.823V79.8086H255.891V79.1318H264.635ZM273.239 73.3203V82.8916H272.39V73.3203H273.239ZM266.761 74.1367V76.6611H269.608V74.1367H270.435V80.582H265.923V74.1367H266.761ZM266.761 79.873H269.608V77.3379H266.761V79.873Z"
      fill="#353535"
    />
    <path
      d="M319.5 57L321.438 55.191C321.553 55.0835 321.732 55.0835 321.848 55.191L323.581 56.809C323.696 56.9165 323.875 56.9165 323.99 56.809L325.724 55.191C325.839 55.0835 326.018 55.0835 326.133 55.191L327.867 56.809C327.982 56.9165 328.161 56.9165 328.276 56.809L330.01 55.191C330.125 55.0835 330.304 55.0835 330.419 55.191L332.152 56.809C332.268 56.9165 332.447 56.9165 332.562 56.809L334.5 55"
      stroke="#353535"
      stroke-width="1.5"
      stroke-linecap="round"
    />
    <path
      d="M320.722 71.9434V72.7812C320.722 73.689 320.722 74.6719 320.454 76.0469H321.872V76.7451H317.929V80.8916H317.081V76.7451H313.17V76.0469H319.594C319.884 74.6719 319.884 73.6675 319.884 72.7812V72.6416H314.266V71.9434H320.722ZM331.367 76.3799V77.0674H327.478V78.9365H326.64V77.0674H322.623V76.3799H331.367ZM330.389 79.957V80.666H323.74V78.0557H324.578V79.957H330.389ZM324.631 71.6318V72.8564H329.358V71.6318H330.196V75.4453H323.793V71.6318H324.631ZM324.631 74.7578H329.358V73.501H324.631V74.7578ZM335.362 73.125C335.362 74.457 336.329 75.7139 337.725 76.2188L337.252 76.874C336.205 76.4551 335.373 75.6226 334.964 74.5859C334.556 75.7407 333.686 76.6592 332.558 77.1104L332.107 76.4229C333.536 75.8965 334.524 74.5645 334.535 73.0928V71.9111H335.362V73.125ZM340.013 71.3311V78.4854H339.164V74.2852H337.038V73.5762H339.164V71.3311H340.013ZM340.228 79.957V80.666H333.836V77.6689H334.685V79.957H340.228Z"
      fill="#353535"
    />
    <path
      d="M387.333 55.1667H383.999C383.778 55.1667 383.566 55.0789 383.41 54.9226C383.254 54.7663 383.166 54.5543 383.166 54.3333V51.8333C383.166 51.6123 383.254 51.4004 383.41 51.2441C383.566 51.0878 383.778 51 383.999 51H386.499C386.72 51 386.932 51.0878 387.089 51.2441C387.245 51.4004 387.333 51.6123 387.333 51.8333V56.8333C387.333 59.0558 386.222 60.4442 383.999 61M394.833 55.1667H391.499C391.278 55.1667 391.066 55.0789 390.91 54.9226C390.754 54.7663 390.666 54.5543 390.666 54.3333V51.8333C390.666 51.6123 390.754 51.4004 390.91 51.2441C391.066 51.0878 391.278 51 391.499 51H393.999C394.22 51 394.432 51.0878 394.589 51.2441C394.745 51.4004 394.833 51.6123 394.833 51.8333V56.8333C394.833 59.0558 393.722 60.4442 391.499 61"
      stroke="#353535"
      stroke-width="1.5"
      stroke-linecap="round"
      stroke-linejoin="round"
    />
    <path
      d="M387.787 71.3311V78.3135H386.949V71.3311H387.787ZM388.087 79.957V80.666H381.621V77.6045H382.459V79.957H388.087ZM382.63 71.9971C384.059 71.9971 385.133 72.9639 385.133 74.3389C385.133 75.7354 384.059 76.6914 382.63 76.6914C381.202 76.6914 380.127 75.7354 380.127 74.3389C380.127 72.9639 381.202 71.9971 382.63 71.9971ZM382.63 72.7383C381.664 72.7383 380.944 73.4043 380.955 74.3389C380.944 75.2949 381.664 75.9502 382.63 75.9502C383.576 75.9502 384.306 75.2949 384.306 74.3389C384.306 73.4043 383.576 72.7383 382.63 72.7383ZM398.066 76.0469V76.7451H389.365V76.0469H391.524V74.7041C390.761 74.4087 390.332 73.9199 390.332 73.2754C390.332 72.1475 391.621 71.5029 393.715 71.5029C395.789 71.5029 397.088 72.1475 397.088 73.2754C397.088 73.9146 396.664 74.4033 395.907 74.6934V76.0469H398.066ZM393.715 77.4756C395.767 77.4756 396.992 78.0664 397.002 79.1621C396.992 80.2471 395.767 80.8486 393.715 80.8486C391.642 80.8486 390.417 80.2471 390.417 79.1621C390.417 78.0664 391.642 77.4756 393.715 77.4756ZM393.715 78.1201C392.179 78.1309 391.266 78.5068 391.277 79.1621C391.266 79.8066 392.179 80.1934 393.715 80.1934C395.23 80.1934 396.154 79.8066 396.154 79.1621C396.154 78.5068 395.23 78.1309 393.715 78.1201ZM393.715 72.1689C392.158 72.1689 391.191 72.5879 391.202 73.2754C391.191 73.9736 392.158 74.3818 393.715 74.3818C395.262 74.3818 396.229 73.9736 396.229 73.2754C396.229 72.5879 395.262 72.1689 393.715 72.1689ZM392.362 76.0469H395.069V74.9297C394.666 74.9995 394.215 75.0371 393.715 75.0371C393.216 75.0371 392.765 74.9995 392.362 74.9297V76.0469Z"
      fill="#353535"
    />
    <path
      d="M450.167 50.9997H457.667M450.167 55.9997H457.667M451.001 60.9997H457.667M444.334 59.333C444.334 58.891 444.51 58.4671 444.822 58.1545C445.135 57.8419 445.559 57.6663 446.001 57.6663C446.443 57.6663 446.867 57.8419 447.179 58.1545C447.492 58.4671 447.667 58.891 447.667 59.333C447.667 59.8255 447.251 60.1663 446.834 60.583L444.334 62.6663H447.667M446.001 54.333V49.333L444.334 50.9997"
      stroke="#353535"
      stroke-width="1.5"
      stroke-linecap="round"
      stroke-linejoin="round"
    />
    <path
      d="M445.055 71.3203V80.8916H444.217V71.3203H445.055ZM442.155 72.2119V75.6064H438.588V77.8623C440.173 77.8623 441.586 77.7925 443.294 77.5186L443.379 78.2275C441.618 78.5068 440.168 78.5713 438.524 78.5713H437.729V74.9189H441.306V72.9102H437.708V72.2119H442.155ZM451.392 72.7275C451.392 74.3604 453.261 75.8213 454.926 76.1328L454.54 76.8418C453.1 76.5088 451.58 75.4829 450.962 74.0703C450.345 75.4775 448.83 76.5034 447.385 76.8418L446.999 76.1328C448.653 75.8105 450.511 74.3711 450.511 72.7275V71.9971H451.392V72.7275ZM455.377 78.8721V79.5703H446.633V78.8721H455.377ZM463.831 76.4873V77.1748H457.224V72.1475H463.723V72.8564H458.083V74.2744H463.519V74.9512H458.083V76.4873H463.831ZM464.84 78.9258V79.624H456.096V78.9258H464.84Z"
      fill="#353535"
    />
    <path
      d="M508.833 52.6663L505.5 55.9997L508.833 59.333M517.167 52.6663L520.5 55.9997L517.167 59.333M514.667 49.333L511.333 62.6663"
      stroke="#353535"
      stroke-width="1.5"
      stroke-linecap="round"
      stroke-linejoin="round"
    />
    <path
      d="M502.077 74.2549V75.1787C502.066 76.3389 502.077 77.6494 501.679 79.5938L500.852 79.4971C501.04 78.6323 501.137 77.875 501.196 77.1982L495.352 77.5527L495.212 76.8115L501.228 76.5645C501.25 76.0596 501.25 75.603 501.25 75.1787V74.9531H495.492V74.2549H502.077ZM503.14 80.8506V81.5703H494.439V80.8506H497.855V78.3799H498.682V80.8506H503.14ZM511.615 77.918V78.6162H505.019V74.2119H511.518V74.9102H505.857V77.918H511.615ZM512.646 80.8613V81.5703H503.902V80.8613H512.646ZM515.363 73.4922V74.416H520.089V73.4922H520.927V76.6396H514.525V73.4922H515.363ZM515.363 75.9951H520.089V75.0605H515.363V75.9951ZM522.066 77.4668V78.1436H513.365V77.4668H522.066ZM520.949 79.0244V81.1406H515.277V82.0967H521.239V82.7627H514.439V80.5176H520.122V79.6689H514.417V79.0244H520.949ZM530.745 73.3311V79.1641H529.896V76.3281H528.08V75.6299H529.896V73.3311H530.745ZM530.745 79.7119V82.8916H529.896V80.3887H524.31V79.7119H530.745ZM527.468 73.9111V76.5645H524.074V77.9609C525.647 77.9609 526.829 77.9233 528.263 77.6816L528.338 78.4014C526.834 78.627 525.61 78.6699 523.955 78.6699H523.236V75.8877H526.652V74.6094H523.214V73.9111H527.468Z"
      fill="#353535"
    />
    <path
      d="M575.834 59.3337V52.667L577.501 56.8337L579.167 52.667V59.3337M565.834 59.3337V52.667M569.167 52.667V59.3337M565.834 56.0003H569.167M570.834 52.667H574.167M572.501 52.667V59.3337M581.667 52.667V59.3337H584.167"
      stroke="#353535"
      stroke-width="1.5"
      stroke-linecap="round"
      stroke-linejoin="round"
    />
    <path
      d="M556.521 78.498V82H555.597V74.2227H556.521V77.0801H556.596C556.864 76.4785 557.391 76.0918 558.315 76.0918C559.507 76.0918 560.302 76.8008 560.302 78.2939V82H559.378V78.3584C559.378 77.4453 558.873 76.9189 558.035 76.9189C557.165 76.9189 556.521 77.4883 556.521 78.498ZM564.286 76.167V76.9404H563.062V80.3242C563.062 81.0762 563.427 81.1943 563.824 81.1943C563.996 81.1943 564.233 81.1836 564.372 81.1729V82.0322C564.233 82.0537 563.996 82.0752 563.728 82.0752C562.954 82.0752 562.127 81.5918 562.127 80.5605V76.9404H561.246V76.167H562.127V74.7705H563.062V76.167H564.286ZM565.435 82V76.167H566.326V77.0801H566.401C566.648 76.457 567.207 76.0918 567.97 76.0918C568.732 76.0918 569.248 76.457 569.527 77.0801H569.592C569.893 76.4785 570.505 76.0918 571.343 76.0918C572.385 76.0918 573.126 76.7256 573.126 78.1006V82H572.202V78.1113C572.202 77.252 571.654 76.9189 571.021 76.9189C570.204 76.9189 569.742 77.4668 569.742 78.208V82H568.808V78.0146C568.808 77.3594 568.335 76.9189 567.669 76.9189C566.971 76.9189 566.358 77.5098 566.358 78.3584V82H565.435ZM575.488 74.2227V82H574.564V74.2227H575.488ZM578.559 73.4922V74.416H583.286V73.4922H584.124V76.6396H577.722V73.4922H578.559ZM578.559 75.9951H583.286V75.0605H578.559V75.9951ZM585.263 77.4668V78.1436H576.561V77.4668H585.263ZM584.145 79.0244V81.1406H578.474V82.0967H584.435V82.7627H577.636V80.5176H583.318V79.6689H577.614V79.0244H584.145ZM593.941 73.3311V79.1641H593.093V76.3281H591.277V75.6299H593.093V73.3311H593.941ZM593.941 79.7119V82.8916H593.093V80.3887H587.507V79.7119H593.941ZM590.665 73.9111V76.5645H587.27V77.9609C588.844 77.9609 590.026 77.9233 591.46 77.6816L591.535 78.4014C590.031 78.627 588.807 78.6699 587.152 78.6699H586.432V75.8877H589.848V74.6094H586.411V73.9111H590.665Z"
      fill="#353535"
    />
    <path
      d="M673 51.8333V56L674.667 57.6667M673.847 63.452C672.279 63.6303 670.694 63.3091 669.319 62.5343C667.943 61.7595 666.848 60.5704 666.187 59.1366C665.527 57.7027 665.336 56.0971 665.642 54.5484C665.947 52.9997 666.734 51.5869 667.889 50.5112C669.044 49.4354 670.509 48.7516 672.076 48.5572C673.642 48.3627 675.23 48.6674 676.614 49.428C677.997 50.1885 679.105 51.3661 679.78 52.7931C680.455 54.22 680.662 55.8236 680.373 57.3754M677.167 64.3333L681.333 61.8333L677.167 59.3333V64.3333Z"
      stroke="#353535"
      stroke-width="1.5"
      stroke-linecap="round"
      stroke-linejoin="round"
    />
    <path
      d="M657.834 75.8877C657.823 77.6279 659.015 79.3896 660.422 80.0234L659.907 80.6895C658.822 80.1577 657.882 79.0352 657.425 77.6709C656.98 79.1157 656.04 80.3188 654.922 80.8828L654.385 80.1738C655.803 79.5186 656.985 77.7031 656.996 75.8877V74.1475H657.834V75.8877ZM662.313 73.3203V82.8916H661.464V73.3203H662.313ZM671.368 73.3203V76.2314H672.807V76.9404H671.368V80.3135H670.519V73.3203H671.368ZM668.79 74.0615C668.79 76.5215 667.028 78.3477 664.278 79.207L663.913 78.5303C666.201 77.8159 667.694 76.4517 667.876 74.7705H664.31V74.0615H668.79ZM671.808 81.957V82.666H665.384V79.6045H666.222V81.957H671.808ZM675.932 74.0615C676.808 74.0669 677.517 74.5771 677.93 75.458H680.444V73.3203H681.282V82.8916H680.444V79.1855H677.995C677.592 80.1523 676.856 80.7109 675.932 80.7109C674.525 80.7109 673.537 79.4219 673.537 77.3916C673.537 75.3613 674.525 74.0723 675.932 74.0615ZM675.932 74.8135C674.987 74.8242 674.342 75.834 674.342 77.3916C674.342 78.9492 674.987 79.959 675.932 79.959C676.867 79.959 677.522 78.9492 677.522 77.3916C677.522 75.834 676.867 74.8242 675.932 74.8135ZM678.177 76.167C678.263 76.5376 678.317 76.9458 678.317 77.3916C678.317 77.7837 678.274 78.1543 678.209 78.4873H680.444V76.167H678.177ZM690.938 73.3203V79.3682H690.132V76.6289H688.854V79.0244H688.059V73.5137H688.854V75.9307H690.132V73.3203H690.938ZM687.672 74.4697V75.1465H682.774V74.4697H684.815V73.3955H685.653V74.4697H687.672ZM685.234 75.6621C686.448 75.6621 687.275 76.2959 687.286 77.2949C687.275 78.2725 686.448 78.917 685.234 78.917C684.031 78.917 683.182 78.2725 683.193 77.2949C683.182 76.2959 684.031 75.6621 685.234 75.6621ZM685.234 76.2852C684.471 76.2852 683.945 76.6934 683.945 77.2949C683.945 77.8857 684.471 78.2832 685.234 78.2832C685.997 78.2832 686.523 77.8857 686.523 77.2949C686.523 76.6934 685.997 76.2852 685.234 76.2852ZM687.78 79.5293C689.788 79.5293 690.992 80.1309 690.992 81.2051C690.992 82.2471 689.788 82.8486 687.78 82.8486C685.771 82.8486 684.568 82.2471 684.579 81.2051C684.568 80.1309 685.771 79.5293 687.78 79.5293ZM687.78 80.1953C686.297 80.1846 685.406 80.5498 685.416 81.2051C685.406 81.8281 686.297 82.1934 687.78 82.1934C689.262 82.1934 690.143 81.8281 690.154 81.2051C690.143 80.5498 689.262 80.1846 687.78 80.1953Z"
      fill="#353535"
    />
    <circle cx="686" cy="47" r="2" fill="#8162E8" />
    <path
      d="M732.499 50.1667H730.833C730.391 50.1667 729.967 50.3423 729.654 50.6548C729.342 50.9674 729.166 51.3913 729.166 51.8333V61.8333C729.166 62.2754 729.342 62.6993 729.654 63.0118C729.967 63.3244 730.391 63.5 730.833 63.5H739.166C739.608 63.5 740.032 63.3244 740.345 63.0118C740.657 62.6993 740.833 62.2754 740.833 61.8333V51.8333C740.833 51.3913 740.657 50.9674 740.345 50.6548C740.032 50.3423 739.608 50.1667 739.166 50.1667H737.499M732.499 50.1667C732.499 49.7246 732.675 49.3007 732.988 48.9882C733.3 48.6756 733.724 48.5 734.166 48.5H735.833C736.275 48.5 736.699 48.6756 737.011 48.9882C737.324 49.3007 737.499 49.7246 737.499 50.1667M732.499 50.1667C732.499 50.6087 732.675 51.0326 732.988 51.3452C733.3 51.6577 733.724 51.8333 734.166 51.8333H735.833C736.275 51.8333 736.699 51.6577 737.011 51.3452C737.324 51.0326 737.499 50.6087 737.499 50.1667"
      stroke="#353535"
      stroke-width="1.5"
      stroke-linecap="round"
      stroke-linejoin="round"
    />
    <path
      d="M721.413 74.2656V80.4746H716.998V74.2656H721.413ZM717.825 74.9424V79.7871H720.586V74.9424H717.825ZM724.313 73.3203V82.8916H723.464V73.3203H724.313ZM733.787 73.3203V82.8916H732.949V73.3203H733.787ZM730.886 74.2119V77.6064H727.32V79.8623C728.904 79.8623 730.317 79.7925 732.025 79.5186L732.111 80.2275C730.349 80.5068 728.899 80.5713 727.255 80.5713H726.46V76.9189H730.038V74.9102H726.439V74.2119H730.886ZM744.109 80.9473V81.6455H735.365V80.9473H739.296V78.8848H736.396V73.9971H737.245V75.7266H742.207V73.9971H743.035V78.8848H740.124V80.9473H744.109ZM737.245 78.1973H742.207V76.4141H737.245V78.1973ZM752.723 73.3203V82.8701H751.874V73.3203H752.723ZM749.898 74.3623C749.887 77.1123 748.609 79.54 745.408 81.0762L744.946 80.3887C747.529 79.1641 748.845 77.3325 749.038 75.0498H745.386V74.3623H749.898Z"
      fill="#353535"
    />
    <mask id="path-25-inside-1_406_6261" fill="white">
      <path d="M52 100H871V140H52V100Z" />
    </mask>
    <path d="M52 100H871V140H52V100Z" fill="white" />
    <path d="M52 101H871V99H52V101ZM871 139H52V141H871V139Z" fill="#EEEEEE" mask="url(#path-25-inside-1_406_6261)" />
    <path
      d="M69.4993 121.667L66.166 118.333M66.166 118.333L69.4993 115M66.166 118.333H75.3327C76.2167 118.333 77.0646 118.685 77.6897 119.31C78.3148 119.935 78.666 120.783 78.666 121.667C78.666 122.551 78.3148 123.399 77.6897 124.024C77.0646 124.649 76.2167 125 75.3327 125H74.4993"
      stroke="#C7C7C7"
      stroke-width="1.5"
      stroke-linecap="round"
      stroke-linejoin="round"
    />
    <path
      d="M104.501 121.667L107.834 118.333M107.834 118.333L104.501 115M107.834 118.333H98.6673C97.7833 118.333 96.9354 118.685 96.3103 119.31C95.6852 119.935 95.334 120.783 95.334 121.667C95.334 122.551 95.6852 123.399 96.3103 124.024C96.9354 124.649 97.7833 125 98.6673 125H99.5007"
      stroke="#C7C7C7"
      stroke-width="1.5"
      stroke-linecap="round"
      stroke-linejoin="round"
    />
    <rect x="124" y="114" width="1" height="12" fill="#E9E9E9" />
    <rect width="46" height="24" transform="translate(135 108)" fill="#EEEEEE" />
    <circle cx="149" cy="120" r="8" fill="#353535" />
    <path d="M165 118L169 122L173 118" stroke="#9B9B9B" stroke-width="1.5" stroke-linecap="round" stroke-linejoin="round" />
    <path
      d="M206.662 123.537V124.631H195.451V123.537H206.662ZM205.637 115.088V116.154H203.764V120.242H205.596V121.281H196.436V120.242H198.268V116.154H196.408V115.088H205.637ZM199.553 120.242H202.492V116.154H199.553V120.242ZM217.667 113.912V126.189H216.368V113.912H217.667ZM213.921 115.02V119.49H209.518V122.17C211.501 122.163 213.237 122.074 215.288 121.732L215.411 122.799C213.237 123.168 211.391 123.25 209.231 123.25H208.192V118.451H212.594V116.072H208.178V115.02H213.921ZM229.984 113.926V123.086H228.753V113.926H229.984ZM227.577 114.158V122.785H226.347V118.396H224.829V117.344H226.347V114.158H227.577ZM230.339 124.85V125.902H221.917V122.074H223.23V124.85H230.339ZM224.747 114.896V115.949H221.329V117.48H224.269V118.492H221.329V120.092C222.943 120.085 224.016 120.044 225.267 119.791L225.39 120.83C223.982 121.104 222.82 121.158 220.878 121.158H220.085V114.896H224.747ZM237.871 114.992V116.059H233.414V118.424H237.625V119.463H233.414V122.211C235.458 122.204 236.969 122.115 238.746 121.828L238.869 122.881C236.982 123.195 235.342 123.264 233.086 123.264H232.102V114.992H237.871ZM241.125 113.912V118.738H243.094V119.832H241.125V126.162H239.826V113.912H241.125ZM253.551 119.723V120.789H245.02V115.006H253.442V116.072H246.305V119.723H253.551ZM254.837 123.469V124.549H243.626V123.469H254.837Z"
      fill="#353535"
    />
    <path d="M333 118L337 122L341 118" stroke="#9B9B9B" stroke-width="1.5" stroke-linecap="round" stroke-linejoin="round" />
    <path
      d="M370.65 115.102V125H369.133V116.605H369.078L366.713 118.15V116.715L369.174 115.102H370.65ZM376.692 125.137C374.86 125.123 372.946 124.043 372.946 120.379C372.946 116.934 374.436 114.965 376.815 114.965C378.633 114.965 379.905 116.1 380.137 117.672H378.647C378.456 116.865 377.813 116.277 376.815 116.277C375.284 116.277 374.395 117.617 374.395 119.846H374.505C375.038 119.012 375.967 118.506 377.048 118.506C378.811 118.506 380.233 119.859 380.233 121.76C380.233 123.674 378.825 125.15 376.692 125.137ZM376.678 123.879C377.882 123.879 378.77 122.949 378.77 121.787C378.77 120.652 377.909 119.736 376.719 119.736C375.503 119.736 374.587 120.693 374.573 121.801C374.587 122.895 375.462 123.879 376.678 123.879ZM381.79 127.789V117.576H383.212V118.779H383.335C383.595 118.314 384.101 117.48 385.468 117.48C387.259 117.48 388.585 118.889 388.585 121.309C388.585 123.701 387.286 125.15 385.482 125.15C384.128 125.15 383.595 124.33 383.335 123.838H383.253V127.789H381.79ZM383.226 121.281C383.226 122.84 383.91 123.906 385.154 123.906C386.439 123.906 387.109 122.771 387.109 121.281C387.109 119.818 386.452 118.725 385.154 118.725C383.896 118.725 383.226 119.736 383.226 121.281ZM393.451 117.576V118.738H391.934V122.812C391.934 123.646 392.357 123.797 392.822 123.811C393.027 123.811 393.355 123.783 393.561 123.77V125.041C393.355 125.068 393.041 125.096 392.645 125.096C391.496 125.096 390.471 124.467 390.484 123.113V118.738H389.391V117.576H390.484V115.799H391.934V117.576H393.451Z"
      fill="#353535"
    />
    <path d="M403 118L407 122L411 118" stroke="#9B9B9B" stroke-width="1.5" stroke-linecap="round" stroke-linejoin="round" />
    <rect x="429" y="114" width="1" height="12" fill="#E9E9E9" />
    <path
      d="M452.834 120C453.608 120 454.349 119.693 454.896 119.146C455.443 118.599 455.751 117.857 455.751 117.084C455.751 116.31 455.443 115.568 454.896 115.021C454.349 114.474 453.608 114.167 452.834 114.167H447.834V120M452.834 120H447.834M452.834 120H453.667C454.441 120 455.183 120.308 455.73 120.855C456.277 121.402 456.584 122.143 456.584 122.917C456.584 123.691 456.277 124.432 455.73 124.979C455.183 125.526 454.441 125.834 453.667 125.834H447.834V120"
      stroke="#353535"
      stroke-width="1.5"
      stroke-linecap="round"
      stroke-linejoin="round"
    />
    <path
      d="M481.167 114.167H486.167M477.834 125.834H482.834M483.667 114.167L480.334 125.834"
      stroke="#353535"
      stroke-width="1.5"
      stroke-linecap="round"
      stroke-linejoin="round"
    />
    <path
      d="M506.166 120H517.833M515.333 115.418C515.144 115.051 514.711 114.728 514.105 114.5C513.499 114.273 512.756 114.156 511.999 114.168H511.166C510.392 114.168 509.651 114.475 509.104 115.022C508.557 115.569 508.249 116.311 508.249 117.084C508.249 117.858 508.557 118.6 509.104 119.147C509.651 119.694 510.392 120.001 511.166 120.001H512.833C513.606 120.001 514.348 120.308 514.895 120.855C515.442 121.402 515.749 122.144 515.749 122.918C515.749 123.691 515.442 124.433 514.895 124.98C514.348 125.527 513.606 125.834 512.833 125.834H511.583C510.826 125.846 510.083 125.729 509.477 125.502C508.871 125.275 508.438 124.951 508.249 124.584"
      stroke="#353535"
      stroke-width="1.5"
      stroke-linecap="round"
      stroke-linejoin="round"
    />
    <path
      d="M537.833 114.167V118.334C537.833 119.439 538.272 120.499 539.053 121.28C539.834 122.061 540.894 122.5 541.999 122.5C543.104 122.5 544.164 122.061 544.946 121.28C545.727 120.499 546.166 119.439 546.166 118.334V114.167M536.166 125.834H547.833"
      stroke="#353535"
      stroke-width="1.5"
      stroke-linecap="round"
      stroke-linejoin="round"
    />
    <rect x="564" y="114" width="1" height="12" fill="#E9E9E9" />
    <path
      d="M580.334 115H593.667M580.334 120H593.667M580.334 125H590.334"
      stroke="#353535"
      stroke-width="1.5"
      stroke-linecap="round"
      stroke-linejoin="round"
    />
    <path
      fill-rule="evenodd"
      clip-rule="evenodd"
      d="M609 127.226C609 126.798 609.347 126.452 609.774 126.452H624.226C624.653 126.452 625 126.798 625 127.226C625 127.653 624.653 128 624.226 128H609.774C609.347 128 609 127.653 609 127.226Z"
      fill="#353535"
    />
    <path
      fill-rule="evenodd"
      clip-rule="evenodd"
      d="M609 112.774C609 112.347 609.347 112 609.774 112H624.226C624.653 112 625 112.347 625 112.774C625 113.202 624.653 113.548 624.226 113.548H609.774C609.347 113.548 609 113.202 609 112.774Z"
      fill="#353535"
    />
    <path
      fill-rule="evenodd"
      clip-rule="evenodd"
      d="M616.602 114.562C616.847 114.414 617.153 114.414 617.398 114.562L619.979 116.11C620.346 116.33 620.464 116.806 620.244 117.172C620.024 117.539 619.549 117.658 619.182 117.438L617.749 116.578C617.765 116.64 617.774 116.706 617.774 116.774V123.148L619.182 122.304C619.549 122.084 620.024 122.202 620.244 122.569C620.464 122.936 620.346 123.411 619.979 123.631L617.398 125.18C617.153 125.327 616.847 125.327 616.602 125.18L614.021 123.631C613.654 123.411 613.535 122.936 613.755 122.569C613.975 122.202 614.451 122.084 614.818 122.304L616.226 123.148V116.774C616.226 116.706 616.234 116.64 616.251 116.578L614.818 117.438C614.451 117.658 613.975 117.539 613.755 117.172C613.535 116.806 613.654 116.33 614.021 116.11L616.602 114.562Z"
      fill="#353535"
    />
    <path
      fill-rule="evenodd"
      clip-rule="evenodd"
      d="M639.774 112C640.202 112 640.548 112.347 640.548 112.774V127.226C640.548 127.653 640.202 128 639.774 128C639.347 128 639 127.653 639 127.226V112.774C639 112.347 639.347 112 639.774 112Z"
      fill="#353535"
    />
    <path
      fill-rule="evenodd"
      clip-rule="evenodd"
      d="M654.226 112C654.653 112 655 112.347 655 112.774V127.226C655 127.653 654.653 128 654.226 128C653.798 128 653.452 127.653 653.452 127.226V112.774C653.452 112.347 653.798 112 654.226 112Z"
      fill="#353535"
    />
    <path
      fill-rule="evenodd"
      clip-rule="evenodd"
      d="M652.438 119.602C652.586 119.847 652.586 120.153 652.438 120.398L650.89 122.979C650.67 123.346 650.194 123.464 649.828 123.244C649.461 123.024 649.342 122.549 649.562 122.182L650.422 120.749C650.36 120.765 650.294 120.774 650.226 120.774H643.852L644.696 122.182C644.916 122.549 644.798 123.024 644.431 123.244C644.064 123.464 643.589 123.346 643.369 122.979L641.82 120.398C641.673 120.153 641.673 119.847 641.82 119.602L643.369 117.021C643.589 116.654 644.064 116.535 644.431 116.755C644.798 116.975 644.916 117.451 644.696 117.818L643.852 119.226H650.226C650.294 119.226 650.36 119.234 650.422 119.251L649.562 117.818C649.342 117.451 649.461 116.975 649.828 116.755C650.194 116.535 650.67 116.654 650.89 117.021L652.438 119.602Z"
      fill="#353535"
    />
    <rect x="669" y="114" width="1" height="12" fill="#E9E9E9" />
    <path
      d="M690.604 113.598C690.959 112.134 693.041 112.134 693.396 113.598C693.449 113.817 693.554 114.021 693.701 114.193C693.848 114.365 694.033 114.5 694.242 114.586C694.451 114.673 694.678 114.709 694.903 114.692C695.129 114.674 695.347 114.604 695.54 114.486C696.826 113.702 698.298 115.174 697.515 116.461C697.397 116.654 697.327 116.872 697.31 117.097C697.292 117.323 697.328 117.549 697.415 117.758C697.501 117.967 697.636 118.152 697.807 118.299C697.979 118.446 698.183 118.551 698.403 118.604C699.866 118.959 699.866 121.041 698.403 121.396C698.183 121.449 697.979 121.554 697.807 121.701C697.635 121.848 697.5 122.033 697.414 122.242C697.327 122.451 697.291 122.678 697.308 122.903C697.326 123.129 697.396 123.347 697.514 123.54C698.298 124.826 696.826 126.298 695.539 125.515C695.346 125.397 695.128 125.327 694.903 125.31C694.677 125.292 694.451 125.328 694.242 125.415C694.033 125.501 693.848 125.636 693.701 125.807C693.554 125.979 693.449 126.183 693.396 126.403C693.041 127.866 690.959 127.866 690.604 126.403C690.551 126.183 690.446 125.979 690.299 125.807C690.152 125.635 689.967 125.5 689.758 125.414C689.549 125.327 689.322 125.291 689.097 125.308C688.871 125.326 688.653 125.396 688.46 125.514C687.174 126.298 685.702 124.826 686.485 123.539C686.603 123.346 686.673 123.128 686.69 122.903C686.708 122.677 686.672 122.451 686.585 122.242C686.499 122.033 686.364 121.848 686.193 121.701C686.021 121.554 685.817 121.449 685.598 121.396C684.134 121.041 684.134 118.959 685.598 118.604C685.817 118.551 686.021 118.446 686.193 118.299C686.365 118.152 686.5 117.967 686.586 117.758C686.673 117.549 686.709 117.322 686.692 117.097C686.674 116.871 686.604 116.653 686.486 116.46C685.702 115.174 687.174 113.702 688.461 114.485C689.294 114.992 690.374 114.543 690.604 113.598Z"
      stroke="#353535"
      stroke-width="1.5"
      stroke-linecap="round"
      stroke-linejoin="round"
    />
    <path
      d="M689.5 120C689.5 120.663 689.763 121.299 690.232 121.768C690.701 122.237 691.337 122.5 692 122.5C692.663 122.5 693.299 122.237 693.768 121.768C694.237 121.299 694.5 120.663 694.5 120C694.5 119.337 694.237 118.701 693.768 118.232C693.299 117.763 692.663 117.5 692 117.5C691.337 117.5 690.701 117.763 690.232 118.232C689.763 118.701 689.5 119.337 689.5 120Z"
      stroke="#353535"
      stroke-width="1.5"
      stroke-linecap="round"
      stroke-linejoin="round"
    />
    <path
      d="M66.9297 180.258V182.992H61.8984C61.9258 185.549 63.7305 188.064 67.7227 189.117L66.1367 191.852C63.3203 191.113 61.3516 189.527 60.2305 187.531C59.1367 189.814 57.1406 191.619 54.2148 192.48L52.5469 189.746C56.5664 188.639 58.3984 185.822 58.4258 182.992H53.4219V180.258H58.4258V177.523H61.9531V180.258H66.9297ZM72.4805 177.633V183.539H75.8438V186.355H72.4805V192.645H68.9805V177.633H72.4805ZM64.332 193.109C69.5273 193.109 72.7266 194.832 72.7266 197.84C72.7266 200.793 69.5273 202.488 64.332 202.488C59.0273 202.488 55.8008 200.793 55.8008 197.84C55.8008 194.832 59.0273 193.109 64.332 193.109ZM64.332 195.789C61.0234 195.789 59.2734 196.418 59.3008 197.84C59.2734 199.18 61.0234 199.863 64.332 199.863C67.5586 199.863 69.2812 199.18 69.2812 197.84C69.2812 196.418 67.5586 195.789 64.332 195.789ZM90.9622 179.082V181.871H86.013C86.0403 184.783 87.763 187.764 91.8099 189.062L90.0325 191.77C87.2708 190.881 85.3704 189.104 84.2903 186.875C83.1829 189.309 81.2005 191.236 78.3021 192.18L76.4427 189.5C80.5579 188.174 82.431 184.988 82.4857 181.871H77.3997V179.082H90.9622ZM96.5677 177.633V183.676H99.931V186.574H96.5677V192.645H93.0677V177.633H96.5677ZM96.5677 193.711V202.516H93.0677V196.473H79.806V193.711H96.5677ZM110.1 184.414C110.073 188.215 112.096 192.59 116.198 194.477L114.256 197.211C111.481 195.939 109.499 193.396 108.405 190.402C107.284 193.697 105.247 196.486 102.362 197.84L100.339 195.078C104.495 193.137 106.573 188.516 106.6 184.414V182.883H101.323V180.039H115.104V182.883H110.1V184.414ZM120.546 177.633V187.121H124.21V190.047H120.546V202.516H117.046V177.633H120.546ZM147.75 187.34V190.074H125V187.34H147.75ZM145.043 183.238V185.973H127.844V178.125H144.852V180.914H131.316V183.238H145.043ZM144.934 191.551V198.059H131.07V199.59H145.59V202.297H127.652V195.57H141.488V194.176H127.625V191.551H144.934ZM169.923 177.633V202.57H166.396V177.633H169.923ZM156.415 179.383C160.161 179.383 162.95 182.828 162.95 188.242C162.95 193.711 160.161 197.129 156.415 197.129C152.587 197.129 149.798 193.711 149.825 188.242C149.798 182.828 152.587 179.383 156.415 179.383ZM156.415 182.527C154.474 182.527 153.189 184.551 153.189 188.242C153.189 191.961 154.474 193.957 156.415 193.957C158.302 193.957 159.587 191.961 159.587 188.242C159.587 184.551 158.302 182.527 156.415 182.527ZM200.433 177.633V202.516H196.906V177.633H200.433ZM192.969 180.23C192.969 187.777 190.316 194.039 181.43 198.25L179.598 195.461C186.023 192.426 188.853 188.488 189.414 182.965H180.937V180.23H192.969ZM223.236 177.633V186.875H226.9V189.719H223.236V202.57H219.736V177.633H223.236ZM216.263 179.93V182.746H208.06V193.656C211.669 193.615 214.65 193.451 217.958 192.863L218.341 195.789C214.486 196.445 211.095 196.555 206.693 196.527H204.587V179.93H216.263ZM248.553 177.633V202.57H245.081V177.633H248.553ZM240.842 179.711V189.309H232.639V193.875C236.426 193.861 239.653 193.643 243.303 193.055L243.604 195.871C239.502 196.582 235.811 196.746 231.272 196.746H229.03V186.547H237.288V182.527H229.002V179.711H240.842ZM264.629 179.355V182.145H256.754V189.637C260.363 189.609 262.92 189.459 265.777 188.926L266.105 191.715C262.797 192.289 259.816 192.453 255.277 192.453H253.281V179.355H264.629ZM272.75 177.66V195.762H269.277V186.902H263.18V184.141H269.277V177.66H272.75ZM273.351 199.344V202.133H256.207V194.258H259.707V199.344H273.351ZM292.186 191.086V194.832C294.223 194.709 296.288 194.518 298.229 194.23L298.502 196.773C292.979 197.84 287.073 197.895 282.725 197.895L282.315 195.078C284.188 195.064 286.389 195.051 288.713 194.969V191.086H292.186ZM297.327 180.559V183.375H292.241C292.473 185.781 294.346 188.037 298.092 188.953L296.506 191.66C293.594 190.922 291.584 189.309 290.463 187.23C289.356 189.404 287.373 191.1 284.448 191.852L282.807 189.227C286.567 188.229 288.385 185.891 288.631 183.375H283.6V180.559H288.713V177.852H292.186V180.559H297.327ZM303.123 177.633V202.57H299.651V177.633H303.123ZM320.648 179.027V181.789H315.699C315.726 184.729 317.476 187.736 321.414 189.035L319.691 191.715C316.929 190.84 315.043 189.035 313.976 186.793C312.855 189.281 310.873 191.291 307.933 192.234L306.156 189.473C310.244 188.16 312.103 184.893 312.144 181.789H307.14V179.027H320.648ZM327.265 193.547V202.516H323.793V196.336H310.176V193.547H327.265ZM327.265 177.633V192.453H323.793V186.465H319.937V183.621H323.793V177.633H327.265ZM338.446 179.301C342.384 179.273 345.337 181.844 345.337 185.398C345.337 188.98 342.384 191.523 338.446 191.523C334.509 191.523 331.528 188.98 331.528 185.398C331.528 181.844 334.509 179.273 338.446 179.301ZM338.446 182.309C336.478 182.309 334.974 183.457 335.001 185.398C334.974 187.367 336.478 188.488 338.446 188.488C340.415 188.488 341.919 187.367 341.946 185.398C341.919 183.457 340.442 182.309 338.446 182.309ZM351.298 177.633V202.57H347.825V177.633H351.298ZM330.489 194.641C334.919 194.668 341.071 194.586 346.403 193.848L346.677 196.363C341.153 197.43 335.247 197.484 330.899 197.484L330.489 194.641ZM382.383 177.633V202.516H379.047V177.633H382.383ZM377.187 177.988V201.367H373.906V189.609H371.91C371.582 194.504 369.504 197.457 366.441 197.457C363.16 197.457 361.027 194.012 361.027 188.406C361.027 182.828 363.16 179.41 366.441 179.41C369.435 179.41 371.486 182.199 371.883 186.848H373.906V177.988H377.187ZM366.441 182.691C365.047 182.691 364.226 184.605 364.254 188.406C364.226 192.234 365.047 194.121 366.441 194.094C367.863 194.121 368.711 192.234 368.711 188.406C368.711 184.605 367.863 182.691 366.441 182.691ZM405.731 177.633V202.57H402.204V177.633H405.731ZM398.513 179.82V182.664H389.899V193.684C394.356 193.67 397.091 193.574 400.235 193L400.563 195.871C397.118 196.527 393.946 196.637 388.56 196.637H386.399V179.82H398.513ZM429.983 177.633V202.57H426.537V189.227H422.162V186.41H426.537V177.633H429.983ZM421.752 179.711V182.527H413.604V186.656H420.85V189.391H413.604V194.094C417.049 194.066 419.811 193.943 422.901 193.465L423.256 196.254C419.619 196.801 416.366 196.938 412.1 196.938H410.131V179.711H421.752ZM438.73 180.203L438.375 194.066H434.875L434.519 180.203H438.73ZM436.652 200.246C435.367 200.246 434.328 199.207 434.355 197.949C434.328 196.691 435.367 195.68 436.652 195.68C437.855 195.68 438.922 196.691 438.922 197.949C438.922 199.207 437.855 200.246 436.652 200.246Z"
      fill="#282738"
    />
    <path
      d="M59.8594 217.672V226.875H53.2969V217.672H59.8594ZM54.7656 218.844V225.672H58.4219V218.844H54.7656ZM64.1094 216.328V230.359H62.625V216.328H64.1094ZM77.9047 216.328V230.359H76.4204V216.328H77.9047ZM73.6235 217.594V222.703H68.5922V225.766C70.8579 225.758 72.8422 225.656 75.186 225.266L75.3266 226.484C72.8422 226.906 70.7329 227 68.2641 227H67.0766V221.516H72.1079V218.797H67.061V217.594H73.6235ZM96.6674 222.906V224.125H83.8861V222.906H96.6674ZM95.183 220.484V221.688H85.4799V216.828H95.0893V218.047H86.9486V220.484H95.183ZM90.2611 225.219C93.2768 225.219 95.0893 226.141 95.0893 227.766C95.0893 229.391 93.2768 230.312 90.2611 230.297C87.2299 230.312 85.4018 229.391 85.4018 227.766C85.4018 226.141 87.2299 225.219 90.2611 225.219ZM90.2611 226.359C88.1205 226.375 86.9018 226.875 86.9018 227.766C86.9018 228.656 88.1205 229.156 90.2611 229.156C92.3705 229.156 93.6049 228.656 93.6049 227.766C93.6049 226.875 92.3705 226.375 90.2611 226.359ZM110.447 223.969V225.172H97.6346V223.969H103.306V222.641H99.2752V219.078H107.353V217.828H99.244V216.656H108.838V220.172H100.744V221.484H109.119V222.641H104.775V223.969H110.447ZM108.916 226.156V230.219H107.416V227.344H99.0721V226.156H108.916ZM122.321 216.328V222H124.571V223.234H122.321V230.328H120.852V216.328H122.321ZM119.633 218.516V219.734H111.336V218.516H114.789V216.516H116.274V218.516H119.633ZM115.539 220.766C117.539 220.766 119.008 222.109 119.024 224.016C119.008 225.938 117.539 227.266 115.539 227.281C113.524 227.266 112.055 225.938 112.055 224.016C112.055 222.109 113.524 220.766 115.539 220.766ZM115.539 221.984C114.352 221.984 113.461 222.812 113.477 224.016C113.461 225.234 114.352 226.047 115.539 226.031C116.727 226.047 117.602 225.234 117.602 224.016C117.602 222.812 116.727 221.984 115.539 221.984ZM136.507 217.672V219.047C136.507 220.781 136.507 222.719 135.975 225.578L134.475 225.422C135.022 222.719 135.022 220.734 135.022 219.047V218.875H126.522V217.672H136.507ZM137.944 227.203V228.438H125.178V227.203H130.038V222.266H131.507V227.203H137.944ZM147.691 219.344C147.691 220.984 148.957 222.547 151.097 223.172L150.394 224.328C148.793 223.844 147.605 222.836 146.988 221.547C146.379 223 145.168 224.148 143.519 224.703L142.785 223.516C144.925 222.844 146.222 221.156 146.222 219.344V219.109H143.175V217.922H146.222V216.281H147.707V217.922H150.738V219.109H147.691V219.344ZM154.457 216.328V225.984H152.972V221.453H150.316V220.219H152.972V216.328H154.457ZM150.629 225.344C150.629 227.156 152.629 228.688 155.3 229.094L154.707 230.266C152.527 229.906 150.699 228.82 149.863 227.281C149.011 228.805 147.183 229.906 144.988 230.266L144.457 229.094C147.05 228.672 149.097 227.094 149.113 225.344V225.062H150.629V225.344ZM172.063 216.344V226.688H170.579V221.406H167.516V224.359H161.063V217.266H162.548V219.641H166.048V217.266H167.516V220.203H170.579V216.344H172.063ZM172.376 228.828V230.031H162.923V225.672H164.423V228.828H172.376ZM162.548 223.156H166.048V220.781H162.548V223.156ZM186.405 216.328V230.328H184.983V223.172H183.64V229.641H182.265V216.594H183.64V221.953H184.983V216.328H186.405ZM177.03 220.438C177.015 221.672 177.077 223.734 178.015 225.25C178.913 223.797 178.968 221.828 178.968 220.438V219.172H178.202V217.984H181.53V219.172H180.265V220.438C180.249 222.281 180.53 224.734 182.155 226.016L181.312 227.047C180.46 226.359 179.944 225.312 179.64 224.141C179.366 225.344 178.882 226.461 177.999 227.188C177.124 226.453 176.632 225.32 176.358 224.125C176.062 225.289 175.554 226.352 174.702 227.047L173.843 226.016C175.468 224.734 175.733 222.25 175.733 220.438V219.172H174.343V217.984H177.796V219.172H177.03V220.438ZM196.621 219.891C196.605 222.375 198.043 224.906 200.137 225.922L199.215 227.109C197.691 226.32 196.512 224.75 195.902 222.875C195.27 224.875 194.043 226.547 192.449 227.375L191.527 226.172C193.684 225.141 195.137 222.453 195.137 219.891V217.5H196.621V219.891ZM202.668 216.328V221.906H204.918V223.172H202.668V230.328H201.184V216.328H202.668ZM218.292 223.156V224.359H205.526V223.156H208.588V221.266C207.51 220.828 206.901 220.125 206.901 219.203C206.901 217.547 208.823 216.578 211.901 216.578C214.963 216.578 216.901 217.547 216.901 219.203C216.901 220.125 216.284 220.836 215.198 221.266V223.156H218.292ZM211.901 225.312C214.917 225.312 216.729 226.203 216.729 227.797C216.729 229.422 214.917 230.297 211.901 230.297C208.854 230.297 207.042 229.422 207.042 227.797C207.042 226.203 208.854 225.312 211.901 225.312ZM211.901 226.453C209.76 226.453 208.542 226.938 208.542 227.797C208.542 228.672 209.76 229.172 211.901 229.156C214.01 229.172 215.245 228.672 215.245 227.797C215.245 226.938 214.01 226.453 211.901 226.453ZM211.901 217.719C209.729 217.719 208.417 218.266 208.432 219.203C208.417 220.141 209.729 220.672 211.901 220.672C214.073 220.672 215.37 220.141 215.37 219.203C215.37 218.266 214.073 217.719 211.901 217.719ZM210.088 223.156H213.729V221.656C213.182 221.75 212.565 221.797 211.901 221.797C211.245 221.797 210.635 221.75 210.088 221.672V223.156ZM224.165 220.453C224.165 222.672 225.618 225.141 227.743 226.141L226.899 227.297C225.329 226.539 224.087 224.961 223.462 223.125C222.813 225.133 221.501 226.859 219.899 227.656L219.024 226.484C221.149 225.469 222.696 222.828 222.696 220.453V218.969H219.54V217.734H227.212V218.969H224.165V220.453ZM230.196 216.328V221.875H232.446V223.125H230.196V230.328H228.712V216.328H230.196ZM243.96 216.328V221.906H246.132V223.141H243.96V230.312H242.476V216.328H243.96ZM240.304 217.797C240.288 221.844 238.507 225.453 233.898 227.734L233.07 226.578C236.578 224.828 238.484 222.297 238.788 219.031H233.773V217.797H240.304ZM259.004 222.25V223.469H256.051V226.062C257.348 226 258.653 225.914 259.879 225.781L259.989 226.875C256.911 227.344 253.582 227.375 250.926 227.391L250.739 226.156C251.918 226.156 253.223 226.148 254.567 226.109V223.469H251.754V217.625H258.942V218.828H253.223V222.25H259.004ZM262.239 216.328V230.359H260.754V216.328H262.239ZM268.221 217.375C270.12 217.375 271.511 218.984 271.737 221.578H274.628V216.328H276.096V230.359H274.628V222.781H271.753C271.589 225.508 270.167 227.203 268.221 227.203C266.128 227.203 264.659 225.297 264.675 222.281C264.659 219.281 266.128 217.375 268.221 217.375ZM268.221 218.703C266.956 218.703 266.081 220.078 266.081 222.281C266.081 224.5 266.956 225.875 268.221 225.875C269.487 225.875 270.362 224.5 270.362 222.281C270.362 220.078 269.487 218.703 268.221 218.703ZM291.001 227.359V228.594H278.189V227.359H283.829V224.484H279.658V217.281H281.142V219.688H288.017V217.281H289.486V224.484H285.298V227.359H291.001ZM281.142 223.281H288.017V220.891H281.142V223.281ZM296.219 220.156C296.219 222.391 297.156 224.781 299.031 225.922L298.203 227.062C296.89 226.273 296 224.875 295.531 223.25C295.008 225.031 294.047 226.547 292.687 227.375L291.765 226.266C293.75 225.078 294.781 222.609 294.781 220.219V217.609H296.219V220.156ZM304 216.328V230.328H302.578V216.328H304ZM301.094 216.594V229.641H299.687V222.484H297.515V221.25H299.687V216.594H301.094ZM318.529 227.344V228.578H305.717V227.344H308.779V223.688C307.631 223.055 306.936 222.047 306.936 220.797C306.936 218.594 309.092 217.141 312.092 217.141C315.108 217.141 317.264 218.594 317.264 220.797C317.264 222.031 316.592 223.023 315.467 223.656V227.344H318.529ZM312.092 218.328C309.889 218.328 308.373 219.281 308.373 220.797C308.373 222.297 309.889 223.281 312.092 223.281C314.279 223.281 315.826 222.297 315.826 220.797C315.826 219.281 314.279 218.328 312.092 218.328ZM310.248 227.344H313.967V224.219C313.397 224.367 312.764 224.438 312.092 224.438C311.436 224.438 310.811 224.367 310.248 224.234V227.344Z"
      fill="#282738"
    />
    <rect x="52" y="245" width="819" height="1" fill="#EEEEEE" />
    <path
      d="M63.6094 270.984V271.875C63.6094 272.812 63.6094 274.016 63.2969 275.578H65.2812V276.562H52.5625V275.578H62.0625C62.3828 274.031 62.3984 272.898 62.3906 271.984H54.1719V270.984H63.6094ZM54.0781 278.953V277.969H63.6562V281.469H55.3281V283.109H64.0156V284.109H54.0938V280.5H62.4375V278.953H54.0781ZM72.6547 270.625C75.7407 270.625 77.5532 271.477 77.561 273.016C77.5532 274.594 75.7407 275.445 72.6547 275.453C69.5532 275.445 67.7329 274.594 67.7329 273.016C67.7329 271.477 69.5532 270.625 72.6547 270.625ZM66.3266 277.391V276.391H78.9829V277.391H66.3266ZM67.8579 279.531V278.594H77.3579V281.703H69.1079V283.141H77.7797V284.109H67.8891V280.797H76.1547V279.531H67.8579ZM69.0141 273.016C68.9985 273.984 70.3501 274.516 72.6547 274.516C74.9594 274.516 76.3032 273.984 76.311 273.016C76.3032 272.102 74.9594 271.555 72.6547 271.547C70.3501 271.555 68.9985 272.102 69.0141 273.016ZM88.2299 273.281C88.2299 274.586 88.9408 276.305 90.3783 277.273C91.8002 276.328 92.5111 274.648 92.5111 273.281V271.5H93.7455V273.281C93.7377 274.977 94.7377 276.742 96.5736 277.516L95.8861 278.453C94.5268 277.836 93.5893 276.695 93.1205 275.359C92.6674 276.711 91.7611 277.961 90.3705 278.609C88.9564 277.945 88.0424 276.648 87.5971 275.289C87.1205 276.617 86.1674 277.82 84.8393 278.453L84.183 277.516C85.9564 276.703 86.9955 274.82 87.0111 273.281V271.5H88.2299V273.281ZM84.0424 282.391V281.375H96.7455V282.391H84.0424ZM109.041 274.594V275.578H99.5252V270.891H100.744V274.594H109.041ZM97.7909 278.469V277.469H110.51V278.469H97.7909ZM99.4471 283.922V279.891H100.666V282.906H109.119V283.922H99.4471ZM120.257 273.375C120.264 275.078 121.655 276.602 123.71 277.203L123.132 278.188C121.538 277.695 120.296 276.656 119.679 275.32C119.085 276.828 117.804 277.984 116.163 278.547L115.538 277.578C117.608 276.938 119.046 275.273 119.054 273.375V273.094H115.913V272.078H119.054V270.312H120.288V272.078H123.397V273.094H120.257V273.375ZM117.319 281.734C117.327 280.148 119.061 279.242 121.929 279.25C124.796 279.242 126.507 280.148 126.507 281.734C126.507 283.32 124.796 284.227 121.929 284.219C119.061 284.227 117.327 283.32 117.319 281.734ZM118.554 281.734C118.538 282.703 119.819 283.266 121.929 283.266C124.03 283.266 125.311 282.703 125.319 281.734C125.311 280.766 124.03 280.219 121.929 280.219C119.819 280.219 118.538 280.766 118.554 281.734ZM125.163 278.906V270.375H126.382V274H128.475V275.016H126.382V278.906H125.163ZM133.99 272.953C133.997 274.805 135.357 276.492 137.411 277.203L136.786 278.156C135.2 277.594 133.99 276.461 133.396 275.023C132.802 276.602 131.529 277.828 129.896 278.422L129.24 277.469C131.318 276.734 132.771 274.945 132.786 272.953V272.359H129.615V271.359H137.115V272.359H133.99V272.953ZM131.052 280.484V279.484H140.146V284.266H138.927V280.484H131.052ZM138.927 278.75V270.375H140.146V274.047H142.24V275.094H140.146V278.75H138.927ZM147.754 274.641C147.738 276.867 149.347 279.32 151.363 280.281L150.66 281.25C149.097 280.484 147.777 278.844 147.152 276.961C146.511 279 145.121 280.797 143.566 281.594L142.816 280.625C144.816 279.648 146.535 277.008 146.55 274.641V272.828H143.316V271.812H150.879V272.828H147.754V274.641ZM152.582 284.266V270.375H153.8V276H156.129V277.047H153.8V284.266H152.582ZM167.565 270.375V276.031H169.815V277.062H167.565V284.266H166.346V270.375H167.565ZM156.908 280.656C160.494 278.875 162.447 276.195 162.729 272.906H157.549V271.875H163.971C163.963 275.805 162.119 279.391 157.596 281.625L156.908 280.656ZM185.983 270.391V280.938H184.749V279.5H181.874V278.609H184.749V270.391H185.983ZM174.452 276.828C177.038 276.812 180.523 276.789 183.499 276.422L183.577 277.312C182.343 277.508 181.038 277.633 179.765 277.711V280.453H178.53V277.773C177.124 277.828 175.788 277.828 174.624 277.828L174.452 276.828ZM175.577 273.375C175.569 271.914 176.96 270.953 179.015 270.953C181.054 270.953 182.444 271.914 182.452 273.375C182.444 274.859 181.054 275.781 179.015 275.781C176.96 275.781 175.569 274.859 175.577 273.375ZM176.452 283.969V279.906H177.687V282.938H186.327V283.969H176.452ZM176.749 273.375C176.733 274.281 177.655 274.867 179.015 274.875C180.335 274.867 181.273 274.281 181.28 273.375C181.273 272.484 180.335 271.875 179.015 271.891C177.655 271.875 176.733 272.484 176.749 273.375ZM199.044 270.375V276.109H201.373V277.125H199.044V284.266H197.826V270.375H199.044ZM188.216 273.625V272.609H191.794V270.547H193.013V272.609H196.482V273.625H188.216ZM189.013 277.969C189.005 276.094 190.443 274.781 192.419 274.781C194.38 274.781 195.81 276.094 195.826 277.969C195.81 279.852 194.38 281.156 192.419 281.156C190.443 281.156 189.005 279.852 189.013 277.969ZM190.185 277.969C190.177 279.234 191.123 280.125 192.419 280.109C193.701 280.125 194.638 279.234 194.654 277.969C194.638 276.711 193.701 275.805 192.419 275.812C191.123 275.805 190.177 276.711 190.185 277.969ZM213.293 274.594V275.578H203.777V270.891H204.996V274.594H213.293ZM202.043 278.469V277.469H214.762V278.469H202.043ZM203.699 283.922V279.891H204.918V282.906H213.371V283.922H203.699ZM232.493 281.453V282.484H219.774V281.453H225.493V278.062H221.274V271.547H230.915V278.062H226.696V281.453H232.493ZM222.477 277.078H229.727V272.531H222.477V277.078ZM246.21 277.391V278.391H233.538V277.391H246.21ZM235.148 275.859V270.984H244.632V271.984H236.367V274.844H244.757V275.859H235.148ZM235.179 283.953V279.891H236.398V282.922H244.867V283.953H235.179ZM262.77 270.375V280.719H261.536V276.688H259.161V275.656H261.536V274.047H259.161V273.031H261.536V270.375H262.77ZM251.286 277.562C251.84 277.562 252.442 277.555 253.082 277.547V272.516H251.676V271.516H259.051V272.516H257.629V277.383C258.27 277.344 258.903 277.289 259.504 277.219L259.567 278.141C256.871 278.555 253.7 278.602 251.442 278.609L251.286 277.562ZM253.817 283.969V279.859H255.051V282.938H263.145V283.969H253.817ZM254.27 277.523C254.981 277.508 255.715 277.484 256.442 277.453V272.516H254.27V277.523ZM270.018 272.672C270.026 274.484 271.526 276.094 273.596 276.719L272.971 277.688C271.346 277.172 270.042 276.055 269.417 274.617C268.8 276.156 267.487 277.359 265.831 277.922L265.19 276.953C267.284 276.289 268.776 274.578 268.784 272.672V272.312H265.534V271.312H273.221V272.312H270.018V272.672ZM267.487 284.078V278.578H268.706V280.266H275.268V278.578H276.487V284.078H267.487ZM268.706 283.078H275.268V281.25H268.706V283.078ZM275.268 277.891V270.375H276.487V277.891H275.268ZM294.219 270.375V284.266H292.984V270.375H294.219ZM282.906 280.656C286.664 278.875 288.586 276.211 288.859 272.891H283.547V271.891H290.109C290.094 275.883 288.234 279.422 283.578 281.656L282.906 280.656ZM307.717 274.266V275.281H298.233V270.656H299.451V274.266H307.717ZM296.498 277.922V276.906H309.17V277.922H296.498ZM298.029 281.688C298.022 280.07 299.826 279.164 302.826 279.172C305.803 279.164 307.592 280.07 307.608 281.688C307.592 283.297 305.803 284.203 302.826 284.203C299.826 284.203 298.022 283.297 298.029 281.688ZM299.279 281.688C299.264 282.656 300.6 283.242 302.826 283.25C305.029 283.242 306.365 282.656 306.373 281.688C306.365 280.703 305.029 280.148 302.826 280.141C300.6 280.148 299.264 280.703 299.279 281.688ZM321.716 270.375V284.297H320.481V270.375H321.716ZM310.778 276.297C310.786 273.344 312.255 271.461 314.325 271.453C316.387 271.461 317.88 273.344 317.872 276.297C317.88 279.258 316.387 281.133 314.325 281.125C312.255 281.133 310.786 279.258 310.778 276.297ZM311.966 276.297C311.966 278.555 312.934 280.039 314.325 280.031C315.723 280.039 316.684 278.555 316.684 276.297C316.684 274.039 315.723 272.555 314.325 272.547C312.934 272.555 311.966 274.039 311.966 276.297ZM340.65 276.219V277.203H327.978V276.219H340.65ZM329.509 279.406V278.453H339.009V281.672H330.759V283.109H339.431V284.109H329.541V280.75H337.806V279.406H329.509ZM329.666 275.078V270.859H338.994V271.844H330.9V274.078H339.134V275.078H329.666ZM345.477 271.453C347.367 271.461 348.734 273.086 348.922 275.688H352.039V270.375H353.258V284.297H352.039V276.703H348.938C348.805 279.43 347.414 281.133 345.477 281.125C343.422 281.133 341.984 279.258 341.992 276.297C341.984 273.344 343.422 271.461 345.477 271.453ZM343.164 276.297C343.172 278.555 344.109 280.039 345.477 280.031C346.836 280.039 347.789 278.555 347.789 276.297C347.789 274.039 346.836 272.555 345.477 272.547C344.109 272.555 343.172 274.039 343.164 276.297ZM360.21 279.703C360.202 280.93 360.866 282.234 362.186 282.984C363.514 282.164 364.217 280.773 364.21 279.703V278.938H365.413V279.703C365.405 281.133 366.46 282.555 368.241 283.172L367.631 284.078C366.241 283.586 365.272 282.617 364.788 281.453C364.358 282.578 363.506 283.648 362.225 284.188C360.874 283.672 360.014 282.656 359.6 281.492C359.1 282.609 358.147 283.578 356.819 284.078L356.194 283.172C357.952 282.516 359.006 281.031 359.022 279.703V278.938H360.21V279.703ZM355.835 274.453C355.827 272.516 357.366 271.195 359.475 271.203C361.585 271.195 363.108 272.516 363.116 274.453C363.108 276.359 361.585 277.672 359.475 277.672C357.366 277.672 355.827 276.359 355.835 274.453ZM357.038 274.453C357.022 275.742 358.045 276.648 359.475 276.656C360.889 276.648 361.913 275.742 361.913 274.453C361.913 273.156 360.889 272.234 359.475 272.25C358.045 272.234 357.022 273.156 357.038 274.453ZM365.756 278.328V270.391H366.975V278.328H365.756ZM373.005 271.453C374.896 271.461 376.263 273.086 376.45 275.688H379.567V270.375H380.786V284.297H379.567V276.703H376.466C376.333 279.43 374.942 281.133 373.005 281.125C370.95 281.133 369.513 279.258 369.521 276.297C369.513 273.344 370.95 271.461 373.005 271.453ZM370.692 276.297C370.7 278.555 371.638 280.039 373.005 280.031C374.364 280.039 375.317 278.555 375.317 276.297C375.317 274.039 374.364 272.555 373.005 272.547C371.638 272.555 370.7 274.039 370.692 276.297ZM395.753 281.453V282.484H383.035V281.453H386.191V277.711C385.003 277.094 384.285 276.094 384.285 274.828C384.285 272.68 386.394 271.266 389.363 271.25C392.332 271.266 394.441 272.68 394.441 274.828C394.441 276.07 393.746 277.055 392.597 277.672V281.453H395.753ZM385.472 274.828C385.464 276.383 387.082 277.422 389.363 277.422C391.621 277.422 393.253 276.383 393.253 274.828C393.253 273.273 391.621 272.25 389.363 272.266C387.082 272.25 385.464 273.273 385.472 274.828ZM387.394 281.453H391.363V278.148C390.761 278.305 390.089 278.391 389.363 278.391C388.652 278.391 387.988 278.312 387.394 278.156V281.453ZM398.267 283.094C397.721 283.086 397.252 282.633 397.267 282.078C397.252 281.531 397.721 281.078 398.267 281.078C398.822 281.078 399.275 281.531 399.267 282.078C399.275 282.633 398.822 283.086 398.267 283.094Z"
      fill="#282738"
    />
    <rect x="911" y="30" width="1" height="12" fill="#E9E9E9" />
  </g>
  <defs>
    <filter id="filter0_d_406_6261" x="0" y="0" width="928" height="428" filterUnits="userSpaceOnUse" color-interpolation-filters="sRGB">
      <feFlood flood-opacity="0" result="BackgroundImageFix" />
      <feColorMatrix in="SourceAlpha" type="matrix" values="0 0 0 0 0 0 0 0 0 0 0 0 0 0 0 0 0 0 127 0" result="hardAlpha" />
      <feMorphology radius="2" operator="dilate" in="SourceAlpha" result="effect1_dropShadow_406_6261" />
      <feOffset dx="2" dy="4" />
      <feGaussianBlur stdDeviation="6" />
      <feComposite in2="hardAlpha" operator="out" />
      <feColorMatrix type="matrix" values="0 0 0 0 0 0 0 0 0 0 0 0 0 0 0 0 0 0 0.08 0" />
      <feBlend mode="normal" in2="BackgroundImageFix" result="effect1_dropShadow_406_6261" />
      <feBlend mode="normal" in="SourceGraphic" in2="effect1_dropShadow_406_6261" result="shape" />
    </filter>
  </defs>
</svg>
