<svg viewBox="0 0 1178 604" fill="none" xmlns="http://www.w3.org/2000/svg">
  <path
    d="M1067 60.7963L1068.54 58L1068.06 61.1221L1071.04 59.7189L1068.71 61.9737L1072 62.4994L1068.71 63.0263L1071.04 65.2811L1068.06 63.8779L1068.54 67L1067 64.2026L1065.45 67L1065.94 63.8779L1062.96 65.2811L1065.29 63.0263L1062 62.4994L1065.29 61.9737L1062.96 59.7189L1065.94 61.1221L1065.45 58L1067 60.7963Z"
    fill="#B1D8CB"
  />
  <path
    d="M180 256.039L182.162 252L181.481 256.51L185.662 254.483L182.396 257.74L187 258.499L182.396 259.26L185.662 262.517L181.481 260.49L182.162 265L180 260.959L177.836 265L178.519 260.49L174.338 262.517L177.604 259.26L173 258.499L177.604 257.74L174.338 254.483L178.519 256.51L177.836 252L180 256.039Z"
    fill="#F2ABD6"
  />
  <path
    d="M866 24C862.276 25.257 861.257 26.2757 860 30C858.743 26.2757 857.724 25.257 854 24C857.724 22.743 858.743 21.7243 860 18C861.257 21.7243 862.276 22.743 866 24Z"
    fill="#B1D8CB"
  />
  <path
    d="M1079 231C1075.27 232.257 1074.26 233.278 1073 237C1071.74 233.274 1070.72 232.257 1067 231C1070.73 229.743 1071.74 228.722 1073 225C1074.26 228.726 1075.28 229.743 1079 231Z"
    fill="#F2ABD6"
  />
  <path
    d="M912 80C909.516 80.8379 908.838 81.5183 908 84C907.162 81.5162 906.482 80.8379 904 80C906.484 79.1621 907.162 78.4817 908 76C908.838 78.4838 909.518 79.1621 912 80Z"
    fill="#F2ABD6"
  />
  <path
    d="M62 406.04L64.1636 402L63.4812 406.51L67.6631 404.482L64.3971 407.74L69 408.5L64.3971 409.26L67.6631 412.518L63.4812 410.491L64.1636 415L62 410.961L59.8374 415L60.5188 410.491L56.3369 412.518L59.6039 409.26L55 408.5L59.6039 407.74L56.3369 404.482L60.5188 406.51L59.8374 402L62 406.04Z"
    fill="#B1D8CB"
  />
  <path
    d="M911 245.419L912.855 242L912.27 245.816L915.854 244.1L913.055 246.857L917 247.5L913.055 248.143L915.854 250.9L912.27 249.185L912.855 253L911 249.582L909.146 253L909.73 249.185L906.146 250.9L908.946 248.143L905 247.5L908.946 246.857L906.146 244.1L909.73 245.816L909.146 242L911 245.419Z"
    fill="#FDFDFD"
  />
  <path
    d="M345.001 29.0391L347.163 25L346.482 29.5097L350.664 27.4817L347.397 30.7402L352 31.5L347.397 32.2598L350.664 35.5183L346.482 33.4903L347.163 38L345.001 33.9609L342.837 38L343.52 33.4903L339.337 35.5183L342.605 32.2598L338 31.5L342.605 30.7402L339.337 27.4817L343.52 29.5097L342.837 25L345.001 29.0391Z"
    fill="#FDFDFD"
  />
  <path
    d="M120 11C116.897 12.0486 116.045 12.8967 115 16C113.951 12.8967 113.103 12.0447 110 11C113.103 9.95143 113.955 9.10332 115 6C116.049 9.10332 116.897 9.95528 120 11Z"
    fill="#FFF3B0"
  />
  <path
    d="M10 159C6.89668 160.049 6.04472 160.897 5 164C3.95143 160.897 3.10332 160.045 0 159C3.10332 157.951 3.95528 157.103 5 154C6.04857 157.103 6.89668 157.955 10 159Z"
    fill="#B1D8CB"
  />
  <path
    d="M267 91C263.897 92.0486 263.045 92.8967 262 96C260.951 92.8967 260.103 92.0447 257 91C260.103 89.9514 260.955 89.1033 262 86C263.049 89.1033 263.897 89.9553 267 91Z"
    fill="#FDFDFD"
  />
  <path
    d="M79 141C77.1368 141.629 76.6289 142.137 76 144C75.3711 142.137 74.8632 141.629 73 141C74.8632 140.371 75.3711 139.863 76 138C76.6289 139.863 77.1368 140.371 79 141Z"
    fill="#F2ABD6"
  />
  <path
    d="M29 461C25.8946 462.048 25.0482 462.895 24 466C22.9518 462.895 22.1054 462.048 19 461C22.1054 459.952 22.9518 459.105 24 456C25.0482 459.105 25.8946 459.952 29 461Z"
    fill="#F2ABD6"
  />
  <path
    d="M70.133 247.643L68.9984 244L67.867 247.643L65 248.742L67.867 249.842L68.9984 255L70.133 249.842L73 248.742L70.133 247.643Z"
    fill="#FDFDFD"
  />
  <path
    d="M983.416 124.305L981.998 120L980.584 124.305L977 125.605L980.584 126.904L981.998 133L983.416 126.904L987 125.605L983.416 124.305Z"
    fill="#FDFDFD"
  />
  <path
    d="M1042.42 4.30504L1041 0L1039.58 4.30504L1036 5.60468L1039.58 6.90428L1041 13L1042.42 6.90428L1046 5.60468L1042.42 4.30504Z"
    fill="#9296FE"
  />
  <path
    d="M975.85 143.98L974.999 141L974.15 143.98L972 144.88L974.15 145.78L974.999 150L975.85 145.78L978 144.88L975.85 143.98Z"
    fill="#FFF3B0"
  />
  <path
    d="M125.134 312.31L124.002 309L122.87 312.31L120 313.311L122.87 314.312L124.002 319L125.134 314.312L128 313.311L125.134 312.31Z"
    fill="#FFF3B0"
  />
  <path
    d="M1121 394.5C1117.59 395.654 1116.65 396.585 1115.5 400C1114.35 396.585 1113.41 395.65 1110 394.5C1113.41 393.346 1114.35 392.415 1115.5 389C1116.65 392.415 1117.59 393.346 1121 394.5Z"
    fill="#9296FE"
  />
  <path
    d="M1178 598.5C1174.59 599.654 1173.65 600.585 1172.5 604C1171.35 600.585 1170.41 599.65 1167 598.5C1170.41 597.346 1171.35 596.415 1172.5 593C1173.65 596.415 1174.59 597.346 1178 598.5Z"
    fill="#FFF3B0"
  />
  <path
    d="M1093 510.5C1089.59 511.654 1088.65 512.585 1087.5 516C1086.35 512.585 1085.41 511.65 1082 510.5C1085.41 509.346 1086.35 508.415 1087.5 505C1088.65 508.415 1089.59 509.346 1093 510.5Z"
    fill="#B1D8CB"
  />
  <path
    d="M1166.78 166.932C1167.21 167.213 1167.43 167.56 1167.43 167.971C1167.43 168.23 1167.34 168.457 1167.17 168.652C1167 168.825 1166.77 168.912 1166.49 168.912C1166.25 168.912 1165.99 168.836 1165.71 168.685C1165.6 168.641 1165.45 168.566 1165.26 168.457C1165.08 168.328 1164.95 168.23 1164.87 168.165C1164.87 168.252 1164.88 168.403 1164.9 168.62C1164.92 168.814 1164.93 168.966 1164.93 169.074C1164.95 169.507 1164.87 169.842 1164.67 170.08C1164.48 170.296 1164.23 170.404 1163.93 170.404C1163.65 170.404 1163.4 170.307 1163.18 170.112C1162.96 169.896 1162.84 169.604 1162.82 169.236C1162.82 169.128 1162.81 168.977 1162.79 168.782C1162.79 168.566 1162.78 168.403 1162.76 168.295C1162.61 168.403 1162.38 168.587 1162.08 168.847C1161.75 169.106 1161.46 169.236 1161.2 169.236C1160.94 169.236 1160.71 169.139 1160.52 168.944C1160.35 168.749 1160.26 168.522 1160.26 168.263C1160.26 167.895 1160.43 167.549 1160.78 167.224L1161.88 166.316C1161.6 166.121 1161.18 165.851 1160.62 165.505C1160.21 165.223 1160 164.877 1160 164.466C1160 164.207 1160.09 163.979 1160.26 163.785C1160.45 163.568 1160.69 163.46 1160.97 163.46C1161.23 163.46 1161.48 163.536 1161.72 163.687L1162.5 164.174C1162.48 164.066 1162.47 163.914 1162.47 163.72C1162.47 163.525 1162.46 163.384 1162.43 163.298C1162.41 162.887 1162.51 162.573 1162.73 162.357C1162.94 162.119 1163.2 162 1163.5 162C1163.76 162 1163.99 162.097 1164.19 162.292C1164.4 162.487 1164.52 162.768 1164.54 163.136C1164.54 163.244 1164.55 163.406 1164.58 163.622C1164.6 163.817 1164.61 163.969 1164.61 164.077L1165.42 163.395C1165.7 163.179 1165.98 163.071 1166.26 163.071C1166.54 163.071 1166.77 163.168 1166.94 163.363C1167.14 163.558 1167.24 163.785 1167.24 164.044C1167.24 164.434 1167.06 164.769 1166.72 165.05L1165.45 166.089C1165.56 166.153 1166 166.435 1166.78 166.932Z"
    fill="#FFF3B0"
  />
  <path
    d="M1054.78 273.932C1055.21 274.213 1055.43 274.56 1055.43 274.971C1055.43 275.23 1055.34 275.457 1055.17 275.652C1055 275.825 1054.77 275.912 1054.49 275.912C1054.25 275.912 1053.99 275.836 1053.71 275.685C1053.6 275.641 1053.45 275.566 1053.26 275.457C1053.08 275.328 1052.95 275.23 1052.87 275.165C1052.87 275.252 1052.88 275.403 1052.9 275.62C1052.92 275.814 1052.93 275.966 1052.93 276.074C1052.95 276.507 1052.87 276.842 1052.67 277.08C1052.48 277.296 1052.23 277.404 1051.93 277.404C1051.65 277.404 1051.4 277.307 1051.18 277.112C1050.96 276.896 1050.84 276.604 1050.82 276.236C1050.82 276.128 1050.81 275.977 1050.79 275.782C1050.79 275.566 1050.78 275.403 1050.76 275.295C1050.61 275.403 1050.38 275.587 1050.08 275.847C1049.75 276.106 1049.46 276.236 1049.2 276.236C1048.94 276.236 1048.71 276.139 1048.52 275.944C1048.35 275.749 1048.26 275.522 1048.26 275.263C1048.26 274.895 1048.43 274.549 1048.78 274.224L1049.88 273.316C1049.6 273.121 1049.18 272.851 1048.62 272.505C1048.21 272.223 1048 271.877 1048 271.466C1048 271.207 1048.09 270.979 1048.26 270.785C1048.45 270.568 1048.69 270.46 1048.97 270.46C1049.23 270.46 1049.48 270.536 1049.72 270.687L1050.5 271.174C1050.48 271.066 1050.47 270.914 1050.47 270.72C1050.47 270.525 1050.46 270.384 1050.43 270.298C1050.41 269.887 1050.51 269.573 1050.73 269.357C1050.94 269.119 1051.2 269 1051.5 269C1051.76 269 1051.99 269.097 1052.19 269.292C1052.4 269.487 1052.52 269.768 1052.54 270.136C1052.54 270.244 1052.55 270.406 1052.58 270.622C1052.6 270.817 1052.61 270.969 1052.61 271.077L1053.42 270.395C1053.7 270.179 1053.98 270.071 1054.26 270.071C1054.54 270.071 1054.77 270.168 1054.94 270.363C1055.14 270.558 1055.24 270.785 1055.24 271.044C1055.24 271.434 1055.06 271.769 1054.72 272.05L1053.45 273.089C1053.56 273.153 1054 273.435 1054.78 273.932Z"
    fill="#B1D8CB"
  />
  <path
    d="M269.476 293.108C269.825 293.342 270 293.631 270 293.973C270 294.189 269.93 294.378 269.79 294.541C269.651 294.685 269.467 294.757 269.24 294.757C269.048 294.757 268.838 294.694 268.611 294.568C268.524 294.532 268.402 294.468 268.245 294.378C268.105 294.27 268 294.189 267.93 294.135C267.93 294.207 267.939 294.333 267.956 294.514C267.974 294.676 267.983 294.802 267.983 294.892C268 295.252 267.93 295.532 267.773 295.73C267.616 295.91 267.415 296 267.17 296C266.943 296 266.742 295.919 266.568 295.757C266.393 295.577 266.297 295.333 266.279 295.027C266.279 294.937 266.271 294.811 266.253 294.649C266.253 294.468 266.245 294.333 266.227 294.243C266.105 294.333 265.921 294.486 265.677 294.703C265.415 294.919 265.179 295.027 264.969 295.027C264.76 295.027 264.576 294.946 264.419 294.784C264.279 294.622 264.21 294.432 264.21 294.216C264.21 293.91 264.349 293.622 264.629 293.351L265.52 292.595C265.293 292.432 264.952 292.207 264.498 291.919C264.166 291.685 264 291.396 264 291.054C264 290.838 264.07 290.649 264.21 290.486C264.367 290.306 264.559 290.216 264.786 290.216C264.996 290.216 265.197 290.279 265.389 290.405L266.017 290.811C266 290.721 265.991 290.595 265.991 290.432C265.991 290.27 265.983 290.153 265.965 290.081C265.948 289.739 266.026 289.477 266.201 289.297C266.376 289.099 266.585 289 266.83 289C267.039 289 267.223 289.081 267.38 289.243C267.555 289.405 267.651 289.64 267.668 289.946C267.668 290.036 267.677 290.171 267.694 290.351C267.712 290.514 267.721 290.64 267.721 290.73L268.376 290.162C268.603 289.982 268.83 289.892 269.057 289.892C269.284 289.892 269.467 289.973 269.607 290.135C269.764 290.297 269.843 290.486 269.843 290.703C269.843 291.027 269.703 291.306 269.424 291.541L268.402 292.405C268.489 292.459 268.847 292.694 269.476 293.108Z"
    fill="#B1D8CB"
  />
  <path
    d="M179.301 153.695C179.767 153.963 180 154.292 180 154.683C180 154.931 179.907 155.147 179.721 155.332C179.534 155.497 179.29 155.579 178.987 155.579C178.731 155.579 178.451 155.507 178.148 155.363C178.032 155.322 177.869 155.25 177.659 155.147C177.473 155.023 177.333 154.931 177.24 154.869C177.24 154.951 177.252 155.095 177.275 155.301C177.298 155.486 177.31 155.631 177.31 155.734C177.333 156.145 177.24 156.465 177.031 156.691C176.821 156.897 176.553 157 176.227 157C175.924 157 175.656 156.907 175.424 156.722C175.191 156.516 175.063 156.238 175.039 155.888C175.039 155.785 175.028 155.641 175.004 155.456C175.004 155.25 174.993 155.095 174.969 154.992C174.806 155.095 174.562 155.27 174.236 155.517C173.886 155.764 173.572 155.888 173.293 155.888C173.013 155.888 172.769 155.795 172.559 155.61C172.373 155.425 172.279 155.208 172.279 154.961C172.279 154.611 172.466 154.282 172.838 153.973L174.026 153.108C173.723 152.923 173.269 152.665 172.664 152.336C172.221 152.068 172 151.739 172 151.347C172 151.1 172.093 150.884 172.279 150.699C172.489 150.493 172.745 150.39 173.048 150.39C173.328 150.39 173.595 150.462 173.852 150.606L174.69 151.069C174.667 150.967 174.655 150.822 174.655 150.637C174.655 150.452 174.643 150.318 174.62 150.236C174.597 149.844 174.702 149.546 174.934 149.34C175.167 149.113 175.447 149 175.773 149C176.052 149 176.297 149.093 176.507 149.278C176.739 149.463 176.868 149.731 176.891 150.081C176.891 150.184 176.902 150.338 176.926 150.544C176.949 150.73 176.961 150.874 176.961 150.977L177.834 150.328C178.137 150.122 178.44 150.019 178.742 150.019C179.045 150.019 179.29 150.112 179.476 150.297C179.686 150.483 179.79 150.699 179.79 150.946C179.79 151.317 179.604 151.636 179.231 151.903L177.869 152.892C177.985 152.954 178.463 153.221 179.301 153.695Z"
    fill="#9296FE"
  />
</svg>
