<svg viewBox="0 0 1270 240" fill="none" xmlns="http://www.w3.org/2000/svg">
  <path
    d="M264.227 83.7526C269.148 84.9946 273.875 81.8963 278.019 79.4067C280.354 78.0039 282.697 76.7337 285.174 75.6568C288.065 74.3969 291.004 73.2838 293.95 72.1935C296.963 71.0794 299.982 69.9903 302.966 68.7875C305.98 67.5712 308.979 66.3239 312.017 65.1787C318.051 62.8977 324.142 60.794 330.144 58.4046C331.827 57.7342 333.486 56.9928 335.171 56.325C336.789 55.6835 338.476 55.3375 340.146 54.9092C340.921 54.7124 341.737 54.5178 342.467 54.1648C342.908 53.9557 343.252 53.6403 343.662 53.2985C344.723 52.4216 345.867 51.9171 347.212 52.2667C347.812 52.4219 348.294 52.9069 348.223 53.6316C348.155 54.3202 347.587 54.7774 346.969 54.732C338.681 54.117 330.365 54.1442 322.075 53.5803C317.985 53.2998 313.922 52.6329 309.833 52.4305C305.925 52.237 302.017 52.4259 298.115 52.6447C294.206 52.8628 290.295 53.1049 286.379 53.0299C284.401 52.9937 282.422 52.8746 280.458 52.6281C278.558 52.3916 276.683 52.2212 274.768 52.2655C271.038 52.3534 267.34 52.993 263.63 53.3536C260.446 53.666 257.286 53.7061 254.107 53.3275C251.819 53.0553 249.525 52.7947 247.222 52.7863C246.171 52.7853 245.065 52.8412 243.927 53.059C243.686 53.1063 243.441 53.1581 243.202 53.2227L242.924 53.3022L242.617 53.4175L242.025 53.6891L241.819 53.8039L241.64 53.9389L241.403 54.145L241.333 54.2124L241.003 54.729C241.044 54.3149 241.085 53.8984 241.126 53.4843C241.785 55.624 243.939 56.9422 245.711 58.0163C247.721 59.2324 249.75 60.3899 251.504 62.0341C253.235 63.6536 254.615 65.629 256.089 67.5084C258.058 70.0178 260.583 71.9078 262.535 74.4299C263.353 75.4825 263.836 76.7517 264.403 77.9722C264.91 79.0689 265.473 79.9187 266.584 80.331C267.973 80.8465 267.135 83.1547 265.748 82.6395C263.668 81.8705 262.736 79.9084 261.836 77.894C260.829 75.6309 259.038 74.0385 257.329 72.3606C255.495 70.5611 253.946 68.5585 252.351 66.5165C251.108 64.9248 249.84 63.6272 248.227 62.4525C246.536 61.2225 244.812 60.3782 243.052 59.179C241.419 58.0629 239.674 56.5732 239.046 54.5005C238.504 52.713 240.889 51.4086 242.132 50.9912C243.813 50.4277 245.579 50.3247 247.331 50.3223C250.652 50.3182 253.912 50.9716 257.22 51.1243C262.668 51.3807 268.048 50.1265 273.474 49.8543C274.876 49.7819 276.281 49.7609 277.684 49.8396C279.086 49.9205 280.469 50.1551 281.862 50.2935C284.675 50.5734 287.5 50.616 290.323 50.5463C295.951 50.4096 301.562 49.8425 307.195 49.8842C310.089 49.9057 312.94 50.1875 315.812 50.523C318.797 50.8717 321.794 51.0975 324.79 51.2649C330.761 51.5921 336.74 51.6767 342.711 51.9844C344.213 52.0625 345.711 52.1547 347.212 52.2667C347.131 53.0877 347.05 53.911 346.969 54.732C346.45 54.5983 346.135 54.5737 345.776 54.7485C345.477 54.8963 345.142 55.1907 344.788 55.4855C343.702 56.3839 342.527 56.8019 341.216 57.1723C339.789 57.5756 338.328 57.8335 336.914 58.2918C335.386 58.7928 333.91 59.5238 332.416 60.1311C326.461 62.5503 320.409 64.6562 314.398 66.8984C308.342 69.1573 302.382 71.6952 296.318 73.9288C290.745 75.9811 285.123 77.9936 279.946 81.0759C275.153 83.9304 269.693 87.6616 263.984 86.218C263.382 86.0672 262.9 85.575 262.971 84.8528C263.031 84.2485 263.623 83.5992 264.227 83.7526Z"
    fill="#F7DE9C"
  />
  <path
    d="M347.964 53.0207C345.764 52.8003 343.845 51.9381 341.827 51.0376C340.655 50.5135 339.492 50.156 338.238 49.9585C336.95 49.7568 335.651 49.6635 334.364 49.4694C329.376 48.7164 324.948 45.7128 320.369 43.6315C318.13 42.615 315.882 41.8483 313.483 41.444C310.951 41.0168 308.463 40.3024 306.013 39.4902C303.609 38.6931 301.233 37.7946 298.834 36.9908C296.447 36.1958 294.038 35.6587 291.618 35.0205C286.164 33.5774 280.745 30.8306 275.006 31.5533C275.324 31.191 275.639 30.826 275.955 30.461C275.358 33.9785 277.479 36.832 278.463 40.0081C279.361 42.8991 279.724 46.5238 282.005 48.602C283.123 49.6215 281.78 51.6272 280.652 50.5968C277.951 48.1382 277.452 44.4611 276.386 41.0246C275.844 39.2833 275.003 37.6899 274.377 35.9899C273.694 34.1348 273.351 32.1832 273.69 30.1966C273.779 29.6785 274.118 29.1701 274.639 29.1043C279.895 28.4446 284.862 30.3812 289.83 31.9477C292.283 32.7189 294.796 33.1877 297.258 33.9185C299.681 34.6398 302.061 35.5169 304.45 36.3585C306.819 37.1929 309.202 37.9996 311.638 38.5618C312.859 38.8383 314.103 38.9958 315.326 39.2702C316.54 39.5435 317.739 39.9124 318.911 40.3587C321.252 41.2507 323.498 42.4139 325.743 43.5529C327.984 44.6841 330.263 45.8879 332.656 46.6008C335.491 47.4434 338.495 47.1975 341.313 48.1745C342.479 48.5785 343.58 49.1772 344.718 49.6584C345.854 50.1441 346.991 50.4304 348.206 50.5553C349.666 50.7014 349.423 53.1668 347.964 53.0207Z"
    fill="#F7DE9C"
  />
  <path
    d="M264.56 79.2516C265.713 79.3742 266.614 80.0518 267.275 81.0617C267.53 81.447 267.749 81.8622 268.028 82.2357L268.3 82.5378C268.578 82.7602 268.138 82.4751 268.429 82.6284C268.615 82.7255 268.792 82.7876 268.994 82.8186C270.301 83.0467 271.736 82.0746 272.882 81.5265C274.29 80.8557 275.698 80.1824 277.117 79.5396C279.942 78.2623 282.869 77.2769 285.625 75.8186C288.348 74.3735 290.987 72.7456 293.701 71.2776C296.491 69.7673 299.314 68.3095 302.201 67.0272C303.67 66.3732 305.17 65.8129 306.64 65.1688C308.094 64.5301 309.526 63.8279 310.962 63.1457C316.534 60.4992 322.497 59.0063 327.994 56.1708C329.495 55.3963 331.065 54.7882 332.65 54.25C334.244 53.7081 335.858 53.1246 337.489 52.7379C340.063 52.1302 343.074 52.2335 345.378 50.6859C345.903 50.3355 346.561 50.3053 346.982 50.8731C347.329 51.3447 347.337 52.2637 346.81 52.6186C344.516 54.1552 341.877 54.4461 339.273 54.9019C337.914 55.1425 336.618 55.5391 335.298 55.9547C333.864 56.4107 332.431 56.8838 331.034 57.4634C329.602 58.0536 328.247 58.8231 326.837 59.4694C325.432 60.1113 323.999 60.6721 322.558 61.2027C319.652 62.2709 316.711 63.2254 313.871 64.4937C310.955 65.797 308.104 67.2223 305.154 68.429C302.166 69.6508 299.253 71.0883 296.384 72.604C293.59 74.0799 290.865 75.6782 288.107 77.2312C286.774 77.9814 285.423 78.7004 284.032 79.3172C282.551 79.9771 281.025 80.5051 279.54 81.145C277.947 81.8307 276.373 82.5724 274.803 83.3193C273.282 84.0427 271.681 85.0417 270.014 85.2732C268.492 85.4851 267.031 84.9515 266.111 83.5924C265.824 83.1668 265.588 82.7105 265.283 82.3024C264.991 81.9102 264.795 81.7704 264.316 81.7218C262.857 81.5685 263.098 79.1004 264.56 79.2516Z"
    fill="#F7DE9C"
  />
  <path
    d="M263.608 84.2127C263.522 81.8696 262.437 79.9164 260.986 78.2493C260.247 77.4007 259.41 76.6795 258.568 75.9602C257.489 75.0378 256.418 74.1042 255.332 73.1907C254.25 72.2753 253.136 71.4122 252.026 70.5373C251.102 69.8132 250.435 68.8416 249.681 67.9305C248.89 66.9711 247.842 66.42 246.903 65.6602C246 64.9288 245.234 63.987 244.37 63.1969C242.458 61.4539 240.34 59.7892 238.985 57.4684C238.654 56.9037 238.641 56.1764 239.157 55.7229C239.593 55.3379 240.425 55.3425 240.758 55.9099C241.97 57.985 243.803 59.4655 245.516 61.0123C246.383 61.7979 247.154 62.7086 248.029 63.4709C249.001 64.3223 250.114 64.9028 251.012 65.8649C251.799 66.7093 252.399 67.7657 253.302 68.4824C254.434 69.3794 255.578 70.2606 256.687 71.1938C258.688 72.8813 260.802 74.5139 262.578 76.4845C264.35 78.4546 265.755 80.9956 265.856 83.8104C265.881 84.4806 265.577 85.1197 264.916 85.2374C264.368 85.334 263.632 84.8852 263.608 84.2127Z"
    fill="#F7DE9C"
  />
  <path
    fill-rule="evenodd"
    clip-rule="evenodd"
    d="M249.135 82.7068C199.608 80.243 164.103 102.003 114.473 102C81.6547 101.994 34.0113 81.9229 1.21762 81.9864C0.234421 81.9893 -0.569758 82.5109 -0.5779 83.1561C-0.585449 83.8012 0.206275 84.3211 1.18888 84.3183C33.979 84.2548 79.8845 103.536 112.699 103.542C162.24 103.546 199.385 82.5731 248.822 85.034C249.802 85.0817 250.665 84.6022 250.754 83.96C250.838 83.3179 250.109 82.7585 249.135 82.7068Z"
    fill="#F7DE9C"
  />
  <path
    fill-rule="evenodd"
    clip-rule="evenodd"
    d="M1260.49 202.739C1231.68 201.749 1210.99 211.254 1182.12 211.332C1163.02 211.382 1135.33 202.743 1116.24 202.823C1115.67 202.825 1115.2 203.053 1115.2 203.333C1115.19 203.614 1115.65 203.838 1116.22 203.835C1135.3 203.755 1161.99 212.054 1181.08 212.005C1209.91 211.927 1231.55 202.761 1260.31 203.75C1260.88 203.769 1261.38 203.56 1261.43 203.281C1261.48 203.002 1261.06 202.76 1260.49 202.739Z"
    fill="#B1D8CB"
  />
  <path
    d="M1094.52 194.265C1091.08 195.416 1087.55 193.463 1084.48 191.912C1082.74 191.038 1081.01 190.259 1079.19 189.625C1077.07 188.883 1074.92 188.248 1072.77 187.63C1070.56 186.999 1068.36 186.385 1066.17 185.689C1063.96 184.985 1061.76 184.258 1059.54 183.605C1055.13 182.305 1050.68 181.135 1046.29 179.755C1045.05 179.368 1043.83 178.93 1042.6 178.545C1041.42 178.175 1040.2 178.019 1038.98 177.804C1038.42 177.706 1037.83 177.611 1037.29 177.399C1036.97 177.273 1036.71 177.067 1036.4 176.846C1035.6 176.278 1034.76 175.98 1033.82 176.302C1033.4 176.445 1033.08 176.817 1033.16 177.33C1033.25 177.817 1033.67 178.112 1034.11 178.046C1039.99 177.16 1045.92 176.73 1051.8 175.88C1054.7 175.459 1057.57 174.765 1060.47 174.399C1063.25 174.05 1066.04 173.974 1068.84 173.919C1071.63 173.863 1074.43 173.825 1077.22 173.56C1078.63 173.427 1080.04 173.235 1081.42 172.953C1082.77 172.682 1084.09 172.459 1085.46 172.387C1088.13 172.248 1090.79 172.505 1093.46 172.561C1095.74 172.612 1098 172.47 1100.24 172.028C1101.86 171.711 1103.48 171.401 1105.12 171.271C1105.87 171.213 1106.67 171.193 1107.49 171.287C1107.66 171.308 1107.84 171.331 1108.01 171.364L1108.21 171.406L1108.44 171.472L1108.87 171.633L1109.03 171.704L1109.16 171.791L1109.34 171.925L1109.39 171.969L1109.65 172.319C1109.6 172.026 1109.55 171.732 1109.51 171.439C1109.14 173 1107.67 174.056 1106.46 174.917C1105.09 175.893 1103.7 176.828 1102.53 178.095C1101.37 179.343 1100.49 180.825 1099.53 182.245C1098.25 184.14 1096.54 185.624 1095.27 187.527C1094.74 188.322 1094.46 189.253 1094.11 190.153C1093.81 190.963 1093.45 191.599 1092.67 191.953C1091.71 192.395 1092.42 193.996 1093.38 193.553C1094.83 192.893 1095.4 191.444 1095.94 189.959C1096.55 188.291 1097.74 187.059 1098.88 185.771C1100.1 184.389 1101.11 182.878 1102.14 181.336C1102.95 180.134 1103.79 179.14 1104.88 178.216C1106.03 177.248 1107.22 176.553 1108.41 175.602C1109.52 174.719 1110.69 173.562 1111.04 172.051C1111.34 170.747 1109.57 169.946 1108.67 169.716C1107.44 169.405 1106.18 169.427 1104.93 169.52C1102.56 169.696 1100.27 170.338 1097.92 170.626C1094.04 171.103 1090.15 170.499 1086.27 170.599C1085.26 170.623 1084.26 170.684 1083.26 170.816C1082.27 170.949 1081.29 171.191 1080.31 171.365C1078.32 171.716 1076.3 171.899 1074.29 172.002C1070.27 172.209 1066.24 172.108 1062.23 172.442C1060.17 172.613 1058.15 172.968 1056.12 173.362C1054.01 173.772 1051.88 174.095 1049.75 174.376C1045.51 174.932 1041.25 175.316 1037.01 175.858C1035.95 175.994 1034.88 176.141 1033.82 176.302C1033.92 176.883 1034.01 177.465 1034.11 178.046C1034.47 177.923 1034.7 177.888 1034.96 177.994C1035.18 178.083 1035.44 178.275 1035.7 178.466C1036.52 179.047 1037.38 179.282 1038.33 179.475C1039.37 179.686 1040.42 179.79 1041.45 180.041C1042.57 180.315 1043.66 180.757 1044.75 181.109C1049.12 182.512 1053.53 183.686 1057.93 184.96C1062.36 186.243 1066.73 187.73 1071.16 188.995C1075.24 190.157 1079.34 191.288 1083.19 193.206C1086.74 194.982 1090.82 197.347 1094.82 196.009C1095.24 195.869 1095.56 195.492 1095.47 194.981C1095.4 194.554 1094.95 194.123 1094.52 194.265Z"
    fill="#B1D8CB"
  />
  <path
    d="M1033.32 176.88C1034.88 176.605 1036.2 175.886 1037.6 175.135C1038.41 174.698 1039.22 174.381 1040.1 174.172C1041.01 173.959 1041.93 173.822 1042.84 173.614C1046.36 172.808 1049.37 170.427 1052.53 168.696C1054.08 167.851 1055.64 167.183 1057.33 166.765C1059.12 166.323 1060.86 165.68 1062.56 164.968C1064.24 164.27 1065.89 163.501 1067.56 162.799C1069.22 162.103 1070.91 161.59 1072.6 161.004C1076.42 159.681 1080.15 157.43 1084.28 157.635C1084.03 157.394 1083.79 157.151 1083.55 156.908C1084.15 159.383 1082.77 161.532 1082.23 163.849C1081.73 165.959 1081.65 168.562 1080.13 170.167C1079.38 170.954 1080.43 172.312 1081.19 171.516C1082.99 169.617 1083.17 166.969 1083.76 164.462C1084.06 163.191 1084.58 162.01 1084.94 160.764C1085.34 159.405 1085.49 157.995 1085.15 156.597C1085.06 156.232 1084.79 155.888 1084.42 155.87C1080.64 155.683 1077.19 157.332 1073.73 158.717C1072.02 159.399 1070.25 159.869 1068.53 160.523C1066.84 161.169 1065.18 161.922 1063.52 162.651C1061.88 163.374 1060.22 164.078 1058.51 164.61C1057.65 164.874 1056.77 165.053 1055.91 165.315C1055.06 165.575 1054.22 165.903 1053.41 166.284C1051.78 167.047 1050.24 167.997 1048.7 168.931C1047.15 169.858 1045.59 170.839 1043.92 171.477C1041.94 172.231 1039.79 172.218 1037.82 173.066C1037.01 173.417 1036.26 173.904 1035.47 174.308C1034.68 174.716 1033.89 174.981 1033.03 175.136C1031.99 175.319 1032.29 177.063 1033.32 176.88Z"
    fill="#B1D8CB"
  />
  <path
    d="M1094.07 191.077C1093.25 191.227 1092.64 191.759 1092.22 192.515C1092.06 192.803 1091.92 193.111 1091.74 193.392L1091.56 193.622C1091.37 193.796 1091.67 193.569 1091.47 193.694C1091.35 193.773 1091.22 193.827 1091.08 193.86C1090.16 194.093 1089.09 193.478 1088.24 193.149C1087.21 192.747 1086.17 192.343 1085.13 191.961C1083.05 191.203 1080.92 190.659 1078.88 189.768C1076.87 188.885 1074.91 187.867 1072.9 186.967C1070.84 186.041 1068.75 185.155 1066.63 184.396C1065.55 184.009 1064.46 183.691 1063.38 183.311C1062.31 182.935 1061.25 182.511 1060.2 182.102C1056.09 180.517 1051.77 179.775 1047.71 178.05C1046.6 177.579 1045.45 177.231 1044.3 176.933C1043.13 176.632 1041.95 176.304 1040.77 176.116C1038.91 175.822 1036.77 176.058 1035.05 175.079C1034.66 174.858 1034.19 174.872 1033.91 175.299C1033.69 175.654 1033.73 176.31 1034.12 176.534C1035.83 177.506 1037.73 177.571 1039.61 177.755C1040.59 177.853 1041.53 178.066 1042.49 178.291C1043.54 178.538 1044.58 178.798 1045.61 179.136C1046.66 179.479 1047.66 179.955 1048.7 180.339C1049.73 180.721 1050.78 181.043 1051.83 181.344C1053.96 181.948 1056.1 182.47 1058.19 183.221C1060.33 183.992 1062.43 184.854 1064.6 185.555C1066.79 186.265 1068.93 187.132 1071.05 188.058C1073.12 188.959 1075.14 189.951 1077.18 190.909C1078.17 191.372 1079.17 191.812 1080.19 192.176C1081.28 192.567 1082.39 192.861 1083.48 193.236C1084.65 193.639 1085.81 194.083 1086.96 194.531C1088.08 194.964 1089.27 195.59 1090.47 195.665C1091.57 195.734 1092.58 195.274 1093.17 194.256C1093.36 193.937 1093.5 193.599 1093.7 193.291C1093.89 192.996 1094.02 192.886 1094.36 192.825C1095.39 192.637 1095.1 190.891 1094.07 191.077Z"
    fill="#B1D8CB"
  />
  <path
    d="M1094.99 194.56C1094.93 192.884 1095.61 191.433 1096.56 190.167C1097.05 189.522 1097.61 188.962 1098.17 188.404C1098.9 187.688 1099.62 186.965 1100.35 186.255C1101.07 185.544 1101.82 184.868 1102.57 184.185C1103.19 183.619 1103.62 182.89 1104.12 182.2C1104.63 181.473 1105.35 181.024 1105.98 180.431C1106.59 179.861 1107.09 179.148 1107.67 178.538C1108.95 177.192 1110.37 175.891 1111.23 174.164C1111.43 173.743 1111.41 173.224 1111.02 172.929C1110.69 172.678 1110.1 172.726 1109.89 173.148C1109.12 174.693 1107.89 175.848 1106.74 177.043C1106.17 177.65 1105.66 178.341 1105.07 178.931C1104.42 179.591 1103.66 180.065 1103.06 180.799C1102.55 181.444 1102.17 182.229 1101.56 182.789C1100.8 183.489 1100.03 184.179 1099.28 184.905C1097.94 186.216 1096.51 187.494 1095.34 188.995C1094.17 190.495 1093.3 192.382 1093.36 194.394C1093.38 194.873 1093.63 195.312 1094.1 195.361C1094.5 195.4 1095 195.04 1094.99 194.56Z"
    fill="#B1D8CB"
  />
</svg>
