<svg width="70" height="80" viewBox="0 0 70 80" fill="none" xmlns="http://www.w3.org/2000/svg">
  <g id="Group 1707481468">
    <rect id="Rectangle 33491" x="13.1074" width="45.8793" height="60.6871" rx="8" transform="rotate(10.8734 13.1074 0)" fill="white" />
    <rect
      id="Rectangle 33492"
      x="37.6328"
      y="55.8242"
      width="25.1945"
      height="17.65"
      rx="8"
      transform="rotate(-1.53055 37.6328 55.8242)"
      fill="#B7A0FF"
    />
    <path
      id="Vector"
      fill-rule="evenodd"
      clip-rule="evenodd"
      d="M14.6175 6.81657C14.1439 6.57761 13.6208 6.45312 13.0903 6.45312C12.5598 6.45313 12.0368 6.57761 11.5631 6.81657C11.0439 7.21364 9.60832 10.7567 7.77568 24.0128C7.1648 28.1363 6.06521 31.9237 5.33216 35.5585C4.44638 39.5597 3.74387 43.3777 2.94973 46.9819C2.15559 49.6414 1.51313 52.3438 1.02545 55.0761C0.941077 55.518 0.97582 55.9744 1.12612 56.3985C1.27641 56.8225 1.53685 57.1989 1.88069 57.4891C4.67845 58.5672 7.57296 59.3752 10.5246 59.902C18.1912 61.582 28.5151 63.2313 30.1644 63.659C30.4232 63.7039 30.6894 63.6461 30.9062 63.4978C31.1229 63.3494 31.2733 63.1223 31.3251 62.8648C31.3695 62.6097 31.3108 62.3473 31.1619 62.1354C31.013 61.9236 30.786 61.7794 30.531 61.7347C28.8205 61.3376 18.741 59.1384 11.2272 57.1531C8.17275 56.3589 5.66814 55.6564 4.29366 55.1066C4.66019 52.8464 6.09576 48.0204 6.18739 47.6844C6.70664 45.2104 7.25643 42.6447 7.71459 39.9263C9.27234 31.099 10.5246 20.989 12.9376 8.92411V8.77139C13.2744 8.96269 13.621 9.13601 13.9761 9.29063C14.3192 9.42826 14.7021 9.42826 15.0452 9.29063C15.2447 9.13003 15.3977 8.91896 15.4882 8.6793C15.5787 8.43964 15.6034 8.18013 15.5598 7.9277C15.5161 7.67527 15.4058 7.43911 15.2401 7.24373C15.0744 7.04835 14.8594 6.90086 14.6175 6.81657Z"
      fill="black"
    />
    <path
      id="Vector_2"
      fill-rule="evenodd"
      clip-rule="evenodd"
      d="M55.5468 29.9084C55.7912 28.87 55.9744 27.862 56.1577 26.854C56.341 25.8461 56.4326 24.8076 56.5548 23.7996C56.7991 21.6005 56.9518 19.2791 57.1656 16.5302C57.211 16.3601 57.211 16.181 57.1656 16.0109C57.1656 16.0109 57.41 15.7666 57.4405 15.6139C57.4764 15.4748 57.4821 15.3297 57.4573 15.1883C57.4326 15.0469 57.3778 14.9124 57.2969 14.7938C57.2159 14.6752 57.1105 14.5753 56.9878 14.5008C56.8651 14.4262 56.7279 14.3788 56.5853 14.3616C55.7912 13.995 55.333 13.9339 54.5083 13.6285C54.0022 13.5509 53.4872 13.5509 52.9811 13.6285C52.2175 13.6285 51.179 15.7666 51.9121 15.9193C52.9941 16.1063 54.0849 16.2388 55.1803 16.3164C54.5389 18.9432 53.9585 21.1423 53.4698 23.2193C53.256 24.2578 53.0422 25.2658 52.8589 26.2737C52.6757 27.2817 52.523 28.2896 52.4313 29.3281C52.187 31.4967 52.0953 33.8181 51.9121 36.5976C51.8901 36.7101 51.891 36.8258 51.9147 36.938C51.9384 37.0501 51.9843 37.1563 52.0499 37.2503C52.1154 37.3444 52.1991 37.4243 52.2962 37.4853C52.3932 37.5463 52.5015 37.5872 52.6146 37.6055C52.8398 37.6341 53.0675 37.578 53.2537 37.4482C53.44 37.3184 53.5714 37.1242 53.6225 36.903C53.8058 36.2005 55.3025 30.8859 55.5468 29.9084Z"
      fill="black"
    />
    <path
      id="Vector_3"
      fill-rule="evenodd"
      clip-rule="evenodd"
      d="M64.0079 13.5674C63.771 12.4465 63.2682 11.3989 62.5418 10.513C61.8158 9.49067 60.8205 8.68964 59.6666 8.19896C58.5127 7.70828 57.2453 7.54716 56.0053 7.73353L54.8752 7.51972C51.4237 6.8172 48.9191 6.02306 45.4982 5.25946C44.2764 4.98457 42.9325 4.77076 41.4053 4.49586C39.8781 4.22097 37.6789 3.94607 35.7547 3.73226C22.7124 2.35778 22.4069 1.04439 18.8944 4.09879C18.4917 4.4172 18.1323 4.78686 17.8253 5.19837C17.5288 5.65332 17.2732 6.13374 17.0617 6.63394C16.7443 7.56276 16.4892 8.51173 16.2981 9.47453C14.8015 17.416 13.0605 25.8156 10.6169 39.0717C10.281 40.9043 9.12029 43.806 8.75376 46.3717C8.52025 47.6399 8.57242 48.9442 8.90648 50.1897C9.16062 50.7133 9.53295 51.1708 9.9941 51.5259C10.4553 51.881 10.9926 52.1242 11.5638 52.2361C15.0153 53.2135 23.0484 53.5495 29.4626 54.8018C29.7136 54.8567 29.9761 54.8106 30.1933 54.6734C30.4105 54.5362 30.565 54.319 30.6233 54.0688C30.655 53.9424 30.6611 53.8109 30.6412 53.6821C30.6214 53.5533 30.5759 53.4298 30.5076 53.3188C30.4393 53.2078 30.3495 53.1116 30.2435 53.0358C30.1375 52.96 30.0173 52.9062 29.8902 52.8776C25.4613 51.7169 20.055 51.0144 16.2981 50.2508C14.1601 49.8537 11.3195 49.6399 11.8387 48.9679C11.8387 48.9679 12.022 49.2123 12.0525 49.3345C11.8858 48.1899 11.9692 47.0228 12.2969 45.9135C12.8161 43.7144 13.6408 41.3625 14.0073 39.8047C14.5877 37.2085 15.2902 34.6122 15.6567 31.9855C18.7111 11.3683 18.2224 12.8649 19.9023 8.52767C20.2383 7.67244 21.1241 5.47327 22.4069 4.98457C25.7702 5.00884 29.1202 5.40839 32.3948 6.17578C35.1743 6.72557 37.9844 7.15319 40.8861 7.73353C45.2233 8.28332 48.0028 8.86365 51.0878 9.32181L52.3706 9.50508C48.6748 12.5595 48.7664 14.2394 45.8647 24.7771C45.5898 25.6934 45.4066 26.6403 45.2233 27.5871C45.04 28.534 44.8873 29.4503 44.7651 30.3972C44.4902 32.6269 44.307 34.8566 44.1237 37.0863C44.102 37.2149 44.1063 37.3464 44.1362 37.4733C44.1661 37.6002 44.2211 37.7198 44.298 37.8251C44.3748 37.9304 44.4719 38.0193 44.5836 38.0865C44.6954 38.1537 44.8194 38.1979 44.9484 38.2164C45.2036 38.2608 45.4659 38.2021 45.6778 38.0532C45.8897 37.9043 46.0338 37.6774 46.0785 37.4223C46.6283 35.2537 47.2698 33.1461 47.8195 31.0081C48.0639 30.0612 48.2777 29.1449 48.4915 28.2285C48.7053 27.3122 48.8275 26.3654 48.9497 25.4185C49.273 21.7969 50.1059 18.2391 51.4237 14.8503C51.7957 13.4672 52.6661 12.2705 53.8673 11.4904C54.3263 11.1024 54.8626 10.8164 55.4405 10.6511C56.0184 10.4858 56.6248 10.4452 57.2196 10.5318C57.8144 10.6184 58.3841 10.8303 58.8908 11.1536C59.3976 11.4768 59.83 11.9039 60.1593 12.4068C60.6449 13.114 60.9395 13.9346 61.0146 14.7892C61.1187 15.8047 61.1187 16.8281 61.0146 17.8436C61.0146 19.6762 60.7397 21.57 60.4953 23.4637C60.251 25.3574 59.9455 27.2511 59.5485 29.0532L58.6016 32.8102C58.5091 33.0373 58.4375 33.2725 58.3878 33.5127C58.1353 33.5585 57.8767 33.5585 57.6242 33.5127C57.2169 33.4933 56.815 33.4109 56.433 33.2683C55.3028 33.2683 54.753 34.7344 55.7915 35.1926C56.4614 35.5139 57.1878 35.7007 57.9296 35.7424C58.635 35.7946 59.3415 35.6576 59.9761 35.3453C60.2515 35.199 60.4675 34.9614 60.5869 34.6733C60.7378 34.2544 60.8602 33.8258 60.9535 33.3905L62.1141 29.8168C62.7072 27.9229 63.1866 25.9952 63.5497 24.044C63.9053 22.0934 64.1602 20.1258 64.3133 18.149C64.4248 16.6151 64.322 15.073 64.0079 13.5674Z"
      fill="black"
    />
    <path
      id="Vector_4"
      fill-rule="evenodd"
      clip-rule="evenodd"
      d="M45.7733 17.8158C45.8313 17.5612 45.7912 17.294 45.661 17.0675C45.5308 16.8411 45.32 16.6721 45.0708 16.5941C42.2913 15.6472 39.5117 14.7309 36.6101 14.0284C35.3883 13.7229 34.136 13.4786 32.8837 13.2648C31.6314 13.051 30.4096 12.8983 29.1268 12.7761C26.0724 12.5623 23.2318 12.5928 20.2996 12.7761C20.0727 12.7761 19.8552 12.8662 19.6948 13.0266C19.5344 13.187 19.4443 13.4045 19.4443 13.6313C19.4443 13.8581 19.5344 14.0757 19.6948 14.236C19.8552 14.3964 20.0727 14.4865 20.2996 14.4865C23.5678 14.9447 26.7749 15.6778 30.0431 16.2581C31.9979 16.6246 33.9527 16.869 35.9076 17.1744C38.962 17.6326 41.772 18.0296 44.6737 18.6405C44.926 18.6607 45.177 18.588 45.3794 18.4361C45.5819 18.2843 45.722 18.0637 45.7733 17.8158Z"
      fill="black"
    />
    <path
      id="Vector_5"
      fill-rule="evenodd"
      clip-rule="evenodd"
      d="M39.8156 27.7098C39.9205 27.4702 39.9281 27.1993 39.8369 26.9543C39.7457 26.7092 39.5628 26.5092 39.3269 26.3964C38.6645 26.0436 37.9688 25.7571 37.2499 25.5412C36.2115 25.2357 35.1424 25.0219 34.1955 24.7776C33.2487 24.5332 32.6378 24.411 31.8437 24.3194C30.6691 24.1678 29.4845 24.1065 28.3006 24.1362C26.3057 24.2651 24.3299 24.603 22.4056 25.1441C22.1788 25.1887 21.9772 25.3173 21.8413 25.5043C21.7053 25.6912 21.6451 25.9226 21.6725 26.1521C21.7102 26.3764 21.8326 26.5776 22.0146 26.7141C22.1966 26.8505 22.424 26.9118 22.6499 26.8851H24.9102C26.4374 26.8851 27.9646 27.2516 29.3696 27.4044C30.7746 27.5571 32.424 27.4044 33.8596 27.7098H36.914C37.505 27.757 38.0889 27.8696 38.655 28.0458C38.8588 28.1227 39.082 28.1316 39.2912 28.071C39.5005 28.0104 39.6845 27.8837 39.8156 27.7098Z"
      fill="black"
    />
    <path
      id="Vector_6"
      fill-rule="evenodd"
      clip-rule="evenodd"
      d="M31.8135 35.2844C30.9794 35.0377 30.1333 34.8338 29.2783 34.6736C28.4288 34.5351 27.5723 34.4433 26.7126 34.3987C24.6716 34.3449 22.6294 34.447 20.6038 34.7041C20.4009 34.7423 20.2177 34.8502 20.0858 35.0091C19.954 35.1681 19.8818 35.3681 19.8818 35.5746C19.8818 35.7811 19.954 35.9811 20.0858 36.1401C20.2177 36.299 20.4009 36.4069 20.6038 36.4451C22.8336 36.7505 24.9105 37.3003 27.0486 37.6974C28.3315 37.9418 29.5838 38.0945 30.8972 38.3083C32.852 38.5832 34.7763 38.8275 36.7311 39.2552C36.9822 39.3326 37.2537 39.3089 37.4877 39.1891C37.7216 39.0693 37.8995 38.8628 37.9834 38.6137C38.0609 38.3626 38.0371 38.0911 37.9173 37.8571C37.7975 37.6232 37.591 37.4453 37.342 37.3614C35.5398 36.5654 33.694 35.872 31.8135 35.2844Z"
      fill="black"
    />
    <path
      id="Vector_7"
      d="M61.4506 53.3649L60.7005 53.1496C60.8584 51.5108 60.7993 49.8583 60.5248 48.2349C60.1264 46.0823 59.166 44.0734 57.7408 42.4116C56.7276 41.3849 55.4832 40.6157 54.1118 40.1684C52.7404 39.7211 51.2818 39.6087 49.8581 39.8406C48.4186 40.0448 47.0518 40.6014 45.8791 41.461C44.7065 42.3205 43.7643 43.4564 43.1362 44.7677C42.6199 45.9898 42.3403 47.2988 42.3122 48.6252C42.2882 50.4039 42.4092 52.1816 42.674 53.9406L40.9589 54.1785L40.7872 54.2349C40.6426 54.244 40.5037 54.2948 40.3875 54.3813C40.2712 54.4677 40.1825 54.5861 40.1322 54.722C39.5572 56.1753 39.1431 57.6873 38.8974 59.2308C38.6196 60.7512 38.4442 62.2886 38.3724 63.8324C38.0565 65.7028 37.961 67.6036 38.0878 69.4962C38.2139 70.4835 38.6144 71.4156 39.244 72.1865C39.8688 72.89 40.6531 73.4334 41.5312 73.7713C42.692 74.1961 43.9042 74.4646 45.1359 74.5698C47.2608 74.8309 49.402 74.9352 51.5423 74.8818C53.6793 74.826 55.8101 74.6248 57.9198 74.2795C59.0614 74.1295 60.1842 73.8606 61.2698 73.4771C62.1133 73.1711 62.8809 72.6871 63.5204 72.0579C64.4035 71.1758 64.9804 70.0338 65.1664 68.7995C65.3053 67.2461 65.3008 65.6831 65.153 64.1304C65.222 61.5106 64.9111 58.8946 64.2299 56.3639C64.0143 55.6911 63.6537 55.0738 63.1735 54.5556C62.6932 54.0374 62.1051 53.6309 61.4506 53.3649ZM44.2464 48.723C44.3634 47.6588 44.6894 46.6283 45.2058 45.6904C45.7393 44.8102 46.4733 44.0687 47.348 43.5261C48.2226 42.9836 49.2131 42.6554 50.2387 42.5685C51.2469 42.3938 52.2817 42.4538 53.263 42.7438C54.2442 43.0338 55.1454 43.546 55.8967 44.2406C57.1318 45.4494 58.0096 46.9754 58.4335 48.6508C58.7898 50.0324 58.965 51.4544 58.9548 52.8812C58.2337 52.851 57.5115 52.8617 56.7915 52.9131L52.3495 53.2866C50.0388 53.4485 47.7775 53.5127 45.5239 53.683L44.0539 53.8402C43.9864 52.1321 44.0508 50.4212 44.2464 48.723ZM62.0841 58.1019C62.3618 60.1139 62.4573 62.1469 62.3693 64.1761C62.5065 65.5334 62.5009 66.9013 62.3525 68.2574C62.2646 68.9428 61.975 69.5865 61.5204 70.1069C61.1321 70.4442 60.6819 70.7029 60.1949 70.8687C59.2909 71.1912 58.3578 71.4252 57.4086 71.5674C55.4162 71.8912 53.4066 72.0982 51.3901 72.1875C49.367 72.3004 47.3387 72.2866 45.3172 72.1462C44.3293 72.0806 43.3537 71.8901 42.4137 71.5792C41.8603 71.3985 41.3579 71.0886 40.9481 70.6752C40.4501 70.0302 40.1883 69.234 40.2064 68.4193C40.166 66.8999 40.2104 65.3795 40.3394 63.865C40.3606 62.3825 40.473 60.9028 40.676 59.4341C40.7912 58.2591 41.0091 57.0964 41.327 55.9594C42.8134 55.7697 44.2995 55.6615 45.72 55.602C47.9978 55.5053 50.2588 55.5228 52.5937 55.4344L56.9286 55.3135C57.7234 55.2802 58.5196 55.2998 59.3119 55.3723C59.7703 55.4325 60.2195 55.5495 60.6491 55.7206C61.0616 55.9736 61.4072 56.3219 61.6569 56.7363C61.9066 57.1507 62.0532 57.6191 62.0841 58.1019Z"
      fill="black"
    />
    <path
      id="Vector_8"
      d="M50.4308 61.7313C47.7287 61.7773 44.9649 64.9412 47.9534 66.6758C51.9353 69.0349 56.2998 61.7309 50.4308 61.7313Z"
      fill="black"
    />
  </g>
</svg>
