<svg width="80" height="80" viewBox="0 0 80 80" fill="none" xmlns="http://www.w3.org/2000/svg">
  <g id="app-window-link--Streamline-Freehand">
    <rect id="Rectangle 33490" x="6" y="13" width="68" height="56" rx="8" fill="white" />
    <rect id="Rectangle 33489" x="6" y="10" width="68" height="56" rx="8" fill="white" />
    <g id="Group">
      <path
        id="Vector"
        fill-rule="evenodd"
        clip-rule="evenodd"
        d="M70.2332 71.6655C70.9665 71.2322 71.5665 69.5655 65.2998 61.6655C63.2687 57.8532 60.8082 54.2856 57.9665 51.0322C55.8665 48.3989 54.8998 46.2322 53.5665 47.6989C52.8332 48.3656 53.1665 48.2989 55.3998 52.7989C57.3063 56.6231 59.7289 60.1673 62.5998 63.3322C61.7332 61.8989 68.4665 72.7989 70.2332 71.6655Z"
        fill="#2AB674"
      />
      <path
        id="Vector_2"
        fill-rule="evenodd"
        clip-rule="evenodd"
        d="M77.2668 68.0324C76.587 66.0895 75.7044 64.2236 74.6335 62.4657C74.0406 61.1141 73.1208 59.9313 71.9571 59.0235C70.7933 58.1158 69.4221 57.5117 67.9668 57.2657C67.8061 57.2265 67.639 57.2219 67.4764 57.2522C67.3138 57.2825 67.1595 57.347 67.0237 57.4415C66.888 57.5359 66.7738 57.6582 66.6889 57.8001C66.604 57.9421 66.5503 58.1004 66.5312 58.2647C66.5122 58.429 66.5283 58.5955 66.5784 58.7531C66.6286 58.9107 66.7117 59.0558 66.8223 59.1788C66.9328 59.3019 67.0683 59.4 67.2196 59.4667C67.371 59.5334 67.5348 59.5671 67.7001 59.5657C71.0335 59.999 73.1668 66.2324 73.8668 68.999C74.5668 71.7657 72.2001 76.1324 68.8335 76.0657C66.8001 76.0657 58.8335 70.6324 59.6001 65.4324L60.6335 64.399C60.8015 64.1824 60.8765 63.908 60.8421 63.6361C60.8077 63.3641 60.6667 63.117 60.4502 62.949C60.2336 62.7811 59.9591 62.706 59.6872 62.7404C59.4153 62.7748 59.1681 62.9158 59.0002 63.1324C58.5002 63.7657 57.7668 63.5324 57.4001 64.9657C55.7001 71.6324 64.0668 79.8324 68.8001 79.999C70.2092 79.9259 71.5833 79.5343 72.8192 78.8535C74.0551 78.1728 75.1206 77.2208 75.9355 76.069C76.7505 74.9172 77.2936 73.5956 77.5242 72.2036C77.7548 70.8116 77.6668 69.3854 77.2668 68.0324Z"
        fill="#2AB674"
      />
      <path
        id="Vector_3"
        fill-rule="evenodd"
        clip-rule="evenodd"
        d="M52 56.3327C50.572 55.0038 49.4368 53.3917 48.6667 51.5994C47.5826 48.9853 47.115 46.1567 47.3 43.3327C47.5979 42.6561 48.0291 42.0464 48.5678 41.5402C49.1066 41.0339 49.7419 40.6415 50.4358 40.3864C51.1297 40.1312 51.8679 40.0186 52.6063 40.0552C53.3447 40.0918 54.0681 40.2769 54.7334 40.5994C56.9941 41.6973 58.9856 43.2791 60.5667 45.2327C62.1667 47.0994 62.4 47.6327 61.9667 50.7661C61.7667 52.1327 63.8334 52.7327 64.9 51.2661C66.9667 48.3994 61.3334 38.5994 54.4 36.5994C52.9332 36.1336 51.3677 36.0732 49.8693 36.4246C48.3709 36.776 46.9955 37.526 45.8886 38.5953C44.7817 39.6646 43.9847 41.0133 43.5818 42.4987C43.1789 43.984 43.1852 45.5507 43.6 47.0327C43.9426 49.2623 44.7263 51.4012 45.9054 53.3243C47.0844 55.2474 48.6351 56.9161 50.4667 58.2327C51.6667 59.0994 54 60.2661 55.3667 59.6661C55.8334 59.1994 57.1667 58.7661 56.6 57.666C55.6334 55.8994 55.2334 59.1661 52 56.3327Z"
        fill="#2AB674"
      />
    </g>
    <g id="Group_2">
      <g id="Group_3">
        <path
          id="Vector_4"
          fill-rule="evenodd"
          clip-rule="evenodd"
          d="M68.4506 23.8215C52.6458 23.8215 45.0609 22.0171 10.9787 23.8215C10.8084 23.8423 10.646 23.9052 10.5061 24.0043C10.3661 24.1035 10.2529 24.2358 10.1768 24.3895V25.0912C10.2301 25.3059 10.3553 25.496 10.5316 25.6297C10.7078 25.7634 10.9246 25.8328 11.1458 25.8263C14.4872 25.8263 21.9719 26.3275 31.1941 26.5948C46.7984 27.0626 58.9945 26.1604 68.5509 25.9265C68.7264 25.9877 68.9143 26.0049 69.098 25.9766C69.2817 25.9483 69.4557 25.8753 69.6047 25.7641C69.7536 25.6528 69.873 25.5067 69.9523 25.3386C70.0317 25.1705 70.0685 24.9855 70.0597 24.7998C70.0508 24.6141 69.9966 24.4334 69.9016 24.2736C69.8067 24.1137 69.6739 23.9797 69.5151 23.8831C69.3563 23.7865 69.1761 23.7304 68.9905 23.7196C68.8049 23.7089 68.6195 23.7439 68.4506 23.8215Z"
          fill="black"
        />
        <path
          id="Vector_5"
          fill-rule="evenodd"
          clip-rule="evenodd"
          d="M7.703 12.7587C7.76503 12.4973 7.72067 12.2219 7.57968 11.9932C7.43869 11.7645 7.21261 11.6011 6.95119 11.5391C6.68976 11.4771 6.4144 11.5214 6.18568 11.6624C5.95696 11.8034 5.79361 12.0295 5.73158 12.2909C3.52626 21.9475 3.3926 56.8651 5.53109 66.1207C5.64895 66.5591 5.85491 66.969 6.13641 67.3251C6.41791 67.6813 6.76905 67.9764 7.16838 68.1924C12.0468 71.1662 31.3935 70.9657 38.5775 70.9991C38.8788 70.9991 39.1677 70.8795 39.3808 70.6664C39.5938 70.4533 39.7135 70.1644 39.7135 69.8631C39.7135 69.5618 39.5938 69.2728 39.3808 69.0597C39.1677 68.8467 38.8788 68.727 38.5775 68.727C29.3216 68.5088 20.1004 67.5141 11.011 65.7532C10.1422 65.4859 9.47394 64.6505 9.07297 64.8176C8.00372 59.4045 5.5311 27.1601 7.703 12.7587Z"
          fill="black"
        />
        <path
          id="Vector_6"
          fill-rule="evenodd"
          clip-rule="evenodd"
          d="M11.2445 12.2934C20.3999 11.7922 56.1528 12.6609 66.5445 13.9975C70.5542 14.4987 70.22 14.2314 70.6544 15.8018C72.4588 22.1839 73.3275 47.5785 73.4946 54.1944C73.4946 54.4603 73.6002 54.7152 73.7882 54.9032C73.9762 55.0912 74.2312 55.1968 74.497 55.1968C74.7629 55.1968 75.0178 55.0912 75.2058 54.9032C75.3938 54.7152 75.4994 54.4603 75.4994 54.1944C75.4994 48.514 75.8336 33.0768 75.4994 27.4633C75.1987 23.3534 75.4994 14.2982 72.7929 11.9592C67.9479 7.48176 18.0943 9.2527 11.0774 9.85415C10.7539 9.8763 10.4525 10.026 10.2395 10.2704C10.0264 10.5148 9.91918 10.8338 9.94134 11.1573C9.96349 11.4808 10.1132 11.7822 10.3576 11.9952C10.602 12.2083 10.921 12.3155 11.2445 12.2934Z"
          fill="black"
        />
        <path
          id="Vector_7"
          fill-rule="evenodd"
          clip-rule="evenodd"
          d="M14.788 19.5108C15.2835 19.9504 15.9312 20.179 16.5929 20.1478C17.2546 20.1166 17.8779 19.828 18.3299 19.3437C18.6064 18.8592 18.6978 18.2908 18.5872 17.7439C18.4766 17.1971 18.1715 16.7089 17.7284 16.3699C15.5565 15.2004 12.7831 17.4725 14.788 19.5108Z"
          fill="black"
        />
        <path
          id="Vector_8"
          fill-rule="evenodd"
          clip-rule="evenodd"
          d="M22.6394 18.71C22.8765 18.9587 23.1617 19.1567 23.4776 19.2919C23.7934 19.4272 24.1335 19.4969 24.4771 19.4969C24.8208 19.4969 25.1608 19.4272 25.4767 19.2919C25.7926 19.1567 26.0777 18.9587 26.3149 18.71C26.6168 18.2122 26.7192 17.6185 26.6014 17.0483C26.4836 16.478 26.1545 15.9735 25.68 15.636C23.4079 14.3996 20.6011 16.6718 22.6394 18.71Z"
          fill="black"
        />
        <path
          id="Vector_9"
          fill-rule="evenodd"
          clip-rule="evenodd"
          d="M31.195 18.71C31.4322 18.9587 31.7173 19.1567 32.0332 19.2919C32.3491 19.4272 32.6892 19.4969 33.0328 19.4969C33.3764 19.4969 33.7165 19.4272 34.0324 19.2919C34.3483 19.1567 34.6334 18.9587 34.8706 18.71C35.1725 18.2122 35.2748 17.6185 35.1571 17.0483C35.0393 16.478 34.7101 15.9735 34.2357 15.636C31.9635 14.3996 29.1568 16.6718 31.195 18.71Z"
          fill="black"
        />
      </g>
    </g>
  </g>
</svg>
