<svg viewBox="0 0 277 160" fill="none" xmlns="http://www.w3.org/2000/svg">
  <rect width="277" height="100" rx="8" fill="white" />
  <rect x="16" y="16" width="72" height="16" rx="8" fill="#D9D9D9" />
  <rect x="92" y="16" width="169" height="16" rx="8" fill="#D9D9D9" />
  <rect x="16" y="42" width="51" height="16" rx="8" fill="#D9D9D9" />
  <rect x="71" y="42" width="45" height="16" rx="8" fill="#FF7C7C" />
  <rect x="120" y="42" width="141" height="16" rx="8" fill="#D9D9D9" />
  <rect x="16" y="68" width="42" height="16" rx="8" fill="#D9D9D9" />
  <rect x="62" y="68" width="97.5" height="16" rx="8" fill="#D9D9D9" />
  <rect x="163.5" y="68" width="97.5" height="16" rx="8" fill="#D9D9D9" />
  <rect y="112" width="277" height="48" rx="8" fill="white" />
  <rect x="16" y="128" width="45" height="16" rx="8" fill="#FF7C7C" />
  <path
    d="M65 135.5C64.7239 135.5 64.5 135.724 64.5 136C64.5 136.276 64.7239 136.5 65 136.5V135.5ZM75.3536 136.354C75.5488 136.158 75.5488 135.842 75.3536 135.646L72.1716 132.464C71.9763 132.269 71.6597 132.269 71.4645 132.464C71.2692 132.66 71.2692 132.976 71.4645 133.172L74.2929 136L71.4645 138.828C71.2692 139.024 71.2692 139.34 71.4645 139.536C71.6597 139.731 71.9763 139.731 72.1716 139.536L75.3536 136.354ZM65 136.5H75V135.5H65V136.5Z"
    fill="#282738"
  />
  <rect x="79" y="128" width="45" height="16" rx="8" fill="#4ADCA2" />
</svg>
