<svg viewBox="0 0 238 258" fill="none" xmlns="http://www.w3.org/2000/svg">
  <g filter="url(#filter0_dd_348_1628)">
    <rect x="24" y="12" width="190" height="209.939" rx="8" fill="black" shape-rendering="crispEdges" />
    <path
      d="M44.8334 29.984H48.6974V30.6H47.1694V30.656C47.1694 31.52 47.8334 32.344 48.9214 32.672L48.5294 33.28C47.7134 33.032 47.1054 32.496 46.7854 31.816C46.4734 32.544 45.8574 33.128 45.0094 33.4L44.6174 32.784C45.7294 32.448 46.3694 31.576 46.3694 30.656V30.6H44.8334V29.984ZM49.5934 29.544H50.3854V33.384H49.5934V29.544ZM45.7694 33.712H46.5454V34.48H49.6094V33.712H50.3854V36.536H45.7694V33.712ZM46.5454 35.096V35.896H49.6094V35.096H46.5454ZM51.5536 32.824H57.9456V33.456H55.1376V34.12C56.4176 34.192 57.1776 34.632 57.1776 35.368C57.1776 36.168 56.2656 36.616 54.7456 36.616C53.2256 36.616 52.3056 36.168 52.3056 35.368C52.3056 34.632 53.0656 34.192 54.3536 34.12V33.456H51.5536V32.824ZM54.7456 34.712C53.6896 34.712 53.0976 34.936 53.0976 35.368C53.0976 35.792 53.6896 36.016 54.7456 36.016C55.7936 36.016 56.3856 35.792 56.3856 35.368C56.3856 34.936 55.7936 34.712 54.7456 34.712ZM52.1376 29.864H57.3776V30.488H55.2896C55.4016 31.144 56.3296 31.712 57.6256 31.832L57.3456 32.456C56.1136 32.32 55.1296 31.808 54.7536 31.064C54.3696 31.808 53.3936 32.32 52.1536 32.456L51.8736 31.832C53.1696 31.712 54.1056 31.144 54.2176 30.488H52.1376V29.864ZM60.3896 35.104H63.1976V33.488H61.1096V30.104H66.0536V33.488H63.9736V35.104H66.8056V35.744H60.3896V35.104ZM65.2856 30.728H61.8776V32.864H65.2856V30.728ZM68.1738 30.16H73.0058V30.808H68.9498V32.888H73.0778V33.52H68.1738V30.16ZM67.3818 35.056H73.7978V35.704H67.3818V35.056ZM76.7617 33.112C76.7617 32.08 77.1697 30.72 77.7377 29.816H78.5537C77.9057 30.712 77.4497 32.072 77.4497 33.112C77.4497 34.152 77.9057 35.512 78.5537 36.408H77.7377C77.1697 35.504 76.7617 34.144 76.7617 33.112ZM81.5023 30.216V36.016L80.7423 36.008V31.04L79.7663 31.624L79.4223 31L80.7503 30.216H81.5023ZM85.1209 29.84L83.4249 36.432H82.6649L84.3689 29.84H85.1209ZM89.4084 30.208V33.808H90.1844V34.472H89.4084V36.016H88.6484V34.472H86.1364L86.0564 33.808L88.6804 30.208H89.4084ZM86.9684 33.808H88.6484V31.488L86.9684 33.808ZM92.8978 33.112C92.8978 34.144 92.4978 35.496 91.9298 36.408H91.1138C91.7538 35.52 92.2098 34.152 92.2098 33.112C92.2098 32.072 91.7538 30.704 91.1138 29.816H91.9298C92.4978 30.728 92.8978 32.08 92.8978 33.112Z"
      fill="#A5A4A4"
    />
    <path
      d="M162.122 29.544H162.906V32.496H163.93V33.16H162.906V36.624H162.122V29.544ZM157.306 34.688C157.85 34.688 158.49 34.688 159.146 34.672V33.96C158.37 33.84 157.85 33.36 157.85 32.68C157.85 31.888 158.546 31.36 159.538 31.36C160.538 31.36 161.234 31.888 161.234 32.68C161.234 33.36 160.714 33.848 159.93 33.96V34.64C160.538 34.608 161.146 34.56 161.714 34.48L161.778 35.048C160.266 35.336 158.626 35.336 157.418 35.336L157.306 34.688ZM157.434 30.368H159.146V29.568H159.93V30.368H161.642V31H157.434V30.368ZM159.538 31.96C158.97 31.96 158.594 32.232 158.594 32.68C158.594 33.12 158.97 33.392 159.538 33.392C160.114 33.392 160.49 33.12 160.49 32.68C160.49 32.232 160.114 31.96 159.538 31.96ZM164.69 30.136H167.962V30.744H169.45V29.552H170.234V34.704H169.45V32.896H167.962V33.512H164.69V30.136ZM167.194 30.768H165.458V32.88H167.194V30.768ZM165.634 34.232H166.426V35.84H170.394V36.48H165.634V34.232ZM167.962 32.256H169.45V31.376H167.962V32.256ZM177.902 29.536H178.694V32.352H179.774V33H178.694V36.624H177.902V29.536ZM176.846 30.288C176.846 32.344 175.966 34.16 173.654 35.32L173.214 34.72C174.958 33.832 175.902 32.568 176.054 30.928H173.566V30.288H176.846ZM185.254 29.536H186.038V36.632H185.254V29.536ZM180.59 30.184H183.886V32.792H181.398V34.296C182.526 34.288 183.51 34.248 184.654 34.056L184.734 34.688C183.502 34.904 182.446 34.944 181.206 34.944H180.606V32.152H183.094V30.816H180.59V30.184ZM192.246 29.544H193.03V36.624H192.246V29.544ZM190.942 30.288C190.942 32.384 190.094 34.168 187.662 35.352L187.254 34.728C189.118 33.832 189.99 32.576 190.134 30.928H187.59V30.288H190.942Z"
      fill="#A5A4A4"
    />
    <path
      d="M99.2739 48.728H104.587V49.575H102.486V49.652C102.486 50.84 103.399 51.973 104.895 52.424L104.356 53.26C103.234 52.919 102.398 52.182 101.958 51.247C101.529 52.248 100.682 53.051 99.5159 53.425L98.9769 52.578C100.506 52.116 101.386 50.917 101.386 49.652V49.575H99.2739V48.728ZM105.819 48.123H106.908V53.403H105.819V48.123ZM100.561 53.854H101.628V54.91H105.841V53.854H106.908V57.737H100.561V53.854ZM101.628 55.757V56.857H105.841V55.757H101.628ZM108.514 52.633H117.303V53.502H113.442V54.415C115.202 54.514 116.247 55.119 116.247 56.131C116.247 57.231 114.993 57.847 112.903 57.847C110.813 57.847 109.548 57.231 109.548 56.131C109.548 55.119 110.593 54.514 112.364 54.415V53.502H108.514V52.633ZM112.903 55.229C111.451 55.229 110.637 55.537 110.637 56.131C110.637 56.714 111.451 57.022 112.903 57.022C114.344 57.022 115.158 56.714 115.158 56.131C115.158 55.537 114.344 55.229 112.903 55.229ZM109.317 48.563H116.522V49.421H113.651C113.805 50.323 115.081 51.104 116.863 51.269L116.478 52.127C114.784 51.94 113.431 51.236 112.914 50.213C112.386 51.236 111.044 51.94 109.339 52.127L108.954 51.269C110.736 51.104 112.023 50.323 112.177 49.421H109.317V48.563ZM120.664 55.768H124.525V53.546H121.654V48.893H128.452V53.546H125.592V55.768H129.486V56.648H120.664V55.768ZM127.396 49.751H122.71V52.688H127.396V49.751ZM131.367 48.97H138.011V49.861H132.434V52.721H138.11V53.59H131.367V48.97ZM130.278 55.702H139.1V56.593H130.278V55.702Z"
      fill="white"
    />
    <circle cx="117.431" cy="124.97" r="48.9697" stroke="white" stroke-width="3" stroke-linecap="round" stroke-dasharray="0.2 10" />
    <path d="M166.4 124.97C166.4 97.9245 144.476 76 117.431 76" stroke="#B7A0FF" stroke-width="3.2" stroke-linecap="round" />
    <path
      d="M102.434 119.432V131.032L100.914 131.016V121.08L98.9623 122.248L98.2743 121L100.93 119.432H102.434ZM108.823 120.616C107.367 120.616 106.359 121.656 106.359 123.144C106.359 124.632 107.367 125.672 108.823 125.672C110.231 125.672 111.239 124.632 111.239 123.144C111.239 121.656 110.231 120.616 108.823 120.616ZM112.759 123.144C112.759 123.976 112.471 124.728 112.135 125.336L108.903 131.048H107.159L109.511 126.92C109.271 126.968 109.031 127 108.775 127C106.455 127 104.839 125.4 104.839 123.144C104.839 120.872 106.471 119.288 108.791 119.288C111.127 119.288 112.759 120.872 112.759 123.144ZM115.922 121.64C116.434 121.64 116.786 121.992 116.786 122.504C116.786 123.016 116.434 123.384 115.922 123.384C115.426 123.384 115.058 123.016 115.058 122.504C115.058 121.992 115.426 121.64 115.922 121.64ZM115.922 127.016C116.434 127.016 116.786 127.384 116.786 127.88C116.786 128.392 116.434 128.76 115.922 128.76C115.426 128.76 115.058 128.392 115.058 127.88C115.058 127.384 115.426 127.016 115.922 127.016ZM119.25 129.704C121.57 127.464 124.85 125.016 124.85 123.016C124.85 121.64 123.986 120.664 122.738 120.664C121.81 120.664 120.866 121.352 120.434 122.328L119.09 121.752C119.714 120.296 121.234 119.288 122.738 119.288C124.882 119.288 126.37 120.824 126.37 123.016C126.37 125.464 123.57 127.768 121.362 129.704H126.562V131.032H119.41L119.25 129.704ZM130.935 131.048H129.287L133.879 120.712L128.439 120.728V119.384H135.367L135.527 120.712L130.935 131.048Z"
      fill="white"
    />
    <path
      d="M107.087 104.544H107.871V106.112H108.879V106.76H107.871V108.544H107.087V104.544ZM103.359 108.904H107.871V111.528H103.359V108.904ZM107.103 109.52H104.127V110.904H107.103V109.52ZM102.671 104.888H103.455V107.416C104.391 107.408 105.375 107.336 106.431 107.128L106.519 107.76C105.343 108 104.271 108.072 103.239 108.072H102.671V104.888ZM109.335 108.224H115.727V108.856H109.335V108.224ZM110.143 109.424H110.927V110.848H115.015V111.488H110.143V109.424ZM112.535 104.768C114.055 104.768 115.055 105.312 115.055 106.2C115.055 107.096 114.055 107.632 112.535 107.632C111.007 107.632 110.015 107.096 110.015 106.2C110.015 105.312 111.007 104.768 112.535 104.768ZM112.535 105.408C111.479 105.408 110.823 105.696 110.823 106.2C110.823 106.712 111.479 107 112.535 107C113.591 107 114.239 106.712 114.239 106.2C114.239 105.696 113.591 105.408 112.535 105.408ZM119.971 105.136H120.763V106.304C120.763 107.608 121.499 108.912 122.603 109.408L122.139 110.04C121.331 109.648 120.707 108.864 120.379 107.904C120.051 108.936 119.427 109.776 118.579 110.184L118.107 109.536C119.219 109.024 119.971 107.664 119.971 106.304V105.136ZM123.195 104.536H123.979V111.632H123.195V104.536ZM129.899 104.544H130.683V106.624H131.691V107.272H130.683V109.672H129.899V104.544ZM128.787 105.088C128.787 106.952 127.539 108.288 125.475 108.912L125.147 108.288C126.779 107.8 127.795 106.864 127.931 105.72H125.443V105.088H128.787ZM126.211 109.152H126.995V110.84H130.971V111.48H126.211V109.152Z"
      fill="#A5A4A4"
    />
    <circle cx="166.44" cy="125.008" r="3.1" fill="#B7A0FF" />
    <circle cx="103" cy="197.939" r="8" fill="#B7A0FF" />
    <path d="M101 194.939V201.439" stroke="white" />
    <path d="M105 194.939V201.439" stroke="white" />
    <circle cx="135" cy="197.939" r="8" fill="#A5A4A4" />
    <circle cx="132.227" cy="197.94" r="0.727273" fill="white" />
    <circle cx="132.227" cy="197.94" r="0.727273" fill="white" />
    <circle cx="135.182" cy="197.94" r="0.727273" fill="white" />
    <circle cx="135.182" cy="197.94" r="0.727273" fill="white" />
    <circle cx="138.136" cy="197.94" r="0.727273" fill="white" />
    <circle cx="138.136" cy="197.94" r="0.727273" fill="white" />
  </g>
  <defs>
    <filter
      id="filter0_dd_348_1628"
      x="0"
      y="0"
      width="238"
      height="257.939"
      filterUnits="userSpaceOnUse"
      color-interpolation-filters="sRGB"
    >
      <feFlood flood-opacity="0" result="BackgroundImageFix" />
      <feColorMatrix in="SourceAlpha" type="matrix" values="0 0 0 0 0 0 0 0 0 0 0 0 0 0 0 0 0 0 127 0" result="hardAlpha" />
      <feOffset dy="12" />
      <feGaussianBlur stdDeviation="12" />
      <feColorMatrix type="matrix" values="0 0 0 0 0 0 0 0 0 0 0 0 0 0 0 0 0 0 0.03 0" />
      <feBlend mode="normal" in2="BackgroundImageFix" result="effect1_dropShadow_348_1628" />
      <feColorMatrix in="SourceAlpha" type="matrix" values="0 0 0 0 0 0 0 0 0 0 0 0 0 0 0 0 0 0 127 0" result="hardAlpha" />
      <feOffset dy="8" />
      <feGaussianBlur stdDeviation="6" />
      <feComposite in2="hardAlpha" operator="out" />
      <feColorMatrix type="matrix" values="0 0 0 0 0 0 0 0 0 0 0 0 0 0 0 0 0 0 0.03 0" />
      <feBlend mode="normal" in2="effect1_dropShadow_348_1628" result="effect2_dropShadow_348_1628" />
      <feBlend mode="normal" in="SourceGraphic" in2="effect2_dropShadow_348_1628" result="shape" />
    </filter>
  </defs>
</svg>
