<svg viewBox="0 0 238 259" fill="none" xmlns="http://www.w3.org/2000/svg">
  <g filter="url(#filter0_dd_430_4351)">
    <rect x="24" y="12.8945" width="190" height="209.939" rx="8" fill="white" shape-rendering="crispEdges" />
    <path
      d="M44.8334 30.8785H48.6974V31.4945H47.1694V31.5505C47.1694 32.4145 47.8334 33.2385 48.9214 33.5665L48.5294 34.1745C47.7134 33.9265 47.1054 33.3905 46.7854 32.7105C46.4734 33.4385 45.8574 34.0225 45.0094 34.2945L44.6174 33.6785C45.7294 33.3425 46.3694 32.4705 46.3694 31.5505V31.4945H44.8334V30.8785ZM49.5934 30.4385H50.3854V34.2785H49.5934V30.4385ZM45.7694 34.6065H46.5454V35.3745H49.6094V34.6065H50.3854V37.4305H45.7694V34.6065ZM46.5454 35.9905V36.7905H49.6094V35.9905H46.5454ZM51.5536 33.7185H57.9456V34.3505H55.1376V35.0145C56.4176 35.0865 57.1776 35.5265 57.1776 36.2625C57.1776 37.0625 56.2656 37.5105 54.7456 37.5105C53.2256 37.5105 52.3056 37.0625 52.3056 36.2625C52.3056 35.5265 53.0656 35.0865 54.3536 35.0145V34.3505H51.5536V33.7185ZM54.7456 35.6065C53.6896 35.6065 53.0976 35.8305 53.0976 36.2625C53.0976 36.6865 53.6896 36.9105 54.7456 36.9105C55.7936 36.9105 56.3856 36.6865 56.3856 36.2625C56.3856 35.8305 55.7936 35.6065 54.7456 35.6065ZM52.1376 30.7585H57.3776V31.3825H55.2896C55.4016 32.0385 56.3296 32.6065 57.6256 32.7265L57.3456 33.3505C56.1136 33.2145 55.1296 32.7025 54.7536 31.9585C54.3696 32.7025 53.3936 33.2145 52.1536 33.3505L51.8736 32.7265C53.1696 32.6065 54.1056 32.0385 54.2176 31.3825H52.1376V30.7585ZM60.3896 35.9985H63.1976V34.3825H61.1096V30.9985H66.0536V34.3825H63.9736V35.9985H66.8056V36.6385H60.3896V35.9985ZM65.2856 31.6225H61.8776V33.7585H65.2856V31.6225ZM68.1738 31.0545H73.0058V31.7025H68.9498V33.7825H73.0778V34.4145H68.1738V31.0545ZM67.3818 35.9505H73.7978V36.5985H67.3818V35.9505ZM76.7617 34.0065C76.7617 32.9745 77.1697 31.6145 77.7377 30.7105H78.5537C77.9057 31.6065 77.4497 32.9665 77.4497 34.0065C77.4497 35.0465 77.9057 36.4065 78.5537 37.3025H77.7377C77.1697 36.3985 76.7617 35.0385 76.7617 34.0065ZM81.5023 31.1105V36.9105L80.7423 36.9025V31.9345L79.7663 32.5185L79.4223 31.8945L80.7503 31.1105H81.5023ZM85.1209 30.7345L83.4249 37.3265H82.6649L84.3689 30.7345H85.1209ZM89.4084 31.1025V34.7025H90.1844V35.3665H89.4084V36.9105H88.6484V35.3665H86.1364L86.0564 34.7025L88.6804 31.1025H89.4084ZM86.9684 34.7025H88.6484V32.3825L86.9684 34.7025ZM92.8978 34.0065C92.8978 35.0385 92.4978 36.3905 91.9298 37.3025H91.1138C91.7538 36.4145 92.2098 35.0465 92.2098 34.0065C92.2098 32.9665 91.7538 31.5985 91.1138 30.7105H91.9298C92.4978 31.6225 92.8978 32.9745 92.8978 34.0065Z"
      fill="#A5A4A4"
    />
    <path
      d="M162.122 30.4385H162.906V33.3905H163.93V34.0545H162.906V37.5185H162.122V30.4385ZM157.306 35.5825C157.85 35.5825 158.49 35.5825 159.146 35.5665V34.8545C158.37 34.7345 157.85 34.2545 157.85 33.5745C157.85 32.7825 158.546 32.2545 159.538 32.2545C160.538 32.2545 161.234 32.7825 161.234 33.5745C161.234 34.2545 160.714 34.7425 159.93 34.8545V35.5345C160.538 35.5025 161.146 35.4545 161.714 35.3745L161.778 35.9425C160.266 36.2305 158.626 36.2305 157.418 36.2305L157.306 35.5825ZM157.434 31.2625H159.146V30.4625H159.93V31.2625H161.642V31.8945H157.434V31.2625ZM159.538 32.8545C158.97 32.8545 158.594 33.1265 158.594 33.5745C158.594 34.0145 158.97 34.2865 159.538 34.2865C160.114 34.2865 160.49 34.0145 160.49 33.5745C160.49 33.1265 160.114 32.8545 159.538 32.8545ZM164.69 31.0305H167.962V31.6385H169.45V30.4465H170.234V35.5985H169.45V33.7905H167.962V34.4065H164.69V31.0305ZM167.194 31.6625H165.458V33.7745H167.194V31.6625ZM165.634 35.1265H166.426V36.7345H170.394V37.3745H165.634V35.1265ZM167.962 33.1505H169.45V32.2705H167.962V33.1505ZM177.902 30.4305H178.694V33.2465H179.774V33.8945H178.694V37.5185H177.902V30.4305ZM176.846 31.1825C176.846 33.2385 175.966 35.0545 173.654 36.2145L173.214 35.6145C174.958 34.7265 175.902 33.4625 176.054 31.8225H173.566V31.1825H176.846ZM185.254 30.4305H186.038V37.5265H185.254V30.4305ZM180.59 31.0785H183.886V33.6865H181.398V35.1905C182.526 35.1825 183.51 35.1425 184.654 34.9505L184.734 35.5825C183.502 35.7985 182.446 35.8385 181.206 35.8385H180.606V33.0465H183.094V31.7105H180.59V31.0785ZM192.246 30.4385H193.03V37.5185H192.246V30.4385ZM190.942 31.1825C190.942 33.2785 190.094 35.0625 187.662 36.2465L187.254 35.6225C189.118 34.7265 189.99 33.4705 190.134 31.8225H187.59V31.1825H190.942Z"
      fill="#A5A4A4"
    />
    <path
      d="M99.2739 49.6225H104.587V50.4695H102.486V50.5465C102.486 51.7345 103.399 52.8675 104.895 53.3185L104.356 54.1545C103.234 53.8135 102.398 53.0765 101.958 52.1415C101.529 53.1425 100.682 53.9455 99.5159 54.3195L98.9769 53.4725C100.506 53.0105 101.386 51.8115 101.386 50.5465V50.4695H99.2739V49.6225ZM105.819 49.0175H106.908V54.2975H105.819V49.0175ZM100.561 54.7485H101.628V55.8045H105.841V54.7485H106.908V58.6315H100.561V54.7485ZM101.628 56.6515V57.7515H105.841V56.6515H101.628ZM108.514 53.5275H117.303V54.3965H113.442V55.3095C115.202 55.4085 116.247 56.0135 116.247 57.0255C116.247 58.1255 114.993 58.7415 112.903 58.7415C110.813 58.7415 109.548 58.1255 109.548 57.0255C109.548 56.0135 110.593 55.4085 112.364 55.3095V54.3965H108.514V53.5275ZM112.903 56.1235C111.451 56.1235 110.637 56.4315 110.637 57.0255C110.637 57.6085 111.451 57.9165 112.903 57.9165C114.344 57.9165 115.158 57.6085 115.158 57.0255C115.158 56.4315 114.344 56.1235 112.903 56.1235ZM109.317 49.4575H116.522V50.3155H113.651C113.805 51.2175 115.081 51.9985 116.863 52.1635L116.478 53.0215C114.784 52.8345 113.431 52.1305 112.914 51.1075C112.386 52.1305 111.044 52.8345 109.339 53.0215L108.954 52.1635C110.736 51.9985 112.023 51.2175 112.177 50.3155H109.317V49.4575ZM120.664 56.6625H124.525V54.4405H121.654V49.7875H128.452V54.4405H125.592V56.6625H129.486V57.5425H120.664V56.6625ZM127.396 50.6455H122.71V53.5825H127.396V50.6455ZM131.367 49.8645H138.011V50.7555H132.434V53.6155H138.11V54.4845H131.367V49.8645ZM130.278 56.5965H139.1V57.4875H130.278V56.5965Z"
      fill="black"
    />
    <circle cx="117.431" cy="125.864" r="48.9697" stroke="#222221" stroke-width="3" stroke-linecap="round" stroke-dasharray="0.2 10" />
    <path d="M166.399 125.864C166.399 98.819 144.475 76.8945 117.43 76.8945" stroke="#B7A0FF" stroke-width="3.2" stroke-linecap="round" />
    <path
      d="M102.434 120.327V131.927L100.914 131.911V121.975L98.9623 123.143L98.2743 121.895L100.93 120.327H102.434ZM108.823 121.511C107.367 121.511 106.359 122.551 106.359 124.039C106.359 125.527 107.367 126.567 108.823 126.567C110.231 126.567 111.239 125.527 111.239 124.039C111.239 122.551 110.231 121.511 108.823 121.511ZM112.759 124.039C112.759 124.871 112.471 125.623 112.135 126.231L108.903 131.943H107.159L109.511 127.815C109.271 127.863 109.031 127.895 108.775 127.895C106.455 127.895 104.839 126.295 104.839 124.039C104.839 121.767 106.471 120.183 108.791 120.183C111.127 120.183 112.759 121.767 112.759 124.039ZM115.922 122.535C116.434 122.535 116.786 122.887 116.786 123.399C116.786 123.911 116.434 124.279 115.922 124.279C115.426 124.279 115.058 123.911 115.058 123.399C115.058 122.887 115.426 122.535 115.922 122.535ZM115.922 127.911C116.434 127.911 116.786 128.279 116.786 128.775C116.786 129.287 116.434 129.655 115.922 129.655C115.426 129.655 115.058 129.287 115.058 128.775C115.058 128.279 115.426 127.911 115.922 127.911ZM119.25 130.599C121.57 128.359 124.85 125.911 124.85 123.911C124.85 122.535 123.986 121.559 122.738 121.559C121.81 121.559 120.866 122.247 120.434 123.223L119.09 122.647C119.714 121.191 121.234 120.183 122.738 120.183C124.882 120.183 126.37 121.719 126.37 123.911C126.37 126.359 123.57 128.663 121.362 130.599H126.562V131.927H119.41L119.25 130.599ZM130.935 131.943H129.287L133.879 121.607L128.439 121.623V120.279H135.367L135.527 121.607L130.935 131.943Z"
      fill="#222221"
    />
    <path
      d="M107.087 105.439H107.871V107.007H108.879V107.655H107.871V109.439H107.087V105.439ZM103.359 109.799H107.871V112.423H103.359V109.799ZM107.103 110.415H104.127V111.799H107.103V110.415ZM102.671 105.783H103.455V108.311C104.391 108.303 105.375 108.231 106.431 108.023L106.519 108.655C105.343 108.895 104.271 108.967 103.239 108.967H102.671V105.783ZM109.335 109.119H115.727V109.751H109.335V109.119ZM110.143 110.319H110.927V111.743H115.015V112.383H110.143V110.319ZM112.535 105.663C114.055 105.663 115.055 106.207 115.055 107.095C115.055 107.991 114.055 108.527 112.535 108.527C111.007 108.527 110.015 107.991 110.015 107.095C110.015 106.207 111.007 105.663 112.535 105.663ZM112.535 106.303C111.479 106.303 110.823 106.591 110.823 107.095C110.823 107.607 111.479 107.895 112.535 107.895C113.591 107.895 114.239 107.607 114.239 107.095C114.239 106.591 113.591 106.303 112.535 106.303ZM119.971 106.031H120.763V107.199C120.763 108.503 121.499 109.807 122.603 110.303L122.139 110.935C121.331 110.543 120.707 109.759 120.379 108.799C120.051 109.831 119.427 110.671 118.579 111.079L118.107 110.431C119.219 109.919 119.971 108.559 119.971 107.199V106.031ZM123.195 105.431H123.979V112.527H123.195V105.431ZM129.899 105.439H130.683V107.519H131.691V108.167H130.683V110.567H129.899V105.439ZM128.787 105.983C128.787 107.847 127.539 109.183 125.475 109.807L125.147 109.183C126.779 108.695 127.795 107.759 127.931 106.615H125.443V105.983H128.787ZM126.211 110.047H126.995V111.735H130.971V112.375H126.211V110.047Z"
      fill="#A5A4A4"
    />
    <circle cx="166.44" cy="125.903" r="3.1" fill="#B7A0FF" />
    <circle cx="103" cy="198.834" r="8" fill="#B7A0FF" />
    <path d="M101 195.834V202.334" stroke="white" />
    <path d="M105 195.834V202.334" stroke="white" />
    <circle cx="135" cy="198.834" r="8" fill="#A5A4A4" />
    <circle cx="132.227" cy="198.835" r="0.727273" fill="white" />
    <circle cx="132.227" cy="198.835" r="0.727273" fill="white" />
    <circle cx="135.182" cy="198.835" r="0.727273" fill="white" />
    <circle cx="135.182" cy="198.835" r="0.727273" fill="white" />
    <circle cx="138.137" cy="198.835" r="0.727273" fill="white" />
    <circle cx="138.137" cy="198.835" r="0.727273" fill="white" />
  </g>
  <defs>
    <filter
      id="filter0_dd_430_4351"
      x="0"
      y="0.894531"
      width="238"
      height="257.939"
      filterUnits="userSpaceOnUse"
      color-interpolation-filters="sRGB"
    >
      <feFlood flood-opacity="0" result="BackgroundImageFix" />
      <feColorMatrix in="SourceAlpha" type="matrix" values="0 0 0 0 0 0 0 0 0 0 0 0 0 0 0 0 0 0 127 0" result="hardAlpha" />
      <feOffset dy="12" />
      <feGaussianBlur stdDeviation="12" />
      <feColorMatrix type="matrix" values="0 0 0 0 0 0 0 0 0 0 0 0 0 0 0 0 0 0 0.03 0" />
      <feBlend mode="normal" in2="BackgroundImageFix" result="effect1_dropShadow_430_4351" />
      <feColorMatrix in="SourceAlpha" type="matrix" values="0 0 0 0 0 0 0 0 0 0 0 0 0 0 0 0 0 0 127 0" result="hardAlpha" />
      <feOffset dy="8" />
      <feGaussianBlur stdDeviation="6" />
      <feComposite in2="hardAlpha" operator="out" />
      <feColorMatrix type="matrix" values="0 0 0 0 0 0 0 0 0 0 0 0 0 0 0 0 0 0 0.03 0" />
      <feBlend mode="normal" in2="effect1_dropShadow_430_4351" result="effect2_dropShadow_430_4351" />
      <feBlend mode="normal" in="SourceGraphic" in2="effect2_dropShadow_430_4351" result="shape" />
    </filter>
  </defs>
</svg>
