<svg width="340" height="20" viewBox="0 0 340 20" xmlns="http://www.w3.org/2000/svg">
  <path
    fill-rule="evenodd"
    clip-rule="evenodd"
    d="M144.051 2.26352C128.117 2.90132 112.369 3.68557 97.013 4.54295C75.2743 5.75582 53.5441 7.01054 31.9449 8.99715C25.1459 9.6245 18.2415 10.0218 11.4851 10.806C7.24377 11.2974 1.61994 11.9979 0.881881 12.1442C0.495846 12.2279 0.327433 12.3535 0.273014 12.3953C-0.109619 12.6881 -0.039803 12.9703 0.176172 13.1898C0.262902 13.2839 0.482217 13.514 1.09103 13.5454C41.8066 15.6889 83.4406 11.5065 124.205 11.0674C194.899 10.3146 267.735 13.3049 337.868 19.8294C338.48 19.8817 339.075 19.6202 339.16 19.2333C339.262 18.8569 338.82 18.491 338.208 18.4387C267.957 11.9038 195.001 8.90293 124.171 9.66621C86.1802 10.074 47.439 13.7441 9.39502 12.4894C10.2691 12.3848 11.1263 12.2802 11.9085 12.1861C18.6378 11.4019 25.5133 11.0151 32.285 10.3877C53.8383 8.40112 75.5243 7.14642 97.2341 5.94399C124.171 4.43835 152.282 3.14182 180.614 2.53538C190.75 2.62948 200.851 2.72362 210.953 2.83864C232.805 3.08958 254.76 3.82149 276.562 4.80434C283.126 5.10756 289.69 5.42121 296.254 5.69306C298.431 5.78717 304.043 6.05897 304.825 6.03806C305.795 6.01715 305.982 5.51531 305.999 5.43167C306.05 5.24346 306.016 4.98205 305.54 4.76248C305.489 4.73111 305.182 4.62649 304.502 4.56375C264.861 0.862381 222.534 0.245583 180.648 1.13433C136.467 0.747463 92.1153 0.580093 48.0461 0.402344C47.4152 0.402344 46.8999 0.716065 46.8948 1.10293C46.8914 1.4898 47.3998 1.80353 48.0308 1.81399C79.9407 1.93946 112.012 2.06485 144.051 2.26352Z"
    fill="currentColor"
  />
</svg>
