<svg viewBox="0 0 512 512" fill="none" xmlns="http://www.w3.org/2000/svg">
  <rect width="512" height="512" fill="black" />
  <path
    d="M354 229.091C354 235.879 351.573 241.697 346.718 246.545C342.188 251.071 336.039 253.818 328.272 254.788L283.612 261.091L323.417 282.424C328.919 285.333 333.126 288.889 336.039 293.091C338.951 297.293 340.408 301.818 340.408 306.667C340.408 312.808 338.304 318.303 334.097 323.151C328.919 329.293 322.608 332.364 315.165 332.364C306.427 332.364 298.822 328.162 292.35 319.758L264.194 284.364L265.65 329.455C265.974 338.505 263.709 345.939 258.854 351.758C254.324 357.253 248.013 360 239.922 360C233.126 360 227.301 357.576 222.447 352.727C217.592 347.879 215.165 341.899 215.165 334.788C215.165 330.586 216.136 325.899 218.078 320.727L234.583 279.03L195.748 302.788C189.275 306.343 183.45 308.121 178.272 308.121C172.77 308.121 167.916 306.667 163.709 303.758C159.825 300.848 157.074 296.808 155.456 291.636C154.485 288.727 154 285.657 154 282.424C154 275.313 156.104 269.495 160.311 264.97C164.841 260.444 171.152 257.697 179.243 256.727L225.359 250.424L184.097 229.091C178.919 226.505 174.874 223.111 171.961 218.909C169.049 214.707 167.592 210.182 167.592 205.333C167.592 198.869 169.696 193.212 173.903 188.364C178.434 182.222 184.744 179.152 192.835 179.152C201.249 179.152 208.854 183.515 215.65 192.242L243.806 227.152L242.35 183.03C242.026 173.657 244.129 166.222 248.66 160.727C253.515 154.909 259.987 152 268.078 152C275.197 152 281.023 154.424 285.553 159.273C290.408 164.121 292.835 170.101 292.835 177.212C292.835 181.091 291.864 185.778 289.922 191.273L272.932 232.97L312.252 209.212C319.049 205.333 325.036 203.394 330.214 203.394C335.392 203.394 339.922 205.01 343.806 208.242C348.013 211.152 350.926 215.03 352.544 219.879C353.515 222.788 354 225.859 354 229.091Z"
    fill="white"
  />
</svg>
