<svg width="512" height="512" viewBox="0 0 512 512" fill="none" xmlns="http://www.w3.org/2000/svg">
  <rect width="512" height="512" fill="black" />
  <path
    d="M336.969 274.699C348.323 282.094 354 291.196 354 302.004C354 308.83 351.729 314.803 347.188 319.923C342.646 324.474 336.686 326.749 329.306 326.749C323.061 326.749 316.249 324.758 308.869 320.776C306.031 319.638 302.057 317.647 296.948 314.803C292.406 311.39 289 308.83 286.729 307.124C286.729 309.399 287.013 313.381 287.581 319.07C288.148 324.189 288.432 328.171 288.432 331.015C289 342.393 286.729 351.21 281.62 357.467C276.511 363.156 269.983 366 262.035 366C254.655 366 248.127 363.44 242.45 358.32C236.773 352.632 233.651 344.952 233.083 335.282C233.083 332.438 232.799 328.456 232.231 323.336C232.231 317.647 231.948 313.381 231.38 310.537C227.406 313.381 221.445 318.216 213.498 325.043C204.983 331.869 197.319 335.282 190.507 335.282C183.694 335.282 177.734 332.722 172.624 327.602C168.083 322.483 165.812 316.51 165.812 309.683C165.812 300.013 170.354 290.911 179.437 282.378L208.389 258.487C201.009 253.367 189.939 246.256 175.179 237.154C164.393 229.759 159 220.658 159 209.849C159 203.023 161.271 197.05 165.812 191.931C170.921 186.242 177.166 183.398 184.546 183.398C191.358 183.398 197.886 185.389 204.131 189.371L224.568 202.17C224 199.326 223.716 195.344 223.716 190.224C223.716 185.104 223.432 181.407 222.865 179.131C222.297 168.323 224.852 160.075 230.528 154.386C236.205 148.129 243.017 145 250.965 145C257.777 145 263.738 147.56 268.847 152.68C274.524 157.799 277.646 165.194 278.214 174.865C278.214 177.709 278.498 181.976 279.065 187.664C279.633 192.784 279.917 196.766 279.917 199.61L301.205 181.691C308.585 176.003 315.965 173.158 323.345 173.158C330.725 173.158 336.686 175.718 341.227 180.838C346.336 185.958 348.891 191.931 348.891 198.757C348.891 208.996 344.349 217.813 335.266 225.208L302.057 252.514C304.895 254.22 316.533 261.615 336.969 274.699Z"
    fill="white"
  />
</svg>
