<svg xmlns="http://www.w3.org/2000/svg" fill="none" viewBox="0 0 256 256">
  <path
    fill="#fff"
    d="M0 122.88c0-43.012 0-64.5181 8.3707-80.9465 7.3631-14.4508 19.112-26.1997 33.5628-33.5628C58.3619 0 79.868 0 122.88 0h10.24c43.012 0 64.518 0 80.946 8.3707 14.451 7.3631 26.2 19.112 33.563 33.5628C256 58.3619 256 79.868 256 122.88v10.24c0 43.012 0 64.518-8.371 80.946-7.363 14.451-19.112 26.2-33.563 33.563C197.638 256 176.132 256 133.12 256h-10.24c-43.012 0-64.5181 0-80.9465-8.371-14.4508-7.363-26.1997-19.112-33.5628-33.563C0 197.638 0 176.132 0 133.12v-10.24Z"
  />
  <path
    fill="#faad00"
    d="M157.617 106.678c2.56-8.2591 8.111-16.1648 13.575-21.4845 1.224-1.1904.362-3.1935-1.387-3.1935-20.006 0-37.444 14.9904-46.624 37.181-5.689-6.699-14.144-11.297-23.781-12.306 2.534-8.333 8.128-16.3208 13.636-21.6815 1.224-1.1904.362-3.1935-1.388-3.1935-23.6603 0-43.718 20.942-50.8033 49.979.0259-.033-.8447 4.786-.8447 7.347C60 157.371 75.8255 172 95.3488 172c13.1102 0 24.5482-6.6 30.6512-16.402C132.103 165.4 143.541 172 156.651 172 176.174 172 192 157.371 192 139.326c0-18.044-15.317-32.181-34.401-32.648h.018Z"
  />
</svg>
