<svg xmlns="http://www.w3.org/2000/svg" fill="none" viewBox="0 0 512 512">
  <path fill="#1c1d1f" d="M0 0h512v512H0z" />
  <path
    fill="#e4e4e6"
    d="M356.842 190.749h-92.463c-3.48.033-6.283 2.868-6.283 6.358 0 3.468 2.814 6.282 6.283 6.282h92.463c5.804.043 10.473 4.744 10.473 10.545v84.059c0 5.802-4.669 10.502-10.473 10.546h-92.463c-3.469 0-6.283 2.814-6.283 6.282 0 3.489 2.803 6.325 6.283 6.357h92.463c12.862 0 23.28-10.415 23.28-23.261v-83.984c-.044-12.825-10.451-23.184-23.28-23.184Z"
  />
  <path
    fill="#e4e4e6"
    d="M380.122 297.917v-83.984c-.043-12.424-9.813-22.535-22.087-23.153l-1.193-.031.001-3.878c14.962 0 27.106 12.085 27.157 27.05v83.995c0 14.991-12.155 27.141-27.157 27.141h-92.5c-5.616-.052-10.126-4.627-10.126-10.237 0-5.611 4.552-10.161 10.161-10.162l.001 3.881-.642.034c-3.168.321-5.641 2.997-5.641 6.248l.03.645c.299 2.976 2.646 5.345 5.611 5.672l.642.04h92.463c12.46 0 22.626-9.775 23.249-22.065l.031-1.196Zm-16.688.075v-84.056c0-3.439-2.588-6.268-5.939-6.631l-.682-.035h-92.435c-5.609-.001-10.161-4.551-10.161-10.162 0-5.61 4.51-10.185 10.126-10.237h92.5l-.001 3.878h-92.463c-3.48.033-6.283 2.868-6.283 6.358l.03.642c.3 2.956 2.654 5.306 5.611 5.606l.642.034h92.463c5.804.043 10.473 4.744 10.473 10.545v84.059l-.052 1.074c-.499 4.945-4.406 8.875-9.349 9.41l-1.072.062h-92.463l-.001-3.881h92.435c3.675-.027 6.621-2.998 6.621-6.666Zm-115.81-153.474c3.48-.043 6.283-2.868 6.283-6.358 0-3.468-2.814-6.281-6.283-6.281-13.647-.011-26.346 6.958-33.666 18.463-7.353-11.484-20.04-18.441-33.666-18.463-3.491 0-6.327 2.803-6.371 6.281 0 3.512 2.858 6.358 6.371 6.358 15.054.044 27.261 12.247 27.305 27.297v18.932h-52.439c-12.861 0-23.279 10.415-23.279 23.261v83.984c0 12.847 10.418 23.272 23.279 23.272h52.592v18.921c-.043 15.05-12.239 27.253-27.305 27.297-3.512 0-6.359 2.846-6.359 6.358.043 3.478 2.869 6.281 6.359 6.281 13.637-.022 26.324-6.979 33.666-18.463 7.309 11.429 19.942 18.354 33.513 18.387 3.469 0 6.283-2.814 6.283-6.282 0-3.49-2.803-6.314-6.283-6.358-15.098 0-27.338-12.214-27.382-27.296V171.815c.044-15.083 12.283-27.297 27.382-27.297Zm-40.025 164.02H155.16c-5.803-.044-10.472-4.744-10.472-10.546v-84.059c0-5.801 4.669-10.502 10.472-10.545h52.592l-.153 105.15Z"
  />
  <path
    fill="#e4e4e6"
    d="M128 297.99v-83.98c0-14.99 12.156-27.14 27.157-27.141l.001 3.878-1.198.031c-12.304.623-22.081 10.785-22.081 23.23v83.984l.03 1.195c.602 11.895 10.143 21.442 22.051 22.045l1.198.032h52.592v18.921c-.043 15.05-12.239 27.253-27.305 27.297l-.652.033c-3.206.327-5.707 3.034-5.707 6.325.041 3.261 2.526 5.93 5.712 6.251l.647.03c13.637-.022 26.324-6.979 33.666-18.463 7.081 11.072 19.157 17.915 32.243 18.362l1.27.025c3.252 0 5.929-2.474 6.25-5.641l.033-.641c0-3.49-2.803-6.314-6.283-6.358-15.098 0-27.338-12.214-27.382-27.296V171.815c.043-14.611 11.531-26.529 25.976-27.259l1.406-.038c3.261-.041 5.929-2.525 6.25-5.71l.033-.648c0-3.25-2.472-5.928-5.639-6.251l-.644-.03c-13.647-.011-26.346 6.958-33.666 18.463-7.353-11.484-20.04-18.441-33.666-18.463-3.491 0-6.327 2.803-6.371 6.281l.034.648c.325 3.207 3.043 5.71 6.337 5.71 15.054.044 27.261 12.247 27.305 27.297v18.932h-52.439l-.001-3.878h48.56v-15.041l-.035-1.207c-.661-12.355-10.882-22.184-23.399-22.222-5.641-.005-10.242-4.577-10.242-10.237v-.051l.065-1.035c.58-5.115 4.926-9.076 10.187-9.076l1.404.025c12.56.42 24.273 6.204 32.248 15.758 8.252-9.933 20.566-15.787 33.677-15.778 5.61 0 10.166 4.545 10.166 10.157 0 5.62-4.521 10.167-10.116 10.237h-.05c-12.959.001-23.463 10.485-23.5 23.429v168.268l.035 1.207c.662 12.383 10.911 22.221 23.465 22.222h.05l1.035.066c5.107.577 9.081 4.902 9.081 10.172 0 5.611-4.556 10.161-10.166 10.161-13.032-.031-25.28-5.859-33.511-15.722-8.264 9.917-20.562 15.777-33.661 15.798-5.619 0-10.172-4.515-10.243-10.111v-.051l.051-1.045c.524-5.16 4.881-9.187 10.177-9.192l1.202-.03c12.368-.659 22.194-10.877 22.237-23.384v-15.046h-48.717C140.154 325.14 128 312.978 128 297.99Zm79.599 10.548H155.16l-1.074-.063c-4.942-.536-8.845-4.465-9.344-9.409l-.054-1.074v-84.059c0-5.801 4.669-10.502 10.472-10.545h52.592l-.153 105.15Zm-59.033-10.543c.001 3.667 2.952 6.639 6.626 6.667h48.53l.147-97.394h-48.682l-.677.04c-3.352.362-5.944 3.187-5.944 6.626v84.061Z"
  />
</svg>
