<svg xmlns="http://www.w3.org/2000/svg" fill="currentColor" viewBox="0 0 256 92">
  <path
    d="M244 87a4 4 0 0 1-4-4V9a4 4 0 0 1 4-4h8a4 4 0 0 1 4 4v74a4 4 0 0 1-4 4h-8Zm-27.745-31c.704-.762 1.505-.984 2.401-.667.896.318 1.344 1.016 1.344 2.095 0 3.175-1.824 6.477-5.473 9.905-3.585 3.365-8.258 5.048-14.019 5.048-7.169 0-12.995-2.222-17.475-6.667-4.417-4.444-6.626-10.254-6.626-17.428 0-6.921 2.337-12.572 7.01-16.953 4.737-4.38 10.338-6.571 16.803-6.571 5.889 0 10.434 1.301 13.635 3.904 3.264 2.604 4.897 5.524 4.897 8.762 0 2.35-1.088 4.223-3.265 5.62l-17.379 11.238c2.496 3.174 5.697 4.761 9.602 4.761 3.648 0 6.497-1.015 8.545-3.047Zm-17.571-26.095c-1.537 0-2.785.761-3.745 2.285-.896 1.524-1.344 3.334-1.344 5.429 0 4.317.576 8.095 1.728 11.333l6.145-4.476c1.665-1.206 2.497-2.952 2.497-5.238 0-.825-.064-1.683-.192-2.572-.128-.952-.384-1.968-.768-3.047-.32-1.08-.865-1.968-1.633-2.667-.768-.698-1.664-1.047-2.688-1.047ZM169.962 18c-2.241 2.032-5.153 3.048-8.738 3.048s-6.529-1.016-8.834-3.048c-2.24-2.032-3.36-4.54-3.36-7.524s1.12-5.46 3.36-7.428C154.695 1.016 157.639 0 161.224 0s6.497 1.016 8.738 3.048c2.304 1.968 3.457 4.444 3.457 7.428s-1.153 5.492-3.457 7.524Zm-20.26 53.429c-1.601 0-2.401-.667-2.401-2v-.381c0-.826.64-2.096 1.921-3.81 1.344-1.778 2.016-3.524 2.016-5.238V44.667c0-1.715-.672-3.397-2.016-5.048-1.281-1.714-1.921-2.92-1.921-3.619v-.38c0-.826.8-1.62 2.401-2.382l16.419-8c1.408-.635 2.529-.698 3.361-.19.896.508 1.344 1.301 1.344 2.38V60c0 1.714.736 3.46 2.208 5.238 1.473 1.714 2.209 2.984 2.209 3.81v.38c0 1.334-.8 2-2.401 2h-23.14ZM122.28 24.762c3.713 0 7.233.793 10.562 2.38 3.393 1.524 6.273 4.096 8.642 7.715 2.368 3.619 3.553 7.937 3.553 12.952 0 7.365-2.241 13.302-6.722 17.81-4.481 4.508-9.826 6.762-16.035 6.762-3.457 0-6.337-.667-8.642-2v9.333c0 1.714.736 3.429 2.209 5.143 1.472 1.778 2.208 3.08 2.208 3.905v.38c0 1.334-.8 2-2.4 2H93.09c-1.6 0-2.4-.666-2.4-2v-.38c0-.826.64-2.127 1.92-3.905 1.344-1.714 2.016-3.429 2.016-5.143V43.81c0-1.587-.832-3.079-2.496-4.476-1.6-1.397-2.4-2.54-2.4-3.428v-.572c0-1.143.8-2.127 2.4-2.952l14.211-6.953c1.6-.634 2.72-.73 3.36-.285.705.38 1.057 1.142 1.057 2.285v1.905c2.368-3.047 6.209-4.571 11.522-4.571Zm-1.632 42.571c3.584 0 5.377-3.301 5.377-9.905 0-3.619-.224-7.365-.672-11.238-.385-3.873-1.249-7.555-2.593-11.047-1.344-3.556-3.009-5.334-4.993-5.334-2.753 0-4.129 2.096-4.129 6.286V53.81c0 4.064.704 7.334 2.113 9.81 1.408 2.476 3.04 3.714 4.897 3.714ZM89.507 25.714c1.6 0 2.4.667 2.4 2v.381c0 1.08-.767 2.54-2.304 4.381-1.536 1.842-2.592 3.397-3.168 4.667L68.383 75.619C63.263 86.54 57.15 92 50.043 92c-4.8 0-8.705-1.174-11.714-3.524-3.008-2.285-4.513-5.016-4.513-8.19 0-2.286.704-4.127 2.113-5.524 1.344-1.333 3.2-2 5.569-2 2.368 0 4.193.698 5.473 2.095 1.344 1.46 2.144 3.048 2.4 4.762.32 1.715.704 3.27 1.152 4.667.513 1.46 1.185 2.19 2.017 2.19 2.368 0 5.153-3.873 8.354-11.619l-19.78-37.714c-.64-1.206-1.729-2.73-3.265-4.572-1.536-1.904-2.304-3.396-2.304-4.476v-.38c0-1.334.8-2 2.4-2h22.853c.704 0 1.248.19 1.632.57.448.382.672.89.672 1.525v.38c0 .699-.288 1.524-.864 2.477-.576.889-.96 1.714-1.152 2.476-.192.762.064 2.19.768 4.286L70.4 57.905l7.681-18.667c.768-2.476.8-4.222.096-5.238-.704-1.08-1.696-2.127-2.977-3.143-1.216-1.08-1.824-1.968-1.824-2.666v-.381c0-1.397.8-2.096 2.4-2.096h13.731Z"
  />
  <path
    d="M21.796 72.381c-5.057 0-9.09-1.587-12.098-4.762-2.945-3.238-4.417-7.81-4.417-13.714V32.857h-2.88c-.705 0-1.28-.222-1.729-.666C.224 31.683 0 31.11 0 30.476v-2.38c0-1.588.8-2.381 2.4-2.381h1.345c3.136 0 5.889-.89 8.257-2.667 2.369-1.778 3.905-4.127 4.61-7.048.447-1.778 1.408-2.666 2.88-2.666h2.592c.833 0 1.505.254 2.017.761.512.445.768 1.08.768 1.905v9.715h9.026c.704 0 1.28.222 1.728.666.448.445.672 1.016.672 1.714v2.381c0 .635-.224 1.207-.672 1.715-.448.444-1.024.666-1.728.666h-9.026v21.429c0 1.333.352 2.413 1.056 3.238.768.762 1.729 1.143 2.88 1.143 2.305 0 4.322-1.016 6.05-3.048.768-.825 1.6-1.11 2.497-.857.896.19 1.344.762 1.344 1.714 0 4.19-1.505 7.905-4.513 11.143-3.009 3.175-7.137 4.762-12.387 4.762Z"
  />
</svg>
