<svg xmlns="http://www.w3.org/2000/svg" fill="none" viewBox="0 0 512 512">
  <g fill="currentColor">
    <path
      d="M457.685 125.499H272.758c-6.96.065-12.567 5.736-12.567 12.715 0 6.936 5.629 12.563 12.567 12.563h184.927c11.607.088 20.945 9.488 20.945 21.092v168.118c0 11.603-9.338 21.004-20.945 21.091H272.758c-6.938 0-12.567 5.627-12.567 12.563 0 6.98 5.607 12.65 12.567 12.716h184.927c25.723 0 46.559-20.83 46.559-46.523V171.866c-.087-25.65-20.902-46.367-46.559-46.367Z"
    />
    <path
      d="M504.244 339.834V171.866c-.087-24.848-19.625-45.07-44.173-46.307l-2.386-.06.002-7.758c29.924.001 54.211 24.171 54.313 54.101v167.99c0 29.981-24.311 54.282-54.313 54.283H272.686c-11.232-.106-20.253-9.256-20.253-20.475.001-11.222 9.104-20.322 20.324-20.323l.001 7.761-1.284.067c-6.335.644-11.282 5.994-11.283 12.496l.061 1.292c.598 5.951 5.293 10.689 11.222 11.343l1.284.081h184.927c24.919-.001 45.251-19.55 46.497-44.131l.062-2.392Zm-33.375.149V171.872c0-6.877-5.177-12.536-11.879-13.262l-1.364-.071H272.757c-11.219-.001-20.323-9.102-20.324-20.323 0-11.22 9.021-20.369 20.253-20.475h185.001l-.002 7.758H272.758c-6.96.065-12.567 5.736-12.567 12.715l.061 1.285c.6 5.911 5.309 10.611 11.222 11.212l1.284.066h184.927c11.607.088 20.945 9.488 20.945 21.092v168.118l-.105 2.148c-.997 9.889-8.811 17.749-18.697 18.818l-2.143.125H272.758l-.001-7.761h184.869c7.35-.055 13.243-5.997 13.243-13.334ZM239.247 33.0365c6.96-.0873 12.567-5.7361 12.567-12.7157 0-6.936-5.629-12.5632-12.567-12.5632-27.294-.02181-52.69 13.9156-67.332 36.9264-14.705-22.9673-40.079-36.88285-67.331-36.9264-6.9821 0-12.6546 5.6054-12.7418 12.5632 0 7.0231 5.7161 12.7157 12.7418 12.7157 30.108.0872 54.522 24.4938 54.61 54.593v37.8635H54.3168c-25.7235 0-46.5592 20.83-46.5592 46.523v167.968c0 25.693 20.8363 46.544 46.5592 46.544H159.501v37.843c-.087 30.099-24.48 54.505-54.61 54.593-7.0255 0-12.7198 5.692-12.7198 12.715.0873 6.958 5.7379 12.563 12.7198 12.563 27.272-.043 52.647-13.959 67.332-36.926 14.618 22.858 39.883 36.708 67.024 36.773 6.938 0 12.567-5.627 12.567-12.563 0-6.979-5.607-12.628-12.567-12.715-30.195 0-54.676-24.429-54.763-54.593V87.6295c.087-30.1646 24.567-54.593 54.763-54.593Zm-80.05 328.0395H54.3207c-11.607-.087-20.9452-9.488-20.9452-21.091V171.867c0-11.604 9.3382-21.004 20.9452-21.091H159.505l-.308 210.3Z"
    />
    <path
      d="M0 339.98V172.02c0-29.981 24.3116-54.281 54.3133-54.283l.0035 7.756-2.3974.063c-24.6083 1.246-44.1618 21.57-44.1618 46.46v167.968l.06061 2.39c1.20429 23.791 20.28589 42.883 44.10119 44.091l2.3974.063H159.501v37.843c-.087 30.099-24.48 54.505-54.61 54.593l-1.305.066c-6.4113.653-11.4136 6.068-11.4148 12.649.0818 6.523 5.052 11.861 11.4248 12.503l1.295.06c27.272-.043 52.647-13.959 67.332-36.926 14.161 22.144 38.314 35.831 64.485 36.724l2.539.049c6.505 0 11.859-4.947 12.501-11.281l.066-1.282c0-6.979-5.607-12.628-12.567-12.715-30.195 0-54.676-24.429-54.763-54.593V87.6295c.086-29.2209 23.063-53.0578 51.951-54.5184l2.812-.0746c6.524-.0818 11.858-5.0501 12.501-11.4203l.066-1.2954c0-6.5011-4.944-11.85714-11.278-12.50262l-1.289-.06058c-27.294-.02181-52.69 13.9156-67.332 36.9264-14.705-22.9673-40.079-36.88285-67.331-36.9264-6.9821 0-12.6546 5.6054-12.7418 12.5632l.0672 1.2954c.6516 6.4145 6.0864 11.4203 12.6746 11.4203 30.108.0872 54.522 24.4938 54.61 54.593v37.8635H54.3168l-.0035-7.756h97.1217V87.6566l-.071-2.4142c-1.323-24.7095-21.765-44.3693-46.798-44.4444-11.2813-.0095-20.4836-9.1547-20.4849-20.4748v-.101l.1313-2.0707C85.3717 7.92295 94.0648 0 104.586 0l2.808.0505c25.119.8394 48.546 12.408 64.495 31.5152C188.394 11.7003 213.023-.00784 239.243.0101c11.221 0 20.334 9.09049 20.334 20.3131-.002 11.2403-9.043 20.3345-20.233 20.4748h-.101c-25.918.0021-46.925 20.9702-47 46.8586V424.192l.071 2.414c1.324 24.767 21.821 44.442 46.929 44.444h.101l2.071.132c10.214 1.155 18.161 9.805 18.162 20.343 0 11.223-9.113 20.323-20.334 20.323-26.062-.062-50.559-11.718-67.02-31.444-16.529 19.834-41.126 31.554-67.324 31.596-11.2377-.001-20.3435-9.03-20.4846-20.222v-.101l.1011-2.091c1.0477-10.319 9.7624-18.373 20.3535-18.384l2.404-.061c24.736-1.318 44.389-21.752 44.475-46.767v-30.091H54.3133C24.3075 394.281 0 369.957 0 339.98Zm159.197 21.096H54.3207l-2.1488-.127c-9.8838-1.071-17.6904-8.93-18.6869-18.818l-.1095-2.146V171.867c0-11.604 9.3382-21.004 20.9452-21.091H159.505l-.308 210.3ZM41.1315 339.99c.0027 7.334 5.9039 13.278 13.2525 13.333h97.061l.293-194.788H54.3739l-1.3535.081c-6.7045.725-11.8889 6.374-11.8889 13.253V339.99Z"
    />
  </g>
</svg>
