<svg viewBox="0 0 379 200" fill="none" xmlns="http://www.w3.org/2000/svg">
  <path
    d="M378.235 22.8942C378.235 24.91 377.515 26.6379 376.075 28.0778C374.731 29.4216 372.907 30.2376 370.603 30.5256L357.357 32.3974L369.164 38.7329C370.795 39.5968 372.043 40.6527 372.907 41.9007C373.771 43.1486 374.203 44.4924 374.203 45.9323C374.203 47.7562 373.579 49.388 372.331 50.8279C370.795 52.6518 368.924 53.5637 366.716 53.5637C364.124 53.5637 361.868 52.3158 359.948 49.82L351.597 39.3089L352.029 52.6998C352.125 55.3876 351.453 57.5954 350.013 59.3233C348.669 60.9551 346.797 61.7711 344.398 61.7711C342.382 61.7711 340.654 61.0511 339.214 59.6112C337.774 58.1714 337.054 56.3955 337.054 54.2837C337.054 53.0358 337.342 51.6439 337.918 50.108L342.814 37.725L331.295 44.7804C329.375 45.8363 327.647 46.3643 326.111 46.3643C324.479 46.3643 323.039 45.9323 321.791 45.0684C320.639 44.2045 319.824 43.0046 319.344 41.4687C319.056 40.6048 318.912 39.6928 318.912 38.7329C318.912 36.6211 319.536 34.8932 320.783 33.5493C322.127 32.2054 323.999 31.3895 326.399 31.1015L340.078 29.2297L327.839 22.8942C326.303 22.1262 325.103 21.1183 324.239 19.8704C323.375 18.6225 322.943 17.2786 322.943 15.8387C322.943 13.9189 323.567 12.239 324.815 10.7991C326.159 8.97528 328.031 8.06335 330.431 8.06335C332.926 8.06335 335.182 9.35925 337.198 11.951L345.55 22.3182L345.118 9.21526C345.022 6.43149 345.645 4.22367 346.989 2.59179C348.429 0.863931 350.349 0 352.749 0C354.861 0 356.589 0.719942 357.933 2.15983C359.372 3.59971 360.092 5.37557 360.092 7.4874C360.092 8.63931 359.804 10.0312 359.228 11.6631L354.189 24.0461L365.852 16.9906C367.868 15.8387 369.644 15.2628 371.179 15.2628C372.715 15.2628 374.059 15.7427 375.211 16.7027C376.459 17.5666 377.323 18.7185 377.803 20.1584C378.091 21.0223 378.235 21.9342 378.235 22.8942Z"
    fill="currentColor"
  />
  <path
    d="M307.523 106.407C308.771 106.407 309.731 106.983 310.403 108.135C311.171 109.287 311.555 110.871 311.555 112.887C311.555 116.343 310.739 119.318 309.107 121.814C306.419 125.942 302.868 129.158 298.452 131.461C294.132 133.765 288.949 134.917 282.901 134.917C273.686 134.917 266.534 132.181 261.447 126.71C256.359 121.142 253.815 113.655 253.815 104.248C253.815 97.6241 255.207 91.4806 257.991 85.8171C260.775 80.0575 264.615 75.4979 269.51 72.1382C274.502 68.7784 280.117 67.0986 286.357 67.0986C291.924 67.0986 296.388 68.7784 299.748 72.1382C303.108 75.4019 304.787 79.8655 304.787 85.5291C304.787 92.1526 302.388 97.8641 297.588 102.664C292.884 107.367 284.821 111.111 273.398 113.895C275.702 118.31 279.589 120.518 285.061 120.518C288.997 120.518 292.212 119.606 294.708 117.783C297.3 115.959 300.276 112.887 303.635 108.567C304.787 107.127 306.083 106.407 307.523 106.407ZM283.909 81.2094C280.357 81.2094 277.334 83.2733 274.838 87.4009C272.438 91.5286 271.238 96.5202 271.238 102.376V102.664C276.902 101.32 281.365 99.304 284.629 96.6162C287.893 93.9284 289.525 90.8087 289.525 87.257C289.525 85.4331 288.997 83.9932 287.941 82.9373C286.981 81.7854 285.637 81.2094 283.909 81.2094Z"
    fill="currentColor"
  />
  <path
    d="M239.403 57.5955C235.371 57.5955 232.347 56.6836 230.331 54.8597C228.316 52.9399 227.308 50.3001 227.308 46.9404C227.308 43.5806 228.604 40.7968 231.195 38.589C233.883 36.2852 237.195 35.1333 241.131 35.1333C244.682 35.1333 247.562 35.9972 249.77 37.7251C251.978 39.453 253.082 41.9008 253.082 45.0685C253.082 48.9082 251.834 51.98 249.338 54.2838C246.842 56.4916 243.53 57.5955 239.403 57.5955ZM238.251 134.917C232.011 134.917 227.452 132.71 224.572 128.294C221.788 123.878 220.396 118.023 220.396 110.727C220.396 106.408 220.924 100.888 221.98 94.1686C223.132 87.3531 224.572 81.0176 226.3 75.1621C227.164 72.0904 228.316 69.9785 229.756 68.8266C231.195 67.6747 233.499 67.0988 236.667 67.0988C241.563 67.0988 244.01 68.7306 244.01 71.9944C244.01 74.3942 243.098 79.9617 241.275 88.697C238.971 99.2562 237.819 106.408 237.819 110.151C237.819 113.031 238.203 115.239 238.971 116.775C239.739 118.311 241.035 119.079 242.858 119.079C244.586 119.079 246.746 117.879 249.338 115.479C251.93 113.079 255.385 109.287 259.705 104.104C260.857 102.76 262.153 102.088 263.593 102.088C264.841 102.088 265.801 102.664 266.473 103.816C267.24 104.968 267.624 106.552 267.624 108.567C267.624 112.407 266.713 115.383 264.889 117.495C255.385 129.11 246.506 134.917 238.251 134.917Z"
    fill="currentColor"
  />
  <path
    d="M228.108 102.088C229.355 102.088 230.315 102.664 230.987 103.816C231.755 104.967 232.139 106.551 232.139 108.567C232.139 112.407 231.227 115.383 229.403 117.494C225.276 122.582 220.812 126.758 216.013 130.021C211.309 133.285 205.933 134.917 199.886 134.917C194.798 134.917 190.671 133.093 187.503 129.446C182.031 132.997 176.32 134.821 170.368 134.917C169.12 153.444 166.289 168.898 161.873 181.281C157.457 193.76 150.978 200 142.434 200C137.251 200 133.411 198.128 130.915 194.384C128.42 190.641 127.172 185.457 127.172 178.834C127.172 169.426 129.331 158.435 133.651 145.86C137.971 133.381 144.642 119.606 153.666 104.536C153.666 90.5206 153.57 80.7774 153.378 75.3059C153.282 72.5221 154.385 70.3143 156.689 68.6824C158.993 67.0505 161.873 66.2346 165.329 66.2346C167.344 66.2346 168.784 66.6665 169.648 67.5305C170.608 68.2984 171.136 69.8823 171.232 72.2821C171.232 74.6819 171.28 76.4578 171.376 77.6097C174.448 73.77 177.472 71.0342 180.447 69.4023C183.423 67.6745 186.591 66.8105 189.951 66.8105C195.326 66.8105 199.694 68.9704 203.054 73.29C206.509 77.6097 208.237 83.2732 208.237 90.2807C208.237 95.3683 207.421 100.312 205.789 105.111C204.157 109.911 201.902 114.279 199.022 118.214C201.038 118.79 202.718 119.078 204.061 119.078C207.229 119.078 210.253 117.926 213.133 115.623C216.013 113.319 219.708 109.479 224.22 104.104C225.372 102.76 226.668 102.088 228.108 102.088ZM171.088 121.094C174.544 120.326 177.712 118.454 180.591 115.479C183.567 112.407 185.919 108.663 187.647 104.248C189.375 99.7359 190.239 95.0323 190.239 90.1367C190.239 87.2569 189.663 85.0971 188.511 83.6572C187.359 82.1213 185.823 81.3534 183.903 81.3534C180.447 81.3534 176.272 85.0011 171.376 92.2965C171.28 96.5202 171.232 102.712 171.232 110.871C171.232 115.287 171.184 118.694 171.088 121.094ZM143.586 185.889C146.178 185.889 148.338 180.225 150.066 168.898C151.794 157.667 152.898 143.652 153.378 126.854C149.25 136.453 145.986 145.62 143.586 154.356C141.187 163.091 139.987 170.434 139.987 176.386C139.987 179.458 140.371 181.809 141.139 183.441C141.81 185.073 142.626 185.889 143.586 185.889Z"
    fill="currentColor"
  />
  <path
    d="M154.633 102.376C155.881 102.376 156.841 103 157.513 104.248C158.281 105.4 158.665 106.887 158.665 108.711C158.665 110.919 158.329 112.647 157.657 113.895C156.985 115.143 155.929 116.247 154.489 117.207L126.843 135.781C123.195 155.651 118.396 171.25 112.444 182.577C106.589 194 99.1013 199.712 89.982 199.712C85.0864 199.712 81.1027 198.176 78.031 195.104C74.9592 192.129 73.4233 188.193 73.4233 183.297C73.4233 178.786 74.4313 174.178 76.4471 169.474C78.5589 164.771 82.3986 159.347 87.9662 153.204C93.6297 147.156 101.597 140.197 111.868 132.325L112.3 129.014C112.972 125.462 113.74 120.374 114.604 113.751C112.684 120.662 109.996 125.942 106.541 129.59C103.085 133.141 99.4373 134.917 95.5976 134.917C91.2779 134.917 87.7262 132.949 84.9424 129.014C82.2546 124.982 80.9107 119.99 80.9107 114.039C80.9107 106.839 81.3907 100.264 82.3506 94.3124C83.3105 88.2649 84.8944 81.8814 87.1022 75.1619C88.0622 72.2822 89.4061 70.2183 91.1339 68.9704C92.8618 67.7225 95.5976 67.0986 99.3413 67.0986C101.453 67.0986 102.893 67.4345 103.661 68.1065C104.525 68.7784 104.957 69.7864 104.957 71.1302C104.957 71.8982 104.429 74.49 103.373 78.9056C102.413 82.4573 101.645 85.6731 101.069 88.5529C100.301 92.4885 99.6292 96.2802 99.0533 99.9279C98.4773 103.48 98.1894 106.407 98.1894 108.711C98.1894 112.359 99.1973 114.183 101.213 114.183C102.653 114.183 104.429 112.743 106.541 109.863C108.749 106.983 111.052 102.616 113.452 96.7602C115.948 90.9047 118.348 83.7052 120.652 75.1619C121.42 72.2822 122.571 70.2183 124.107 68.9704C125.739 67.7225 128.139 67.0986 131.307 67.0986C133.515 67.0986 135.05 67.3865 135.914 67.9625C136.778 68.5384 137.21 69.4984 137.21 70.8423C137.21 73.2421 135.962 81.4974 133.467 95.6083L129.723 118.79C137.114 113.223 144.314 108.135 151.321 103.528C152.569 102.76 153.673 102.376 154.633 102.376ZM91.5659 185.745C93.9657 185.745 96.6535 182.961 99.6292 177.394C102.605 171.826 105.581 162.563 108.557 149.604C101.165 155.843 95.7896 161.507 92.4298 166.595C89.1661 171.778 87.5342 176.29 87.5342 180.13C87.5342 181.761 87.8222 183.105 88.3981 184.161C89.0701 185.217 90.126 185.745 91.5659 185.745Z"
    fill="currentColor"
  />
  <path
    d="M116.055 14.6867C119.03 15.2626 121.238 16.2706 122.678 17.7105C124.214 19.1503 124.982 20.8302 124.982 22.7501C124.982 25.9178 124.07 28.2216 122.246 29.6615C120.518 31.1014 117.735 31.6773 113.895 31.3894C105.256 30.7174 98.4881 30.2855 93.5925 30.0935C88.7929 29.8055 82.4574 29.6135 74.586 29.5175C71.0343 47.1801 67.7706 64.9387 64.7948 82.7933C63.7389 89.3207 62.635 96.9041 61.4831 105.543C60.3312 114.087 59.5632 120.998 59.1793 126.278C58.9873 129.062 57.8354 131.221 55.7235 132.757C53.6117 134.197 51.0679 134.917 48.0922 134.917C44.9244 134.917 42.4766 134.149 40.7487 132.613C39.0209 131.077 38.1569 129.062 38.1569 126.566C38.1569 124.262 38.4929 120.47 39.1649 115.191C39.9328 109.815 40.7967 104.2 41.7567 98.344C42.8126 92.4885 43.6285 87.4009 44.2045 83.0812C45.2604 75.7858 46.4603 68.5384 47.8042 61.339C49.1481 54.1395 50.492 47.3241 51.8359 40.8926C52.1238 39.4527 52.4598 37.8208 52.8438 35.997C53.2277 34.0771 53.6597 31.9653 54.1397 29.6615C44.7324 29.9495 37.341 30.7174 31.9654 31.9653C26.5899 33.2132 22.7502 34.9891 20.4464 37.2929C18.2385 39.5007 17.1346 42.3805 17.1346 45.9322C17.1346 49.1959 18.0946 52.3157 20.0144 55.2915C20.3984 55.9634 20.5904 56.6833 20.5904 57.4513C20.5904 59.2751 19.4864 61.003 17.2786 62.6349C15.1668 64.1707 12.959 64.9387 10.6551 64.9387C9.02328 64.9387 7.67939 64.4587 6.62347 63.4988C4.70362 61.8669 3.11975 59.5631 1.87185 56.5873C0.62395 53.5156 0 50.0599 0 46.2202C0 38.0608 2.63979 31.5333 7.91937 26.6377C13.2949 21.6461 21.4063 17.9984 32.2534 15.6946C43.1965 13.3908 57.2114 12.2389 74.2981 12.2389C84.8572 12.2389 93.2565 12.4309 99.496 12.8148C105.832 13.1988 111.351 13.8228 116.055 14.6867Z"
    fill="currentColor"
  />
</svg>
