<svg xmlns="http://www.w3.org/2000/svg" fill="currentColor" viewBox="0 0 339 91">
  <path
    d="M300.328 86.766h-14.109L324.609.375h14.11l-38.391 86.39Zm-11.203-38.672c0 1.828-.141 3.281-.375 4.312h-37.453c1.547 5.485 5.953 8.907 11.719 8.907 4.64 0 8.578-2.063 10.265-4.876h14.86c-1.782 5.11-4.969 9.235-9.516 12.376-4.594 3.14-9.891 4.734-15.891 4.734-7.546 0-13.875-2.438-18.89-7.36-5.016-4.921-7.547-11.015-7.547-18.328 0-7.265 2.531-13.359 7.547-18.28 5.015-4.876 11.344-7.313 18.89-7.313 7.5 0 13.782 2.437 18.844 7.312 5.016 4.922 7.547 11.063 7.547 18.516Zm-26.391-13.735c-5.484 0-9.656 3.328-11.343 8.72h22.64c-1.453-5.392-5.906-8.72-11.297-8.72Zm-41.672-17.203c-2.437 0-4.5-.797-6.14-2.437-1.641-1.64-2.484-3.703-2.484-6.188 0-2.437.843-4.453 2.484-6.094C216.562.798 218.625 0 221.062 0c2.485 0 4.594.797 6.282 2.438 1.64 1.64 2.484 3.656 2.484 6.093 0 2.485-.844 4.547-2.484 6.188-1.688 1.64-3.797 2.437-6.282 2.437Zm7.032 55.219h-14.016V23.437h14.016v48.938Zm-46.078-50.109c6.796 0 12.422 2.437 16.922 7.312 4.453 4.922 6.703 11.016 6.703 18.281 0 7.313-2.25 13.407-6.703 18.328-4.5 4.922-10.126 7.36-16.922 7.36-5.954 0-10.875-2.203-14.766-6.656v23.718h-14.016V23.438h14.016v5.437c3.891-4.406 8.812-6.61 14.766-6.61ZM170.672 56.53c2.25 2.297 5.109 3.469 8.578 3.469 3.422 0 6.281-1.172 8.578-3.469 2.297-2.297 3.422-5.203 3.422-8.672 0-3.422-1.125-6.328-3.422-8.625-2.297-2.297-5.156-3.422-8.578-3.422-3.469 0-6.328 1.126-8.578 3.422-2.297 2.297-3.422 5.203-3.422 8.625 0 3.47 1.125 6.375 3.422 8.672Zm-50.11-2.014 11.204-31.078h15.656l-27.328 67.171h-19.313V77.86h9.516l2.484-6.14-19.594-48.281h16.032l11.343 31.078ZM88.406 23.438v12.75H76.781v23.437h11.625v12.75h-25.64V36.187h-8.532v-12.75h8.532V9H76.78v14.438h11.625ZM14.11 86.766H0L38.39.375H52.5l-38.39 86.39Z"
  />
</svg>
