<svg viewBox="0 0 82 32" xmlns="http://www.w3.org/2000/svg">
  <path
    d="M81.0787 4.93226C81.5113 5.21349 81.7276 5.55961 81.7276 5.97063C81.7276 6.23023 81.6411 6.45737 81.468 6.65206C81.295 6.82513 81.0678 6.91166 80.7866 6.91166C80.5487 6.91166 80.2891 6.83594 80.0079 6.68451C79.8997 6.64125 79.7483 6.56553 79.5536 6.45737C79.3805 6.32757 79.2507 6.23023 79.1642 6.16533C79.1642 6.25186 79.175 6.40329 79.1966 6.61962C79.2183 6.81431 79.2291 6.96574 79.2291 7.0739C79.2507 7.50656 79.1642 7.84187 78.9695 8.07982C78.7748 8.29615 78.526 8.40431 78.2232 8.40431C77.942 8.40431 77.6932 8.30697 77.4768 8.11227C77.2605 7.89595 77.1415 7.6039 77.1199 7.23615C77.1199 7.12798 77.1091 6.97656 77.0875 6.78186C77.0875 6.56553 77.0766 6.40329 77.055 6.29512C76.9036 6.40329 76.6764 6.58717 76.3736 6.84676C76.0491 7.10635 75.7571 7.23615 75.4975 7.23615C75.2379 7.23615 75.0107 7.1388 74.8161 6.94411C74.643 6.74941 74.5565 6.52227 74.5565 6.26268C74.5565 5.89492 74.7295 5.5488 75.0756 5.2243L76.1789 4.31573C75.8977 4.12104 75.4758 3.85063 74.9134 3.5045C74.5024 3.22328 74.2969 2.87715 74.2969 2.46613C74.2969 2.20654 74.3834 1.9794 74.5565 1.7847C74.7512 1.56837 74.9891 1.46021 75.2703 1.46021C75.5299 1.46021 75.7787 1.53592 76.0167 1.68735L76.7954 2.17409C76.7738 2.06592 76.763 1.9145 76.763 1.7198C76.763 1.52511 76.7522 1.38449 76.7305 1.29796C76.7089 0.886941 76.8062 0.573266 77.0226 0.356939C77.2389 0.11898 77.4985 0 77.8013 0C78.0609 0 78.2881 0.0973473 78.4828 0.292042C78.6991 0.486737 78.8181 0.767962 78.8397 1.13572C78.8397 1.24388 78.8505 1.40613 78.8721 1.62246C78.8938 1.81715 78.9046 1.96858 78.9046 2.07674L79.7158 1.39531C79.997 1.17898 80.2783 1.07082 80.5595 1.07082C80.8407 1.07082 81.0678 1.16817 81.2409 1.36286C81.4356 1.55756 81.5329 1.7847 81.5329 2.04429C81.5329 2.43368 81.3599 2.76899 81.0138 3.05021L79.7483 4.08859C79.8564 4.15348 80.2999 4.43471 81.0787 4.93226Z"
    fill="currentColor"
  />
  <path
    d="M76.7007 17.8852C77.0252 17.8852 77.3064 18.0041 77.5444 18.2421C77.7823 18.4801 77.9013 18.7721 77.9013 19.1182C77.9013 19.3994 77.8148 19.7131 77.6417 20.0592C76.2572 22.6119 74.4185 23.8882 72.1254 23.8882C70.8491 23.8882 69.7891 23.4772 68.9454 22.6552C68.1234 21.8115 67.7124 20.7623 67.7124 19.5076C67.7124 17.9068 68.3505 15.7868 69.6269 13.1476C69.0212 13.0394 68.383 12.8339 67.7124 12.5311C67.3014 13.7858 66.8903 14.9647 66.4793 16.068C66.2197 16.6954 65.8195 17.009 65.2787 17.009C64.9542 17.009 64.673 16.9009 64.4351 16.6845C64.1971 16.4466 64.0781 16.1437 64.0781 15.776C64.0781 15.6029 64.1106 15.419 64.1755 15.2243C64.7379 13.7749 65.1597 12.4986 65.441 11.3953C65.1165 11.0925 64.9542 10.6706 64.9542 10.1298C64.9542 9.7188 65.084 9.36186 65.3436 9.059C65.6248 8.73451 65.971 8.57227 66.382 8.57227C66.8795 8.57227 67.2797 8.75614 67.5826 9.1239C67.6259 9.16717 67.7016 9.26451 67.8097 9.41594C67.9179 9.54574 67.9936 9.64309 68.0369 9.70799C68.1018 9.75125 68.1883 9.83778 68.2965 9.96758C68.4263 10.0757 68.5452 10.1623 68.6534 10.2272C68.7832 10.2921 68.9238 10.357 69.0752 10.4219C69.2267 10.4868 69.3997 10.5408 69.5944 10.5841C69.7891 10.6057 70.0054 10.6166 70.2434 10.6166C70.4813 10.6166 70.7734 10.5733 71.1195 10.4868C71.4656 10.4002 71.7036 10.357 71.8334 10.357C72.2228 10.357 72.5472 10.4976 72.8068 10.7788C73.0881 11.0384 73.2287 11.3737 73.2287 11.7847C73.2287 12.0011 73.1097 12.4229 72.8717 13.0502C72.7852 13.2666 72.5148 13.8723 72.0605 14.8674C71.6279 15.8625 71.2926 16.717 71.0546 17.4309C70.8383 18.1448 70.7301 18.7829 70.7301 19.3454C70.7301 19.8862 70.8924 20.3297 71.2168 20.6758C71.5413 21.0003 71.9632 21.1625 72.4824 21.1625C73.564 21.1625 74.5591 20.3405 75.4676 18.6964C75.7921 18.1556 76.2031 17.8852 76.7007 17.8852Z"
    fill="currentColor"
  />
  <path
    d="M64.1899 15.2245C64.4278 14.5755 64.8388 14.2511 65.4229 14.2511C65.7474 14.2511 66.0178 14.37 66.2341 14.608C66.4721 14.8243 66.5911 15.1164 66.5911 15.4841C66.5911 15.6788 66.5586 15.8735 66.4937 16.0682C64.5252 21.325 61.6156 23.9533 57.765 23.9533C55.8614 23.9533 54.3254 23.3584 53.1573 22.1686C52.0108 20.9572 51.4375 19.3456 51.4375 17.3337C51.4375 15.1921 52.0216 13.429 53.1897 12.0445C54.3795 10.66 55.8614 9.96777 57.6352 9.96777C59.0197 9.96777 60.123 10.368 60.945 11.1684C61.767 11.9472 62.178 12.9206 62.178 14.0888C62.178 15.3002 61.7129 16.3386 60.7827 17.2039C59.8525 18.0692 58.6736 18.5019 57.2458 18.5019C56.2291 18.5019 55.2989 18.2964 54.4552 17.8854C54.6283 20.1352 55.8397 21.2601 58.0895 21.2601C58.8466 21.2601 59.5605 21.0654 60.2311 20.676C60.9234 20.2866 61.5182 19.7674 62.0158 19.1184C62.5133 18.4478 62.9352 17.7988 63.2813 17.1715C63.6274 16.5441 63.9303 15.8951 64.1899 15.2245ZM57.7001 12.661C57.0079 12.661 56.3697 12.9423 55.7856 13.5047C55.2016 14.0455 54.8014 14.7919 54.585 15.7437C55.3638 16.0249 56.175 16.1656 57.0187 16.1656C57.7109 16.1656 58.2626 15.9817 58.6736 15.6139C59.0846 15.2462 59.2901 14.7811 59.2901 14.2186C59.2901 13.7427 59.1387 13.3641 58.8358 13.0829C58.5546 12.8017 58.176 12.661 57.7001 12.661Z"
    fill="currentColor"
  />
  <path
    d="M51.614 15.322C51.8303 14.7163 52.198 14.4134 52.7172 14.4134C52.9984 14.4134 53.2472 14.5216 53.4635 14.7379C53.7015 14.9543 53.8205 15.2247 53.8205 15.5492C53.8205 15.7222 53.788 15.8845 53.7231 16.0359C52.7497 18.7184 51.7221 20.6978 50.6405 21.9741C49.5589 23.2504 48.315 23.8886 46.9089 23.8886C44.6591 23.8886 43.2314 22.7637 42.6257 20.5139C41.2412 22.7637 39.6512 23.8886 37.8557 23.8886C36.4279 23.8886 35.3031 23.4127 34.481 22.4608C33.6806 21.4873 33.2804 20.0596 33.2804 18.1775C33.2804 16.9228 33.4967 14.9218 33.9294 12.1745C33.9294 12.1312 33.9727 11.8391 34.0592 11.2983C34.1457 10.7575 34.2106 10.3357 34.2539 10.0328H33.8969C33.4427 10.0328 33.0857 9.90302 32.8261 9.64343C32.5449 9.38383 32.4043 9.08097 32.4043 8.73485C32.4043 8.38873 32.5449 8.09668 32.8261 7.85872C33.0857 7.59913 33.4643 7.46934 33.9618 7.46934H34.6108C34.8055 6.12811 34.9353 4.83014 35.0002 3.57544C35.0218 3.12116 35.1841 2.76422 35.4869 2.50462C35.8114 2.24503 36.1792 2.11523 36.5902 2.11523C36.9796 2.11523 37.3149 2.24503 37.5961 2.50462C37.899 2.76422 38.0504 3.12116 38.0504 3.57544C38.0504 4.31096 37.9314 5.63055 37.6934 7.53423C39.1212 7.55587 41.1114 7.60995 43.664 7.69648C43.902 5.98749 44.0318 4.61381 44.0534 3.57544C44.075 3.12116 44.2373 2.76422 44.5401 2.50462C44.8646 2.24503 45.2324 2.11523 45.6434 2.11523C46.0328 2.11523 46.3681 2.24503 46.6493 2.50462C46.9522 2.76422 47.1036 3.12116 47.1036 3.57544C47.1036 4.13789 46.963 5.56565 46.6817 7.85872C47.8499 7.92362 48.6611 7.99934 49.1154 8.08587C49.8725 8.21566 50.2511 8.62669 50.2511 9.31893C50.2511 9.68669 50.1321 10.0004 49.8942 10.26C49.6562 10.5196 49.3534 10.6385 48.9856 10.6169C48.7044 10.5953 48.2609 10.5736 47.6552 10.552C47.0711 10.5087 46.6277 10.4763 46.3248 10.4547L46.0003 12.6287C45.5893 15.0949 45.3838 16.9986 45.3838 18.3398C45.3838 19.3782 45.5352 20.1137 45.8381 20.5463C46.1409 20.979 46.5952 21.1953 47.2009 21.1953C48.6719 21.1953 50.1429 19.2375 51.614 15.322ZM38.1477 21.1953C39.6187 21.1953 41.0789 19.2592 42.5283 15.3869C42.6148 14.7163 42.7663 13.6455 42.9826 12.1745L43.2746 10.3249C42.0848 10.2816 40.1055 10.2059 37.3365 10.0977L36.9471 12.6287C36.5361 15.0949 36.3306 16.9986 36.3306 18.3398C36.3306 19.3782 36.482 20.1137 36.7849 20.5463C37.0877 20.979 37.542 21.1953 38.1477 21.1953Z"
    fill="currentColor"
  />
  <path
    d="M29.22 8.21503C28.8955 8.56116 28.4845 8.73422 27.987 8.73422C27.4894 8.73422 27.0568 8.56116 26.689 8.21503C26.3429 7.86891 26.1698 7.44707 26.1698 6.94952C26.1698 6.4736 26.3429 6.06257 26.689 5.71645C27.0568 5.37033 27.4894 5.19727 27.987 5.19727C28.4629 5.19727 28.8739 5.37033 29.22 5.71645C29.5661 6.04094 29.7392 6.45196 29.7392 6.94952C29.7392 7.44707 29.5661 7.86891 29.22 8.21503ZM29.2849 23.9204C28.0519 23.9204 27.0784 23.4445 26.3645 22.4926C25.6723 21.5408 25.3262 20.1347 25.3262 18.2743C25.3262 16.76 25.5533 14.5859 26.0076 11.752C26.0941 11.2544 26.2888 10.865 26.5917 10.5838C26.8945 10.281 27.2406 10.1295 27.63 10.1295C28.0627 10.1295 28.4088 10.3026 28.6684 10.6487C28.9496 10.9948 29.0578 11.4708 28.9929 12.0765C28.9712 12.3793 28.8955 12.9959 28.7657 13.9261C28.6359 14.8563 28.5278 15.7216 28.4413 16.522C28.3764 17.3008 28.3439 17.9498 28.3439 18.4689C28.3439 20.2861 28.7549 21.1947 29.577 21.1947C30.1394 21.1947 30.7884 20.6106 31.5239 19.4424C32.2594 18.2743 32.9084 16.9006 33.4708 15.3214C33.6871 14.7157 34.0441 14.4128 34.5416 14.4128C34.8228 14.4128 35.0716 14.521 35.2879 14.7373C35.5259 14.9536 35.6449 15.224 35.6449 15.5485C35.6449 15.7216 35.6124 15.8838 35.5475 16.0353C34.5957 18.7394 33.6222 20.7296 32.6271 22.0059C31.6537 23.2822 30.5396 23.9204 29.2849 23.9204Z"
    fill="currentColor"
  />
  <path
    d="M25.5099 15.1923C25.7262 14.5866 26.1048 14.2837 26.6456 14.2837C26.9268 14.2837 27.1648 14.3811 27.3595 14.5758C27.5758 14.7705 27.684 15.0192 27.684 15.3221C27.684 15.4952 27.6515 15.679 27.5866 15.8737C26.6131 18.5995 25.5423 20.6221 24.3742 21.9417C23.2277 23.2397 21.9189 23.8887 20.4479 23.8887C18.8254 23.8887 17.5491 23.1856 16.6189 21.7795C15.6887 20.3733 15.2236 18.1668 15.2236 15.1598C15.2236 5.31695 17.2246 0.395508 21.2267 0.395508C22.1568 0.395508 22.9032 0.709182 23.4656 1.33653C24.0497 1.96388 24.3417 2.79674 24.3417 3.83511C24.3417 5.71716 23.8117 7.7939 22.7517 10.0653C21.7134 12.3151 20.2099 14.5541 18.2414 16.7823C18.4577 19.7027 19.3014 21.1629 20.7724 21.1629C21.6377 21.1629 22.503 20.5572 23.3683 19.3458C24.2552 18.1127 24.9691 16.7282 25.5099 15.1923ZM20.9671 3.05633C20.6209 3.05633 20.2532 3.42409 19.8638 4.1596C19.4961 4.87348 19.1607 6.02002 18.8579 7.59921C18.555 9.15676 18.3603 10.9631 18.2738 13.0182C19.3122 11.4607 20.1234 9.88146 20.7075 8.28064C21.2915 6.67981 21.5836 5.32777 21.5836 4.2245C21.5836 3.44572 21.3781 3.05633 20.9671 3.05633Z"
    fill="currentColor"
  />
  <path
    d="M15.1536 15.3212C15.3699 14.6939 15.7376 14.3802 16.2568 14.3802C16.538 14.3802 16.7868 14.4883 17.0031 14.7047C17.2411 14.921 17.3601 15.1914 17.3601 15.5159C17.3601 15.6241 17.3168 15.8079 17.2303 16.0675C15.543 20.1561 13.5528 23.0549 11.2597 24.7639C10.6973 29.588 8.97749 32 6.10037 32C5.1269 32 4.33732 31.708 3.73161 31.1239C3.14753 30.5615 2.85549 29.8584 2.85549 29.0147C2.85549 28.5604 2.9312 28.1278 3.08263 27.7168C3.25569 27.3274 3.43957 26.9921 3.63426 26.7108C3.85059 26.4512 4.17507 26.1484 4.60772 25.8023C5.04037 25.4778 5.39731 25.229 5.67853 25.0559C5.95975 24.8829 6.40322 24.6125 7.00893 24.2447C7.61464 23.8986 8.04729 23.6498 8.30688 23.4984C8.30688 23.2821 8.3177 22.9467 8.33933 22.4925C8.3826 22.0382 8.41504 21.692 8.43668 21.4541C7.26852 22.7088 6.00302 23.3361 4.64017 23.3361C3.34222 23.3361 2.23896 22.8602 1.3304 21.9084C0.443466 20.9349 0 19.6802 0 18.1443C0 15.8079 0.659791 13.8826 1.97937 12.3683C3.32059 10.8324 4.94303 10.0645 6.84669 10.0645C8.20954 10.0645 9.38851 10.4106 10.3836 11.1028C11.4003 11.7734 11.9087 12.6712 11.9087 13.7961C11.9087 14.5965 11.7681 17.1275 11.4869 21.3892C13.0444 19.8749 14.2666 17.8522 15.1536 15.3212ZM5.1269 20.6104C7.50648 20.6104 8.76116 18.4471 8.89096 14.1206C8.56647 13.2336 7.8526 12.7902 6.74934 12.7902C5.81914 12.7902 4.96466 13.2877 4.18589 14.2828C3.40712 15.2779 3.01773 16.5218 3.01773 18.0145C3.01773 19.7451 3.72079 20.6104 5.1269 20.6104ZM6.35996 29.3392C7.16036 29.3392 7.7228 28.3441 8.04729 26.3539C6.42485 27.3057 5.61363 28.0845 5.61363 28.6902C5.61363 29.1229 5.86241 29.3392 6.35996 29.3392Z"
    fill="currentColor"
  />
</svg>
