<svg viewBox="0 0 264 134" fill="none" xmlns="http://www.w3.org/2000/svg">
  <path
    d="M263.871 15.792C263.871 17.136 263.391 18.288 262.431 19.248C261.535 20.144 260.319 20.688 258.783 20.88L249.951 22.128L257.823 26.352C258.911 26.928 259.743 27.632 260.319 28.464C260.895 29.296 261.183 30.192 261.183 31.152C261.183 32.368 260.767 33.456 259.935 34.416C258.911 35.632 257.663 36.24 256.191 36.24C254.463 36.24 252.959 35.408 251.679 33.744L246.111 26.736L246.399 35.664C246.463 37.456 246.015 38.928 245.055 40.08C244.159 41.168 242.911 41.712 241.311 41.712C239.967 41.712 238.815 41.232 237.855 40.272C236.895 39.312 236.415 38.128 236.415 36.72C236.415 35.888 236.607 34.96 236.991 33.936L240.255 25.68L232.575 30.384C231.295 31.088 230.143 31.44 229.119 31.44C228.031 31.44 227.071 31.152 226.239 30.576C225.471 30 224.927 29.2 224.607 28.176C224.415 27.6 224.319 26.992 224.319 26.352C224.319 24.944 224.735 23.792 225.567 22.896C226.463 22 227.711 21.456 229.311 21.264L238.431 20.016L230.271 15.792C229.247 15.28 228.447 14.608 227.871 13.776C227.295 12.944 227.007 12.048 227.007 11.088C227.007 9.808 227.423 8.688 228.255 7.728C229.151 6.512 230.399 5.904 231.999 5.904C233.663 5.904 235.167 6.768 236.511 8.496L242.079 15.408L241.791 6.672C241.727 4.816 242.143 3.344 243.039 2.256C243.999 1.104 245.279 0.528 246.879 0.528C248.287 0.528 249.439 1.008 250.335 1.968C251.295 2.928 251.775 4.112 251.775 5.52C251.775 6.288 251.583 7.216 251.199 8.304L247.839 16.56L255.615 11.856C256.959 11.088 258.143 10.704 259.167 10.704C260.191 10.704 261.087 11.024 261.855 11.664C262.687 12.24 263.263 13.008 263.583 13.968C263.775 14.544 263.871 15.152 263.871 15.792Z"
    fill="currentColor"
  />
  <path
    d="M216.726 71.472C217.558 71.472 218.198 71.856 218.646 72.624C219.158 73.392 219.414 74.448 219.414 75.792C219.414 78.096 218.87 80.08 217.782 81.744C215.99 84.496 213.622 86.64 210.678 88.176C207.798 89.712 204.342 90.48 200.31 90.48C194.166 90.48 189.398 88.656 186.006 85.008C182.614 81.296 180.918 76.304 180.918 70.032C180.918 65.616 181.846 61.52 183.702 57.744C185.558 53.904 188.118 50.864 191.382 48.624C194.71 46.384 198.454 45.264 202.614 45.264C206.326 45.264 209.302 46.384 211.542 48.624C213.782 50.8 214.902 53.776 214.902 57.552C214.902 61.968 213.302 65.776 210.102 68.976C206.966 72.112 201.59 74.608 193.974 76.464C195.51 79.408 198.102 80.88 201.75 80.88C204.374 80.88 206.518 80.272 208.182 79.056C209.91 77.84 211.894 75.792 214.134 72.912C214.902 71.952 215.766 71.472 216.726 71.472ZM200.982 54.672C198.614 54.672 196.598 56.048 194.934 58.8C193.334 61.552 192.534 64.88 192.534 68.784V68.976C196.31 68.08 199.286 66.736 201.462 64.944C203.638 63.152 204.726 61.072 204.726 58.704C204.726 57.488 204.374 56.528 203.67 55.824C203.03 55.056 202.134 54.672 200.982 54.672Z"
    fill="currentColor"
  />
  <path
    d="M171.309 38.928C168.621 38.928 166.605 38.32 165.261 37.104C163.917 35.824 163.245 34.064 163.245 31.824C163.245 29.584 164.109 27.728 165.837 26.256C167.629 24.72 169.837 23.952 172.461 23.952C174.829 23.952 176.749 24.528 178.221 25.68C179.693 26.832 180.429 28.464 180.429 30.576C180.429 33.136 179.597 35.184 177.933 36.72C176.269 38.192 174.061 38.928 171.309 38.928ZM170.541 90.48C166.381 90.48 163.341 89.008 161.421 86.064C159.565 83.12 158.637 79.216 158.637 74.352C158.637 71.472 158.989 67.792 159.693 63.312C160.461 58.768 161.421 54.544 162.573 50.64C163.149 48.592 163.917 47.184 164.877 46.416C165.837 45.648 167.373 45.264 169.485 45.264C172.749 45.264 174.381 46.352 174.381 48.528C174.381 50.128 173.773 53.84 172.557 59.664C171.021 66.704 170.253 71.472 170.253 73.968C170.253 75.888 170.509 77.36 171.021 78.384C171.533 79.408 172.397 79.92 173.613 79.92C174.765 79.92 176.205 79.12 177.933 77.52C179.661 75.92 181.965 73.392 184.845 69.936C185.613 69.04 186.477 68.592 187.437 68.592C188.269 68.592 188.909 68.976 189.357 69.744C189.869 70.512 190.125 71.568 190.125 72.912C190.125 75.472 189.517 77.456 188.301 78.864C181.965 86.608 176.045 90.48 170.541 90.48Z"
    fill="currentColor"
  />
  <path
    d="M163.778 68.592C164.61 68.592 165.25 68.976 165.698 69.744C166.21 70.512 166.466 71.568 166.466 72.912C166.466 75.472 165.858 77.456 164.642 78.864C161.89 82.256 158.914 85.04 155.714 87.216C152.578 89.392 148.994 90.48 144.962 90.48C141.57 90.48 138.818 89.264 136.706 86.832C133.058 89.2 129.25 90.416 125.282 90.48C124.45 102.832 122.562 113.136 119.618 121.392C116.674 129.712 112.354 133.872 106.658 133.872C103.202 133.872 100.642 132.624 98.9783 130.128C97.3143 127.632 96.4823 124.176 96.4823 119.76C96.4823 113.488 97.9223 106.16 100.802 97.776C103.682 89.456 108.13 80.272 114.146 70.224C114.146 60.88 114.082 54.384 113.954 50.736C113.89 48.88 114.626 47.408 116.162 46.32C117.698 45.232 119.618 44.688 121.922 44.688C123.266 44.688 124.226 44.976 124.802 45.552C125.442 46.064 125.794 47.12 125.858 48.72C125.858 50.32 125.89 51.504 125.954 52.272C128.002 49.712 130.018 47.888 132.002 46.8C133.986 45.648 136.098 45.072 138.338 45.072C141.922 45.072 144.834 46.512 147.074 49.392C149.378 52.272 150.53 56.048 150.53 60.72C150.53 64.112 149.986 67.408 148.898 70.608C147.81 73.808 146.306 76.72 144.386 79.344C145.73 79.728 146.85 79.92 147.746 79.92C149.858 79.92 151.874 79.152 153.794 77.616C155.714 76.08 158.178 73.52 161.186 69.936C161.954 69.04 162.818 68.592 163.778 68.592ZM125.762 81.264C128.066 80.752 130.178 79.504 132.098 77.52C134.082 75.472 135.65 72.976 136.802 70.032C137.954 67.024 138.53 63.888 138.53 60.624C138.53 58.704 138.146 57.264 137.378 56.304C136.61 55.28 135.586 54.768 134.306 54.768C132.002 54.768 129.218 57.2 125.954 62.064C125.89 64.88 125.858 69.008 125.858 74.448C125.858 77.392 125.826 79.664 125.762 81.264ZM107.426 124.464C109.154 124.464 110.594 120.688 111.746 113.136C112.898 105.648 113.634 96.304 113.954 85.104C111.202 91.504 109.026 97.616 107.426 103.44C105.826 109.264 105.026 114.16 105.026 118.128C105.026 120.176 105.282 121.744 105.794 122.832C106.242 123.92 106.786 124.464 107.426 124.464Z"
    fill="currentColor"
  />
  <path
    d="M114.791 68.784C115.623 68.784 116.263 69.2 116.711 70.032C117.223 70.8 117.479 71.792 117.479 73.008C117.479 74.48 117.255 75.632 116.807 76.464C116.359 77.296 115.655 78.032 114.695 78.672L96.2632 91.056C93.8312 104.304 90.6312 114.704 86.6632 122.256C82.7592 129.872 77.7672 133.68 71.6872 133.68C68.4232 133.68 65.7672 132.656 63.7192 130.608C61.6712 128.624 60.6472 126 60.6472 122.736C60.6472 119.728 61.3192 116.656 62.6632 113.52C64.0712 110.384 66.6312 106.768 70.3432 102.672C74.1192 98.64 79.4312 94 86.2792 88.752L86.5672 86.544C87.0152 84.176 87.5272 80.784 88.1032 76.368C86.8232 80.976 85.0312 84.496 82.7272 86.928C80.4232 89.296 77.9912 90.48 75.4312 90.48C72.5512 90.48 70.1832 89.168 68.3272 86.544C66.5352 83.856 65.6392 80.528 65.6392 76.56C65.6392 71.76 65.9592 67.376 66.5992 63.408C67.2392 59.376 68.2952 55.12 69.7672 50.64C70.4072 48.72 71.3032 47.344 72.4552 46.512C73.6072 45.68 75.4312 45.264 77.9272 45.264C79.3352 45.264 80.2952 45.488 80.8072 45.936C81.3832 46.384 81.6712 47.056 81.6712 47.952C81.6712 48.464 81.3192 50.192 80.6152 53.136C79.9752 55.504 79.4632 57.648 79.0792 59.568C78.5672 62.192 78.1192 64.72 77.7352 67.152C77.3512 69.52 77.1592 71.472 77.1592 73.008C77.1592 75.44 77.8312 76.656 79.1752 76.656C80.1352 76.656 81.3192 75.696 82.7272 73.776C84.1992 71.856 85.7352 68.944 87.3352 65.04C88.9992 61.136 90.5992 56.336 92.1352 50.64C92.6472 48.72 93.4152 47.344 94.4392 46.512C95.5272 45.68 97.1272 45.264 99.2392 45.264C100.711 45.264 101.735 45.456 102.311 45.84C102.887 46.224 103.175 46.864 103.175 47.76C103.175 49.36 102.343 54.864 100.679 64.272L98.1832 79.728C103.111 76.016 107.911 72.624 112.583 69.552C113.415 69.04 114.151 68.784 114.791 68.784ZM72.7432 124.368C74.3432 124.368 76.1352 122.512 78.1192 118.8C80.1032 115.088 82.0872 108.912 84.0712 100.272C79.1432 104.432 75.5592 108.208 73.3192 111.6C71.1432 115.056 70.0552 118.064 70.0552 120.624C70.0552 121.712 70.2472 122.608 70.6312 123.312C71.0792 124.016 71.7832 124.368 72.7432 124.368Z"
    fill="currentColor"
  />
  <path
    d="M77.736 10.32C79.72 10.704 81.192 11.376 82.152 12.336C83.176 13.296 83.688 14.416 83.688 15.696C83.688 17.808 83.08 19.344 81.864 20.304C80.712 21.264 78.856 21.648 76.296 21.456C70.536 21.008 66.024 20.72 62.76 20.592C59.56 20.4 55.336 20.272 50.088 20.208C47.72 31.984 45.544 43.824 43.56 55.728C42.856 60.08 42.12 65.136 41.352 70.896C40.584 76.592 40.072 81.2 39.816 84.72C39.688 86.576 38.92 88.016 37.512 89.04C36.104 90 34.408 90.48 32.424 90.48C30.312 90.48 28.68 89.968 27.528 88.944C26.376 87.92 25.8 86.576 25.8 84.912C25.8 83.376 26.024 80.848 26.472 77.328C26.984 73.744 27.56 70 28.2 66.096C28.904 62.192 29.448 58.8 29.832 55.92C30.536 51.056 31.336 46.224 32.232 41.424C33.128 36.624 34.024 32.08 34.92 27.792C35.112 26.832 35.336 25.744 35.592 24.528C35.848 23.248 36.136 21.84 36.456 20.304C30.184 20.496 25.256 21.008 21.672 21.84C18.088 22.672 15.528 23.856 13.992 25.392C12.52 26.864 11.784 28.784 11.784 31.152C11.784 33.328 12.424 35.408 13.704 37.392C13.96 37.84 14.088 38.32 14.088 38.832C14.088 40.048 13.352 41.2 11.88 42.288C10.472 43.312 8.99999 43.824 7.46399 43.824C6.37599 43.824 5.47999 43.504 4.77599 42.864C3.49599 41.776 2.43999 40.24 1.60799 38.256C0.775985 36.208 0.359985 33.904 0.359985 31.344C0.359985 25.904 2.11999 21.552 5.63999 18.288C9.22399 14.96 14.632 12.528 21.864 10.992C29.16 9.45599 38.504 8.68799 49.896 8.68799C56.936 8.68799 62.536 8.81599 66.696 9.07199C70.92 9.32799 74.6 9.74399 77.736 10.32Z"
    fill="currentColor"
  />
</svg>
