<svg xmlns="http://www.w3.org/2000/svg" fill="none" viewBox="0 0 654 200">
  <g fill="currentColor" clip-path="url(#a)">
    <path
      d="M178.783 49.0229h-72.237c-2.719.0256-4.909 2.2407-4.909 4.967 0 2.7094 2.199 4.9075 4.909 4.9075h72.237c4.534.0341 8.182 3.7062 8.182 8.2388v65.6708c0 4.533-3.648 8.205-8.182 8.239h-72.237c-2.71 0-4.909 2.198-4.909 4.908 0 2.726 2.19 4.941 4.909 4.967h72.237c10.048 0 18.187-8.137 18.187-18.173V67.1353c-.034-10.0196-8.164-18.1124-18.187-18.1124Z"
    />
    <path
      d="M196.97 132.748V67.1353c-.034-9.7064-7.666-17.6055-17.255-18.0887l-.932-.0237.001-3.0303c11.689.0004 21.176 9.4418 21.216 21.1332v65.6212c0 11.711-9.496 21.204-21.216 21.204h-72.266c-4.387-.041-7.9112-3.615-7.9112-7.998.0002-4.383 3.5562-7.938 7.9392-7.939v3.032l-.502.026c-2.474.252-4.407 2.342-4.407 4.882l.024.504c.234 2.325 2.067 4.176 4.383 4.431l.502.032h72.237c9.734-.001 17.676-7.637 18.163-17.239l.024-.934Zm-13.037.058V67.1376c0-2.6864-2.022-4.8969-4.64-5.1807l-.533-.0276h-72.214c-4.383-.0003-7.9389-3.5554-7.9392-7.9388 0-4.3826 3.5242-7.9567 7.9112-7.9979h72.266l-.001 3.0303h-72.237c-2.719.0256-4.909 2.2407-4.909 4.967l.024.5017c.234 2.3091 2.074 4.1451 4.383 4.3798l.502.026h72.237c4.534.0341 8.182 3.7062 8.182 8.2388v65.6708l-.041.839c-.39 3.863-3.442 6.934-7.304 7.351l-.837.049h-72.237v-3.032h72.214c2.871-.021 5.173-2.342 5.173-5.208ZM93.4559 12.9049c2.7188-.0341 4.9091-2.2407 4.9091-4.96708 0-2.70938-2.1988-4.90751-4.9091-4.90751-10.6617-.00852-20.5821 5.43578-26.3015 14.42439C61.4102 8.4831 51.4984 3.04733 40.853 3.03031c-2.7273 0-4.9431 2.18962-4.9771 4.90751 0 2.74338 2.2328 4.96708 4.9771 4.96708 11.7611.034 21.2979 9.5679 21.332 21.3254v14.7905H21.2175c-10.0482 0-18.18719 8.1367-18.18719 18.1731v65.6121c0 10.037 8.13919 18.182 18.18719 18.182H62.305v14.782c-.0341 11.757-9.5624 21.291-21.332 21.325-2.7443 0-4.9686 2.224-4.9686 4.967.0341 2.718 2.2413 4.908 4.9686 4.908 10.6532-.017 20.5651-5.453 26.3014-14.425 5.7102 8.929 15.5793 14.339 26.1815 14.365 2.7103 0 4.9091-2.198 4.9091-4.908 0-2.726-2.1903-4.933-4.9091-4.967-11.7952 0-21.3577-9.542-21.3918-21.325V34.2303c.0341-11.7831 9.5964-21.3254 21.3918-21.3254ZM62.1865 141.045H21.219c-4.534-.034-8.1817-3.706-8.1817-8.238V67.1354c0-4.5325 3.6477-8.2047 8.1817-8.2387h41.0875l-.12 82.1483Z"
    />
    <path
      d="M0 132.805V67.1954c0-11.7113 9.49671-21.2035 21.2161-21.2042l.0014 3.0296-.9365.0243c-9.6126.4869-17.25069 8.4261-17.25069 18.1488v65.6121l.02368.934c.47043 9.293 7.92421 16.751 17.22701 17.223l.9365.025H62.305v14.782c-.0341 11.757-9.5624 21.291-21.332 21.325l-.5096.026c-2.5045.255-4.4585 2.37-4.459 4.941.0319 2.548 1.9734 4.633 4.4629 4.884l.5057.024c10.6532-.017 20.5651-5.453 26.3014-14.425 5.5317 8.65 14.9665 13.997 25.1896 14.346l.9919.019c2.5411 0 4.6322-1.933 4.8833-4.407l.0258-.501c0-2.726-2.1903-4.933-4.9091-4.967-11.7952 0-21.3577-9.542-21.3918-21.325V34.2303c.0337-11.4144 9.0089-20.7257 20.2934-21.2963l1.0984-.0291c2.5484-.032 4.6321-1.9727 4.8833-4.46109l.0258-.50599c0-2.53951-1.9316-4.6317-4.4056-4.88384l-.5035-.02367C82.7942 3.02179 72.8738 8.46609 67.1544 17.4547 61.4102 8.4831 51.4984 3.04733 40.853 3.03031c-2.7273 0-4.9431 2.18962-4.9771 4.90751l.0262.50599c.2545 2.50569 2.3775 4.46109 4.9509 4.46109 11.7611.034 21.2979 9.5679 21.332 21.3254v14.7905H21.2175l-.0014-3.0296h37.9381V34.2408l-.0276-.943c-.5168-9.6521-8.5019-17.3317-18.2805-17.3611-4.4068-.0037-8.0014-3.5761-8.0019-7.99794v-.03945l.0513-.80887C33.3483 3.0949 36.7441 0 40.854 0l1.0969.01973C51.763.34762 60.9142 4.86662 67.1443 12.3303 73.5915 4.57044 83.2121-.00306 93.4544.00395c4.3829 0 7.9426 3.55097 7.9426 7.93481 0 4.39074-3.5321 7.94314-7.9031 7.99794h-.0395c-10.1242.0008-18.3302 8.1915-18.3594 18.3041V165.7l.0276.943c.5173 9.674 8.524 17.36 18.3318 17.361h.0395l.8088.051c3.9898.452 7.0943 3.83 7.0943 7.947 0 4.384-3.5597 7.939-7.9426 7.939-10.1807-.025-19.7498-4.578-26.1799-12.283-6.4565 7.747-16.0646 12.326-26.2982 12.342-4.3899 0-7.9468-3.528-8.0019-7.899v-.04l.0394-.817c.4093-4.03 3.8135-7.176 7.9507-7.181l.9391-.023c9.6625-.515 17.3394-8.498 17.373-18.269v-11.754H21.2161C9.49512 154.016 0 144.514 0 132.805Zm62.1865 8.24H21.219l-.8394-.049c-3.8608-.419-6.9103-3.488-7.2995-7.351l-.0428-.838V67.1354c0-4.5325 3.6477-8.2047 8.1817-8.2387h41.0875l-.12 82.1483Zm-46.1195-8.236c.001 2.865 2.3062 5.186 5.1768 5.208h37.9144l.1144-76.0891H21.2398l-.5287.0315c-2.6189.2831-4.6441 2.4898-4.6441 5.1768v65.6728Z"
    />
  </g>
  <path
    fill="currentColor"
    d="M580.721 154.167V45.8335h72.119v16.25h-54.322V91.024h49.834v15.631h-49.834v31.262h55.096v16.25h-72.893Zm-41.26 0V45.8335h17.798V154.167h-17.798Zm-92.191 0V45.8335h40.238c20.428 0 35.904 13.3095 35.904 33.7381 0 20.4284-15.476 33.7384-35.904 33.7384h-22.441v40.857H447.27Zm39.309-92.8573h-21.512v36.5238h21.512c11.143 0 19.036-7.119 19.036-18.2619 0-11.1429-7.893-18.2619-19.036-18.2619ZM378.482 154.167v-47.203l-39.774-61.1305h20.583l28.167 44.2619 28.167-44.2619h20.273l-39.619 60.5115v47.822h-17.797Zm-93.196 0V62.0835H250v-16.25h88.369v16.25h-35.286v92.0835h-17.797Z"
  />
  <defs>
    <clipPath id="a">
      <path fill="#fff" d="M0 0h200v200H0z" />
    </clipPath>
  </defs>
</svg>
