<svg xmlns="http://www.w3.org/2000/svg" fill="none" viewBox="0 0 318 74">
  <g fill="#000" clip-path="url(#a)">
    <path
      d="M232.411 8.10203c-3.58-1.60036-7.803-2.39695-12.67-2.39695h-40.183c-.883 0-1.582.244-2.109.73918-.472.43059-.794.83247-.965 1.19848L163.813 31.44 151.136 7.64274c-.117-.36601-.439-.76789-.966-1.19848-.472-.49518-1.143-.73918-2.026-.73918H90.1974c-.6435 0-1.1706.21529-1.5813.64588-.4107.43059-.6161.98319-.6161 1.65778v9.86766c0 .6172.2054 1.1698.6161 1.6578.4107.4306.9378.6459 1.5813.6459h15.6756v47.8027c0 .6746.206 1.2272.617 1.6578.41.4306.937.6459 1.581.6459h11.617c.643 0 1.17-.2153 1.581-.6459.411-.4306.616-.9832.616-1.6578V20.1873h19.551l14.45 27.9453v19.8502c0 .6746.206 1.2272.616 1.6578.473.4306 1 .6459 1.582.6459h11.438c.644 0 1.171-.2153 1.582-.6459.41-.4306.616-.9832.616-1.6578V48.1326L192.9 7.44897V67.99c0 .6746.205 1.2272.616 1.6578.41.4306.937.6458 1.581.6458h11.877c.643 0 1.17-.2152 1.581-.6458.472-.4306.705-.9832.705-1.6578V47.7666h10.474c4.867 0 9.09-.7392 12.671-2.2104 3.635-1.4783 6.455-3.7533 8.447-6.8248 2.053-3.0716 3.08-6.9828 3.08-11.7121 0-4.7293-1.027-8.7625-3.08-11.8986-1.992-3.1362-4.812-5.47572-8.447-7.01149l.006-.00718Zm-7.126 24.90247c-1.465 1.3564-3.463 2.031-5.983 2.031h-10.295V18.5223h10.295c2.93 0 5.046.7966 6.332 2.397 1.294 1.6003 1.938 3.5667 1.938 5.9062 0 2.7702-.76 4.8298-2.287 6.179Zm37.342-27.29942h-11.788c-.643 0-1.17.21529-1.581.64588-.411.43059-.616.98319-.616 1.65778V67.9828c0 .6746.205 1.2272.616 1.6578.411.4306.938.6459 1.581.6459h11.788c.643 0 1.17-.2153 1.581-.6459.411-.4306.616-.9832.616-1.6578V8.00874c0-.67459-.205-1.22719-.616-1.65778-.411-.43059-.938-.64588-1.581-.64588Zm54.764 51.92922c-.411-.4306-.938-.6459-1.582-.6459h-28.771V44.164h26.136c.643 0 1.17-.2153 1.581-.6459.411-.4952.616-1.0478.616-1.6578V33.837c0-.6746-.205-1.2272-.616-1.6578-.411-.4952-.938-.7392-1.581-.7392h-26.136V18.9888h28.066c.644 0 1.171-.2153 1.582-.6459.41-.4306.616-.9832.616-1.6578V8.00874c0-.67459-.206-1.22719-.616-1.65778-.411-.43059-.938-.64588-1.582-.64588h-41.093c-.643 0-1.17.21529-1.581.64588-.411.43059-.616.98319-.616 1.65778V67.9828c0 .6746.205 1.2272.616 1.6578.411.4306.938.6459 1.581.6459h41.792c.643 0 1.17-.2153 1.581-.6459.411-.4306.616-.9832.616-1.6578v-8.6907c0-.6746-.205-1.2272-.616-1.6578h.007Z"
    />
  </g>
  <path
    fill="#000"
    d="M0 35.56c0-12.0971 0-18.1457 2.35426-22.7662a21.60004 21.60004 0 0 1 9.43954-9.43954C16.4143 1 22.4629 1 34.56 1h2.88c12.0971 0 18.1457 0 22.7662 2.35426 4.0643 2.07086 7.3687 5.37525 9.4395 9.43954C72 17.4143 72 23.4629 72 35.56v2.88c0 12.0971 0 18.1457-2.3543 22.7662a21.59914 21.59914 0 0 1-9.4395 9.4395C55.5857 73 49.5371 73 37.44 73h-2.88c-12.0971 0-18.1457 0-22.7662-2.3543-4.06429-2.0708-7.36868-5.3752-9.43954-9.4395C0 56.5857 0 50.5371 0 38.44v-2.88Z"
  />
  <path
    fill="#fff"
    d="M45.6371 31.0345c.7803-2.6271 2.4723-5.1419 4.1381-6.8341.3731-.3786.1103-1.0158-.423-1.0158-6.0981 0-11.4132 4.7684-14.2114 11.8271-1.734-2.1309-4.3115-3.5933-7.2488-3.9145.7724-2.6506 2.4776-5.1915 4.1564-6.8968.3731-.3786.1104-1.0158-.423-1.0158-7.2121 0-13.3259 6.6617-15.4856 15.8983.0079-.0105-.2575 1.5224-.2575 2.3372 0 5.7399 4.8238 10.3934 10.7748 10.3934 3.9962 0 7.4827-2.0995 9.3429-5.2176 1.8601 3.1181 5.3466 5.2176 9.3428 5.2176 5.951 0 10.7748-4.6535 10.7748-10.3934s-4.6688-10.2368-10.4857-10.3856h.0052Z"
  />
  <defs>
    <clipPath id="a">
      <path fill="#fff" d="M88 5h230v66H88z" />
    </clipPath>
  </defs>
</svg>
