<svg xmlns="http://www.w3.org/2000/svg" fill="none" viewBox="0 0 318 74">
  <g fill="#fefdf9" clip-path="url(#a)">
    <path
      d="M232.411 8.102q-5.37-2.399-12.67-2.397h-40.183c-.883 0-1.582.244-2.109.74q-.708.647-.965 1.198L163.813 31.44 151.136 7.643q-.175-.55-.966-1.199c-.472-.495-1.143-.739-2.026-.739H90.197q-.965 0-1.58.646-.618.645-.617 1.658v9.867q0 .926.616 1.658.616.645 1.581.646h15.676v47.803q0 1.011.617 1.658.615.645 1.581.645h11.617q.965 0 1.581-.645.616-.647.616-1.658V20.187h19.551l14.45 27.946v19.85q0 1.011.616 1.658.71.645 1.582.645h11.438q.966 0 1.582-.645.615-.647.616-1.658v-19.85L192.9 7.449V67.99q0 1.012.616 1.658.615.645 1.581.646h11.877q.964 0 1.581-.646.707-.645.705-1.658V47.767h10.474c4.867 0 9.09-.74 12.671-2.21 3.635-1.48 6.455-3.754 8.447-6.826 2.053-3.071 3.08-6.982 3.08-11.712s-1.027-8.762-3.08-11.898c-1.992-3.136-4.812-5.476-8.447-7.012zm-7.126 24.903c-1.465 1.356-3.463 2.03-5.983 2.03h-10.295V18.522h10.295c2.93 0 5.046.797 6.332 2.397q1.94 2.398 1.938 5.907.002 4.155-2.287 6.179m37.342-27.3h-11.788q-.964 0-1.581.646-.616.645-.616 1.658v59.974q0 1.011.616 1.658.617.645 1.581.645h11.788q.964 0 1.581-.645.616-.647.616-1.658V8.009q0-1.012-.616-1.658t-1.581-.646m54.764 51.929q-.616-.645-1.581-.646h-28.772V44.164h26.136q.965 0 1.581-.646.616-.743.616-1.658v-8.023q0-1.012-.616-1.658a1.96 1.96 0 0 0-1.581-.739h-26.136V18.989h28.066q.966 0 1.582-.646.616-.645.616-1.658V8.01q0-1.012-.616-1.658t-1.582-.646h-41.093q-.964 0-1.581.646-.616.645-.616 1.658v59.974q0 1.011.616 1.658.617.645 1.581.645h41.792q.965 0 1.581-.645.616-.647.616-1.658v-8.69q0-1.012-.616-1.659z"
    />
  </g>
  <rect width="72" height="72" y="1" fill="#fefdf9" rx="20" />
  <path
    fill="#100f0d"
    d="M44.33 31.003c.72-2.323 2.281-4.546 3.818-6.042.344-.335.102-.898-.39-.898-5.627 0-10.532 4.216-13.113 10.457-1.6-1.884-3.978-3.178-6.689-3.461.713-2.344 2.286-4.59 3.835-6.098.345-.335.102-.898-.39-.898-6.654 0-12.296 5.89-14.288 14.056.007-.01-.238 1.346-.238 2.066 0 5.076 4.45 9.19 9.942 9.19 3.687 0 6.904-1.856 8.62-4.613 1.717 2.757 4.934 4.613 8.621 4.613 5.49 0 9.942-4.114 9.942-9.19 0-5.074-4.308-9.05-9.675-9.182z"
  />
  <defs>
    <clipPath id="a">
      <path fill="#fff" d="M88 5h230v66H88z" />
    </clipPath>
  </defs>
</svg>
