<svg viewBox="0 0 12 13" xmlns="http://www.w3.org/2000/svg">
  <path
    id="Vector"
    d="M5.99964 3.11133C6.14122 3.11133 6.277 3.16757 6.37711 3.26768C6.47722 3.36779 6.53346 3.50357 6.53346 3.64515V5.56689L8.19826 4.60602C8.25902 4.57097 8.32608 4.54823 8.39563 4.53909C8.46517 4.52996 8.53583 4.53461 8.60358 4.55279C8.67132 4.57097 8.73482 4.60231 8.79046 4.64502C8.84609 4.68774 8.89276 4.741 8.92781 4.80175C8.96287 4.86251 8.98561 4.92957 8.99474 4.99912C9.00387 5.06866 8.99922 5.13932 8.98104 5.20707C8.96287 5.27481 8.93153 5.33831 8.88881 5.39395C8.84609 5.44958 8.79284 5.49625 8.73208 5.5313L7.06728 6.49218L8.73279 7.45305C8.85549 7.52384 8.94505 7.64047 8.98176 7.77729C9.01846 7.9141 8.99931 8.0599 8.92853 8.1826C8.85774 8.3053 8.74111 8.39486 8.60429 8.43156C8.46747 8.46827 8.32168 8.44912 8.19897 8.37833L6.53346 7.41675V9.33921C6.53346 9.48078 6.47722 9.61656 6.37711 9.71667C6.277 9.81678 6.14122 9.87302 5.99964 9.87302C5.85807 9.87302 5.72229 9.81678 5.62218 9.71667C5.52207 9.61656 5.46583 9.48078 5.46583 9.33921V7.41675L3.80031 8.37762C3.67817 8.44266 3.53555 8.45773 3.40251 8.41966C3.26948 8.38158 3.15643 8.29333 3.0872 8.17352C3.01797 8.0537 2.99797 7.91168 3.03142 7.77741C3.06487 7.64314 3.14915 7.5271 3.2665 7.45376L4.93201 6.49218L3.26721 5.5313C3.14451 5.46051 3.05495 5.34388 3.01825 5.20707C2.98154 5.07025 3.00069 4.92445 3.07147 4.80175C3.14226 4.67905 3.25889 4.5895 3.39571 4.55279C3.53253 4.51608 3.67832 4.53523 3.80103 4.60602L5.46583 5.56689V3.64515C5.46583 3.50357 5.52207 3.36779 5.62218 3.26768C5.72229 3.16757 5.85807 3.11133 5.99964 3.11133Z"
    fill="currentColor"
  />
</svg>
