<svg xmlns="http://www.w3.org/2000/svg" width="208" height="148" fill="none">
  <path fill="#FFF"
    d="M153.82 40.58C157.854 27 166.601 14 175.212 5.252c1.929-1.957.571-5.251-2.187-5.251-31.524 0-59.001 24.65-73.466 61.141-8.965-11.016-22.289-18.576-37.474-20.236C66.078 27.202 74.893 14.067 83.572 5.25 85.501 3.294 84.142 0 81.385 0 44.102 0 12.495 34.438 1.331 82.188 1.371 82.134 0 90.058 0 94.27 0 123.943 24.937 148 55.701 148c20.659 0 38.683-10.854 48.299-26.973C113.616 137.146 131.64 148 152.299 148 183.063 148 208 123.943 208 94.27s-24.136-52.92-54.207-53.69h.027Z" />
</svg>