<svg xmlns="http://www.w3.org/2000/svg" fill="none" viewBox="0 0 208 148">
  <path
    fill="currentColor"
    d="M153.82 40.5809c4.034-13.581 12.781-26.5814 21.392-35.32942C177.141 3.29399 175.783 0 173.025 0c-31.524 0-59.001 24.6509-73.4664 61.1413-8.9644-11.016-22.2886-18.5759-37.4737-20.2364C66.0781 27.2024 74.893 14.067 83.5722 5.25148 85.5008 3.29399 84.1426 0 81.3854 0 44.1019 0 12.4958 34.4384 1.33107 82.1877 1.37182 82.1337 0 90.0582 0 94.2702 0 123.943 24.9372 148 55.7012 148c20.6587 0 38.6825-10.854 48.2988-26.973C113.616 137.146 131.64 148 152.299 148 183.063 148 208 123.943 208 94.2702c0-29.6729-24.136-52.9198-54.207-53.6893h.027Z"
  />
</svg>
