<svg xmlns="http://www.w3.org/2000/svg" fill="none" viewBox="0 0 48 48">
  <path fill="currentColor" d="M42.9079 11.7655H25.5711c-.6525.0061-1.1782.5378-1.1782 1.1921 0 .6502.5277 1.1778 1.1782 1.1778h17.3368c1.0882.0082 1.9636.8895 1.9636 1.9773v15.7611c0 1.0878-.8754 1.9691-1.9636 1.9773H25.5711c-.6505 0-1.1782.5275-1.1782 1.1778 0 .6543.5257 1.1859 1.1782 1.192h17.3368c2.4116 0 4.365-1.9528 4.365-4.3615V16.1125c-.0082-2.4047-1.9596-4.347-4.365-4.347Z"/>
  <path fill="currentColor" d="M47.2729 31.8594V16.1125c-.0082-2.3296-1.8399-4.2254-4.1413-4.3413l-.2237-.0057.0002-.7273c2.8054.0001 5.0824 2.2661 5.0919 5.072v15.749c0 2.8108-2.2792 5.089-5.0919 5.0891H25.5643c-1.053-.0099-1.8987-.8677-1.8987-1.9195.0001-1.0521.8535-1.9053 1.9053-1.9053l.0002.7276-.1204.0063c-.5939.0603-1.0577.5619-1.0578 1.1715l.0057.1211c.0561.5579.4962 1.0021 1.0521 1.0634l.1204.0075h17.3368c2.3362-.0001 4.2424-1.8328 4.3591-4.1372l.0059-.2243Zm-3.129.0141V16.113a1.2488 1.2488 0 0 0-1.1136-1.2433l-.1279-.0067H25.5709c-1.0518 0-1.9052-.8533-1.9053-1.9053 0-1.0518.8457-1.9096 1.8987-1.9195h17.3438l-.0002.7273H25.5711c-.6525.0061-1.1782.5378-1.1782 1.1921l.0057.1204c.0563.5542.4977.9948 1.0521 1.0511l.1204.0063h17.3368c1.0882.0082 1.9636.8895 1.9636 1.9773v15.7611l-.0098.2014c-.0935.9271-.826 1.664-1.7528 1.7642l-.201.0117H25.5711l-.0002-.7276h17.3315a1.2485 1.2485 0 0 0 1.2415-1.25ZM22.4294 3.0972c.6525-.0082 1.1782-.5378 1.1782-1.1921 0-.6503-.5277-1.1778-1.1782-1.1778a7.4744 7.4744 0 0 0-6.3123 3.4618C14.7385 2.036 12.3596.7314 9.8047.7273c-.6545 0-1.1863.5255-1.1945 1.1778 0 .6584.5359 1.192 1.1945 1.192 2.8227.0082 5.1115 2.2964 5.1197 5.1182v3.5497H5.0922c-2.4116 0-4.365 1.9528-4.365 4.3615v15.747c0 2.4088 1.9535 4.3635 4.365 4.3635h9.861v3.5477c-.0082 2.8218-2.295 5.11-5.1197 5.1181-.6586 0-1.1925.5337-1.1925 1.1921.0082.6523.538 1.1778 1.1925 1.1778a7.5065 7.5065 0 0 0 6.3124-3.4618c1.3704 2.143 3.739 3.4414 6.2835 3.4475.6505 0 1.1782-.5276 1.1782-1.1778 0-.6543-.5257-1.1839-1.1782-1.1921-2.8308 0-5.1258-2.2902-5.134-5.1181V8.2153c.0082-2.828 2.3031-5.1181 5.134-5.1181Zm-7.5046 30.7537H5.0926c-1.0882-.0082-1.9636-.8895-1.9636-1.9773V16.1125c0-1.0878.8754-1.9691 1.9636-1.9773h9.861l-.0288 19.7157Z"/>
  <path fill="currentColor" d="M0 31.8731V16.1269c0-2.8107 2.2792-5.0888 5.0919-5.089l.0003.7271-.2248.0058c-2.307.1169-4.1401 2.0223-4.1401 4.3557v15.747l.0057.224c.1129 2.2305 1.9018 4.0204 4.1344 4.1336l.2248.0059h9.861v3.5477c-.0082 2.8218-2.295 5.11-5.1197 5.1181l-.1223.0063c-.601.0612-1.07.5688-1.0701 1.1858.0076.6115.4736 1.112 1.071 1.1721l.1214.0057a7.5065 7.5065 0 0 0 6.3124-3.4618c1.3276 2.076 3.5919 3.3591 6.0455 3.4429l.238.0046c.6099 0 1.1117-.4638 1.172-1.0576l.0062-.1202c0-.6543-.5257-1.1839-1.1782-1.1921-2.8308 0-5.1258-2.2902-5.134-5.1181V8.2153c.0081-2.7395 2.1621-4.9742 4.8704-5.1111l.2636-.007c.6116-.0077 1.1117-.4735 1.172-1.0707l.0062-.1214c0-.6095-.4636-1.1116-1.0573-1.1721l-.1209-.0057a7.4744 7.4744 0 0 0-6.3123 3.4618C14.7385 2.036 12.3596.7314 9.8047.7273c-.6545 0-1.1863.5255-1.1945 1.1778l.0063.1214c.061.6014.5706 1.0707 1.1882 1.0707 2.8227.0082 5.1115 2.2963 5.1197 5.118v3.5498H5.0922l-.0003-.7271h9.1051V8.2178l-.0066-.2263c-.124-2.3165-2.0405-4.1597-4.3873-4.1667-1.0577-.0009-1.9204-.8582-1.9205-1.9195v-.0095l.0123-.1941C8.0036.7427 8.8186 0 9.805 0l.2633.0047c2.3549.0787 4.5512 1.1633 6.0464 2.9546A8.2023 8.2023 0 0 1 22.4291.0009c1.0519 0 1.9062.8523 1.9062 1.9044-.0001 1.0538-.8477 1.9064-1.8968 1.9195h-.0094c-2.4299.0002-4.3993 1.966-4.4063 4.393V39.768l.0066.2263c.1242 2.3219 2.0458 4.1665 4.3997 4.1667h.0094l.1942.0123c.9575.1083 1.7026.9192 1.7026 1.9072 0 1.0521-.8543 1.9053-1.9062 1.9053a8.2122 8.2122 0 0 1-6.2832-2.9479A8.2344 8.2344 0 0 1 9.8343 48c-1.0536-.0001-1.9072-.8466-1.9205-1.8958v-.0095l.0095-.196c.0982-.9674.9152-1.7225 1.9082-1.7235l.2254-.0057c2.319-.1236 4.1614-2.0393 4.1695-4.3845v-2.821H5.0919C2.2789 36.9638 0 34.6834 0 31.8731Zm14.9248 1.9778H5.0926l-.2015-.0119c-.9266-.1004-1.6585-.8372-1.7519-1.7642l-.0102-.2012V16.1125c0-1.0878.8754-1.9691 1.9636-1.9773h9.861l-.0288 19.7157ZM3.8561 31.8741c.0002.6876.5535 1.2448 1.2424 1.25h9.0995l.0274-18.2614H5.0976l-.127.0076c-.6285.0679-1.1145.5975-1.1145 1.2424v15.7614Z"/>
</svg>
